<svg width="312" height="240" viewBox="0 0 312 240" fill="none" xmlns="http://www.w3.org/2000/svg">
<mask id="mask0_4119_91591" style="mask-type:alpha" maskUnits="userSpaceOnUse" x="0" y="0" width="312" height="240">
<rect width="312" height="240" fill="#C4C4C4"/>
</mask>
<g mask="url(#mask0_4119_91591)">
<path d="M86.2407 82.0589C85.5765 82.2331 84.9057 82.4003 84.2285 82.5562C70.1949 85.7905 54.4433 82.7549 40.2491 85.5378C22.9307 88.9342 8.45073 101.456 3.94733 117.751C-0.238409 132.896 6.92109 152.681 15.2705 167.549C21.1516 178.022 28.7364 188.01 38.1001 196.176C46.0604 203.119 56.2807 211.626 65.877 215.88C80.559 222.389 96.7783 224.279 111.08 221.148C128.589 217.314 141.151 206.115 156.807 199.342C171.358 193.048 188.404 195.581 204.812 201.017C222.684 206.938 240.531 215.516 258.603 216.271C278.454 217.098 296.848 207.372 304.6 191.185C312.354 174.997 308.769 152.905 295.198 137.015C287.171 127.615 276.399 120.731 267.256 112.281C258.58 104.262 253.689 95.8173 251.043 85.26C248.73 76.0285 250.608 67.1332 247.739 57.924C243.475 44.2347 234.387 31.1803 222.444 21.6499C203.199 6.29229 173.794 -2.09984 152.609 4.99319C140.851 8.92852 132.048 17.0309 127.384 27.8984C123.212 37.6197 121.144 48.3381 116.825 57.9845C111.152 70.6546 100.094 78.4132 86.2407 82.0589Z" fill="#F4F9FF"/>
<path d="M188.8 203.132C178.72 202.271 168.973 204.655 159.946 208.364C153.926 210.837 147.455 213.807 142.766 218.572C135.238 226.223 139.631 234.479 150.648 234.794C159.983 235.061 168.245 230.293 177.293 228.84C184.907 227.616 193.006 228.779 200.764 231.496C204.379 232.762 207.991 234.374 211.667 234.728C221.856 235.708 225.77 223.816 217.828 215.879C210.198 208.255 198.199 203.935 188.8 203.132Z" fill="#F4F9FF"/>
<path d="M266.49 99.2015C270.886 104.684 285.891 112.406 292.429 110.938C305.676 107.963 284.863 84.9009 280.742 78.9653C274.471 69.9294 262.658 61.4677 261.059 76.5951C260.228 84.4513 260.634 91.8966 266.49 99.2015Z" fill="#F4F9FF"/>
<path d="M114.169 42.5483C114.97 40.2778 113.784 37.7904 111.521 36.9924C109.258 36.1943 106.773 37.387 105.973 39.6575C105.172 41.9272 106.359 44.4149 108.622 45.213C110.885 46.011 113.369 44.818 114.169 42.5483Z" fill="#F4F9FF"/>
<path d="M294.118 121.472C294.759 119.656 293.81 117.666 292 117.028C290.19 116.389 288.202 117.343 287.561 119.16C286.921 120.975 287.87 122.966 289.68 123.604C291.491 124.243 293.478 123.288 294.118 121.472Z" fill="#F4F9FF"/>
<path d="M44.1414 77.6798C44.782 75.8634 43.8332 73.8736 42.0229 73.2351C40.2126 72.5966 38.2248 73.5508 37.5842 75.3672C36.9438 77.183 37.8932 79.1731 39.7035 79.8116C41.5139 80.45 43.501 79.4956 44.1414 77.6798Z" fill="#F4F9FF"/>
<path d="M133.548 226.593C134.028 225.231 133.317 223.738 131.959 223.26C130.601 222.781 129.11 223.496 128.63 224.859C128.15 226.221 128.862 227.713 130.219 228.192C131.577 228.671 133.068 227.955 133.548 226.593Z" fill="#F4F9FF"/>
<path d="M297.979 127.827C298.299 126.919 297.825 125.924 296.92 125.604C296.015 125.285 295.021 125.762 294.7 126.67C294.38 127.578 294.855 128.573 295.76 128.893C296.665 129.212 297.659 128.735 297.979 127.827Z" fill="#F4F9FF"/>
<path d="M53.6982 66.2589C54.0185 65.3507 53.5441 64.3557 52.639 64.0365C51.7338 63.7173 50.7399 64.1944 50.4196 65.1026C50.0994 66.0104 50.5741 67.0055 51.4793 67.3247C52.3844 67.644 53.378 67.1668 53.6982 66.2589Z" fill="#F4F9FF"/>
</g>
<path d="M194.734 156.856H67.0915C59.8483 156.856 54 151.377 54 144.661V67.2485C54 60.4796 59.8483 55 67.0915 55H194.734C201.977 55 207.825 60.4796 207.825 67.2485V144.661C207.825 151.377 201.977 156.856 194.734 156.856Z" fill="#5F95EC"/>
<path d="M207.825 113.986H54V138.107H207.825V113.986Z" fill="#19468F"/>
<path d="M100.84 87.663C100.357 91.8533 98.1034 95.5064 94.8842 98.085C88.8213 102.974 79.5392 104.156 73.1544 98.8371C72.8325 98.5685 72.5642 98.2999 72.2423 97.9776C68.4865 94.2708 66.4477 88.4151 67.4671 82.9355C68.0573 79.7659 69.345 76.7038 71.5448 74.34C81.5244 63.542 102.771 69.5588 100.84 87.663Z" fill="#2058B4"/>
<path d="M77.1784 81.0551C76.7492 83.3114 77.715 85.7826 79.3782 87.233C83.134 90.4026 89.6261 87.6091 90.109 82.8816C90.8602 75.8441 82.5975 73.534 78.7344 77.7243C77.8759 78.6376 77.3931 79.8732 77.1784 81.0551Z" fill="white"/>
<path d="M94.8842 98.0309C88.8213 102.92 79.5392 104.101 73.1544 98.783C72.8325 98.5144 72.5642 98.2458 72.2423 97.9235C73.1544 95.8283 74.6567 93.7332 76.4273 92.6588C80.183 90.3487 85.2265 89.7578 89.3578 91.6918C92.0405 92.9274 93.6501 95.3986 94.8842 98.0309Z" fill="white"/>
<path opacity="0.2" d="M129.008 113.986L123.643 138.107H87.9629L93.3819 113.986H129.008Z" fill="#D0E3FF"/>
<path opacity="0.2" d="M145.855 113.986L140.114 138.107H129.008L134.749 113.986H145.855Z" fill="#D0E3FF"/>
<path d="M192.373 76.0054H114.092V79.0138H192.373V76.0054Z" fill="white"/>
<path d="M192.373 84.8691H114.092V87.8776H192.373V84.8691Z" fill="white"/>
<path d="M151.06 94.2705H114.092V97.2789H151.06V94.2705Z" fill="white"/>
<g clip-path="url(#clip0_4119_91591)">
<path d="M216.531 94C183.104 94 156 121.104 156 154.531C156 187.958 183.104 215.063 216.531 215.063C249.958 215.063 277.063 187.958 277.063 154.531C277 121.104 249.895 94 216.531 94ZM216.531 114.156C223.98 114.156 230.929 116.159 236.938 119.665L181.665 174.875C178.159 168.866 176.156 161.918 176.156 154.469C176.156 132.184 194.184 114.156 216.531 114.156ZM216.531 194.844C208.957 194.844 201.884 192.778 195.874 189.147L251.21 133.812C254.841 139.884 256.906 146.894 256.906 154.469C256.844 176.816 238.816 194.844 216.531 194.844Z" fill="#F56D64"/>
<path opacity="0.1" d="M199.943 204.233C165.64 193.404 156 154.531 156 154.531C156.876 194.906 189.364 215.063 216.531 215.063C230.803 215.063 243.949 210.117 254.277 201.855C254.277 201.792 234.246 215.063 199.943 204.233Z" fill="#B2110D"/>
<path opacity="0.2" d="M181.665 174.875L184.92 178.005L239.943 121.793L236.875 119.665L181.665 174.875Z" fill="#B2110D"/>
<path opacity="0.2" d="M251.21 133.812C254.841 139.883 256.906 146.894 256.906 154.469C256.906 176.753 238.816 194.844 216.531 194.844C208.957 194.844 201.884 192.778 195.874 189.147C195.874 189.147 226.985 209.053 248.644 184.265C268.549 161.417 251.21 133.812 251.21 133.812Z" fill="#B2110D"/>
<path d="M164.2 152.653C164.2 105.58 216.531 94 216.531 94C183.104 94 156 121.104 156 154.531C156 187.958 183.104 215.063 216.531 215.063C216.531 215 164.2 199.664 164.2 152.653Z" fill="#E4564E"/>
</g>
<defs>
<clipPath id="clip0_4119_91591">
<rect width="121" height="121" fill="white" transform="translate(156 94)"/>
</clipPath>
</defs>
</svg>
