<svg width="178" height="146" viewBox="0 0 178 146" fill="none" xmlns="http://www.w3.org/2000/svg">
<g clip-path="url(#clip0_3069_81750)">
<path d="M38.712 65.3779C38.385 65.5992 38.053 65.8181 37.7153 66.032C30.7193 70.4677 21.5952 71.8397 14.4259 76.0619C5.67887 81.2139 0.212538 90.7601 0.878236 100.439C1.49692 109.435 9.15538 118.77 16.5214 125.217C21.7099 129.758 27.73 133.711 34.3675 136.337C40.0104 138.57 47.1778 141.217 53.1953 141.682C62.4019 142.395 71.5612 140.313 78.722 135.882C87.4894 130.456 92.1672 121.993 99.3686 115.332C106.062 109.142 115.792 107.251 125.73 107.051C136.555 106.835 147.874 108.061 157.821 105.011C168.748 101.659 176.871 92.8768 177.988 82.6349C179.106 72.3918 172.947 61.1247 162.553 55.1241C156.405 51.5741 149.248 49.9108 142.676 47.0883C136.44 44.41 132.176 40.7766 128.726 35.5708C125.71 31.0185 125.032 25.8461 121.718 21.4124C116.793 14.8214 109.373 9.49715 101.076 6.62611C87.7055 1.99948 70.1529 3.08601 60.0134 10.9782C54.3857 15.3577 51.1561 21.4263 50.6989 28.1992C50.2906 34.2574 51.2135 40.4527 50.7109 46.4986C50.0504 54.4399 45.5319 60.7541 38.712 65.3779Z" fill="#F4F9FF"/>
<path d="M122.486 34.1593C122.202 32.9167 121.825 31.8294 120.975 31.2081C119.936 30.2761 118.613 30.2761 117.385 30.2761C112.285 30.2761 82.8165 30.2761 77.6217 30.2761C72.3325 30.2761 67.1377 29.6548 61.8485 30.2761C60.8095 30.2761 59.6761 30.4315 58.826 31.2081C57.5982 32.2954 57.3148 34.3146 57.1259 36.1785C56.8426 39.7509 57.1259 43.3234 57.1259 46.7406C57.1259 50.313 57.1259 53.8855 57.1259 57.3026C57.1259 69.7286 57.2204 63.205 57.3148 75.6309C57.3148 79.6694 57.3148 83.7078 57.4093 87.7463C57.4093 91.4741 57.2204 95.3572 57.5982 99.085C57.6926 100.328 58.0704 101.57 58.826 102.347C59.3927 102.968 60.1484 103.434 60.9984 103.745C63.9264 104.832 67.4211 104.521 70.4435 104.677C74.9771 104.832 79.5107 104.987 84.0444 104.987C87.8224 104.987 116.063 105.143 119.747 104.366C123.525 103.589 122.864 97.0658 122.958 93.338C123.052 88.3676 122.958 81.378 122.958 76.4076C122.958 68.486 122.958 59.0112 122.958 52.6429C122.958 47.9831 122.864 43.3234 122.864 38.819C122.769 37.7317 122.864 35.8678 122.486 34.1593Z" fill="#19468F"/>
<path d="M118.517 37.5696C118.34 36.4988 117.896 35.5808 117.186 34.9689C116.299 34.204 115.146 34.204 113.993 34.204C109.468 34.204 83.6519 34.204 79.1275 34.204C74.5143 34.204 69.9898 33.745 65.2879 34.204C64.4007 34.204 63.4249 34.357 62.6264 34.9689C61.5619 36.0398 61.2957 37.7226 61.1183 39.4055C60.8521 42.4652 61.1183 45.5249 61.1183 48.7376C61.1183 51.7973 61.1183 55.0099 61.1183 58.0696C61.1183 68.9316 61.207 63.2711 61.2957 74.1331C61.2957 77.6517 61.2957 81.1704 61.3844 84.689C61.3844 87.9017 61.207 91.4204 61.5619 94.633C61.5619 95.7039 61.9167 96.7748 62.5377 97.5398C63.07 98.1517 63.691 98.4577 64.4007 98.7636C66.9735 99.6815 70.0785 99.5286 72.74 99.6815C76.7322 99.8345 80.7243 99.9875 84.7165 99.9875C88.0877 99.9875 112.751 100.141 116.122 99.3756C119.493 98.7636 118.872 92.9502 118.961 89.7375C119.049 85.4539 118.961 79.3345 118.961 74.898C118.961 68.0137 118.961 59.5995 118.961 54.092C118.961 49.9614 118.872 45.9838 118.872 41.8532C118.783 40.6293 118.783 38.9465 118.517 37.5696Z" fill="#5F95EC"/>
<path d="M117.489 111.265C111.855 112.724 107.022 115.874 102.834 119.603C100.041 122.09 97.098 124.931 95.4651 128.404C92.8436 133.979 96.8052 137.606 102.843 135.673C107.958 134.035 111.529 129.879 116.161 127.366C120.058 125.251 124.674 124.334 129.403 124.322C131.606 124.316 133.874 124.499 135.936 123.988C141.651 122.574 141.501 115.394 135.674 112.618C130.077 109.951 122.742 109.905 117.489 111.265Z" fill="#F4F9FF"/>
<path d="M139.744 40.2306C143.175 42.3565 152.79 43.6638 156.058 41.6178C162.677 37.4718 146.983 28.9736 143.615 26.5498C138.488 22.8595 130.464 20.5408 132.483 29.0346C133.531 33.4457 135.172 37.3977 139.744 40.2306Z" fill="#F4F9FF"/>
<path d="M46.999 21.5002C46.999 20.1193 45.8797 19 44.4993 19C43.1189 19 41.999 20.1193 41.999 21.5002C41.999 22.8807 43.1189 24 44.4993 24C45.8797 24 46.999 22.8807 46.999 21.5002Z" fill="#F4F9FF"/>
<path d="M159 47.0002C159 45.8954 158.105 45 157 45C155.896 45 155 45.8954 155 47.0002C155 48.1046 155.896 49 157 49C158.105 49 159 48.1046 159 47.0002Z" fill="#F4F9FF"/>
<path d="M21.417 68.9537C22.0599 68.0552 21.8526 66.8059 20.9544 66.1633C20.0563 65.5208 18.8067 65.7277 18.1639 66.6262C17.5213 67.5244 17.7289 68.7739 18.627 69.4165C19.5251 70.059 20.7744 69.8519 21.417 68.9537Z" fill="#F4F9FF"/>
<path d="M92 134.5C92 133.672 91.3284 133 90.5001 133C89.6719 133 89 133.672 89 134.5C89 135.328 89.6719 136 90.5001 136C91.3284 136 92 135.328 92 134.5Z" fill="#F4F9FF"/>
<path d="M162.31 49.7013C162.31 49.1489 161.862 48.7012 161.31 48.7012C160.758 48.7012 160.31 49.1489 160.31 49.7013C160.31 50.2535 160.758 50.7012 161.31 50.7012C161.862 50.7012 162.31 50.2535 162.31 49.7013Z" fill="#F4F9FF"/>
<path d="M26.513 64.9778C26.8344 64.5286 26.7307 63.9039 26.2817 63.5826C25.8326 63.2614 25.2078 63.3648 24.8864 63.8141C24.5651 64.2632 24.6689 64.8879 25.1179 65.2092C25.567 65.5305 26.1917 65.4269 26.513 64.9778Z" fill="#F4F9FF"/>
<path fill-rule="evenodd" clip-rule="evenodd" d="M110.266 49.1429C110.266 49.2386 110.344 49.3162 110.44 49.3162H111.76C111.856 49.3162 111.933 49.2386 111.933 49.1429C111.933 48.9244 111.987 48.7457 112.089 48.5987C112.21 48.4326 112.398 48.2339 112.656 48.0031C112.873 47.8068 113.051 47.6327 113.188 47.4813L113.191 47.4783C113.336 47.3106 113.455 47.1114 113.551 46.8832C113.66 46.6423 113.711 46.3684 113.711 46.0655C113.711 45.423 113.454 44.9091 112.944 44.5427C112.447 44.1747 111.79 44 110.991 44C110.334 44 109.753 44.1142 109.254 44.3487C108.757 44.5757 108.349 44.9063 108.033 45.3396C108.005 45.3781 107.994 45.4263 108.003 45.4731C108.012 45.5199 108.039 45.5611 108.079 45.587L109.087 46.242C109.165 46.2925 109.269 46.2728 109.323 46.1974C109.666 45.7162 110.175 45.4694 110.876 45.4694C111.246 45.4694 111.52 45.5536 111.717 45.7041C111.911 45.8522 112.003 46.0375 112.003 46.2734C112.003 46.4438 111.953 46.5945 111.85 46.7309L111.85 46.7318C111.742 46.8773 111.568 47.059 111.322 47.2774C110.991 47.574 110.731 47.8544 110.547 48.1187L110.546 48.1196C110.355 48.398 110.266 48.7431 110.266 49.1429ZM111.776 48.9328C111.765 48.9999 111.76 49.0699 111.76 49.1429H111.76C111.76 49.0699 111.765 48.9999 111.776 48.9328ZM110.465 48.8057C110.501 48.579 110.576 48.383 110.689 48.2176C110.863 47.9681 111.112 47.6978 111.438 47.4066C111.687 47.1848 111.871 46.9942 111.989 46.8348C112.082 46.7108 112.14 46.5752 112.164 46.4281C112.14 46.5754 112.082 46.7112 111.989 46.8354C111.871 46.9948 111.687 47.1854 111.438 47.4072C111.112 47.6983 110.862 47.9687 110.689 48.2182C110.576 48.3835 110.501 48.5793 110.465 48.8057ZM108.174 45.4418C108.472 45.0331 108.856 44.7214 109.327 44.5066C109.799 44.2848 110.353 44.1739 110.991 44.1739C111.767 44.1739 112.384 44.3437 112.841 44.6833C113.306 45.016 113.538 45.4769 113.538 46.0661C113.538 46.1847 113.529 46.2974 113.512 46.4039C113.529 46.2972 113.538 46.1844 113.538 46.0655C113.538 45.4763 113.306 45.0154 112.841 44.6827C112.384 44.3431 111.767 44.1733 110.991 44.1733C110.353 44.1733 109.799 44.2842 109.327 44.506C108.91 44.6961 108.561 44.9622 108.28 45.3042C108.243 45.3487 108.208 45.3946 108.173 45.4417L108.174 45.4418ZM110.1 50.8168C110.1 51.0883 110.192 51.3258 110.377 51.5187L110.382 51.5242C110.577 51.7107 110.823 51.801 111.105 51.801C111.382 51.801 111.622 51.7097 111.81 51.5215C112.002 51.3291 112.1 51.0907 112.1 50.8168C112.1 50.5433 112.003 50.3073 111.809 50.121C111.621 49.9338 111.381 49.8429 111.105 49.8429C110.823 49.8429 110.577 49.9332 110.382 50.1197L110.38 50.1224C110.193 50.3095 110.1 50.5452 110.1 50.8168ZM111.105 50.0162C111.341 50.0162 111.535 50.0925 111.687 50.2449C111.847 50.3974 111.926 50.588 111.926 50.8168C111.926 50.866 111.923 50.9136 111.915 50.9597C111.923 50.9138 111.926 50.8664 111.926 50.8173C111.926 50.5886 111.847 50.398 111.687 50.2455C111.535 50.093 111.341 50.0168 111.105 50.0168C110.862 50.0168 110.661 50.093 110.502 50.2455C110.384 50.364 110.311 50.5055 110.285 50.6699C110.311 50.5052 110.384 50.3635 110.502 50.2449C110.662 50.0925 110.863 50.0162 111.105 50.0162Z" fill="#D5CBFD"/>
<path fill-rule="evenodd" clip-rule="evenodd" d="M110.266 79.1429C110.266 79.2386 110.344 79.3162 110.44 79.3162H111.76C111.856 79.3162 111.933 79.2386 111.933 79.1429C111.933 78.9244 111.987 78.7457 112.089 78.5987C112.21 78.4326 112.398 78.2339 112.656 78.0031C112.873 77.8068 113.051 77.6327 113.188 77.4813L113.191 77.4783C113.336 77.3106 113.455 77.1114 113.551 76.8832C113.66 76.6423 113.711 76.3684 113.711 76.0655C113.711 75.423 113.454 74.9091 112.944 74.5427C112.447 74.1747 111.79 74 110.991 74C110.334 74 109.753 74.1142 109.254 74.3487C108.757 74.5757 108.349 74.9063 108.033 75.3396C108.005 75.3781 107.994 75.4263 108.003 75.4731C108.012 75.5199 108.039 75.5611 108.079 75.587L109.087 76.242C109.165 76.2925 109.269 76.2728 109.323 76.1974C109.666 75.7162 110.175 75.4694 110.876 75.4694C111.246 75.4694 111.52 75.5536 111.717 75.7041C111.911 75.8522 112.003 76.0375 112.003 76.2734C112.003 76.4438 111.953 76.5945 111.85 76.7309L111.85 76.7318C111.742 76.8773 111.568 77.059 111.322 77.2774C110.991 77.574 110.731 77.8544 110.547 78.1187L110.546 78.1196C110.355 78.398 110.266 78.7431 110.266 79.1429ZM111.776 78.9328C111.765 78.9999 111.76 79.0699 111.76 79.1429H111.76C111.76 79.0699 111.765 78.9999 111.776 78.9328ZM110.465 78.8057C110.501 78.579 110.576 78.383 110.689 78.2176C110.863 77.9681 111.112 77.6978 111.438 77.4066C111.687 77.1848 111.871 76.9942 111.989 76.8348C112.082 76.7108 112.14 76.5752 112.164 76.4281C112.14 76.5754 112.082 76.7112 111.989 76.8354C111.871 76.9948 111.687 77.1854 111.438 77.4072C111.112 77.6983 110.862 77.9687 110.689 78.2182C110.576 78.3835 110.501 78.5793 110.465 78.8057ZM108.174 75.4418C108.472 75.0331 108.856 74.7214 109.327 74.5066C109.799 74.2848 110.353 74.1739 110.991 74.1739C111.767 74.1739 112.384 74.3437 112.841 74.6833C113.306 75.016 113.538 75.4769 113.538 76.0661C113.538 76.1847 113.529 76.2974 113.512 76.4039C113.529 76.2972 113.538 76.1844 113.538 76.0655C113.538 75.4763 113.306 75.0154 112.841 74.6827C112.384 74.3431 111.767 74.1733 110.991 74.1733C110.353 74.1733 109.799 74.2842 109.327 74.506C108.91 74.6961 108.561 74.9622 108.28 75.3042C108.243 75.3487 108.208 75.3946 108.173 75.4417L108.174 75.4418ZM110.1 80.8168C110.1 81.0883 110.192 81.3258 110.377 81.5187L110.382 81.5242C110.577 81.7107 110.823 81.801 111.105 81.801C111.382 81.801 111.622 81.7097 111.81 81.5215C112.002 81.3291 112.1 81.0907 112.1 80.8168C112.1 80.5433 112.003 80.3073 111.809 80.121C111.621 79.9338 111.381 79.8429 111.105 79.8429C110.823 79.8429 110.577 79.9332 110.382 80.1197L110.38 80.1224C110.193 80.3095 110.1 80.5452 110.1 80.8168ZM111.105 80.0162C111.341 80.0162 111.535 80.0925 111.687 80.2449C111.847 80.3974 111.926 80.588 111.926 80.8168C111.926 80.866 111.923 80.9136 111.915 80.9597C111.923 80.9138 111.926 80.8664 111.926 80.8173C111.926 80.5886 111.847 80.398 111.687 80.2455C111.535 80.093 111.341 80.0168 111.105 80.0168C110.862 80.0168 110.661 80.093 110.502 80.2455C110.384 80.364 110.311 80.5055 110.285 80.6699C110.311 80.5052 110.384 80.3635 110.502 80.2449C110.662 80.0925 110.863 80.0162 111.105 80.0162Z" fill="#D5CBFD"/>
<rect x="67" y="45" width="39" height="3" rx="0.5" fill="white"/>
<rect x="67" y="75" width="39" height="3" rx="0.5" fill="white"/>
<rect x="73" y="51.5" width="33" height="2" rx="0.2" fill="white"/>
<rect x="73" y="56.5" width="33" height="2" rx="0.2" fill="white"/>
<rect x="73" y="61.5" width="21" height="2" rx="0.2" fill="white"/>
<path d="M69.971 51.184C69.971 51.1426 69.9438 51.1012 69.8893 51.0598C69.8348 51.0184 69.7802 51.0184 69.7257 51.0184C69.4804 51.0184 68.1448 51.0184 67.9267 51.0184C67.6814 51.0184 67.4634 50.977 67.2181 51.0184C67.1635 51.0184 67.109 51.0184 67.0818 51.0598C67.0273 51.1012 67 51.184 67 51.2669C67 51.3911 67 51.5567 67 51.681C67 51.8052 67 51.9709 67 52.0951C67 52.592 67 52.3436 67 52.8405C67 53.0061 67 53.1718 67 53.3374C67 53.5031 67 53.6273 67 53.7929C67 53.8344 67.0273 53.8758 67.0545 53.9172C67.0818 53.9586 67.109 53.9586 67.1635 53.9586C67.2998 54 67.4634 54 67.5997 54C67.8177 54 68.0085 54 68.2266 54C68.3901 54 69.6712 54 69.862 53.9586C70.0256 53.9172 69.9983 53.6687 69.9983 53.5031C69.9983 53.296 69.9983 53.0475 69.9983 52.8405C69.9983 52.5092 69.9983 52.1365 69.9983 51.888C69.9983 51.7224 69.9983 51.5153 69.9983 51.3497C69.9983 51.3083 69.9983 51.2669 69.971 51.184Z" fill="white"/>
<path d="M69.971 56.184C69.971 56.1426 69.9438 56.1012 69.8893 56.0598C69.8348 56.0184 69.7802 56.0184 69.7257 56.0184C69.4804 56.0184 68.1448 56.0184 67.9267 56.0184C67.6814 56.0184 67.4634 55.977 67.2181 56.0184C67.1635 56.0184 67.109 56.0184 67.0818 56.0598C67.0273 56.1012 67 56.184 67 56.2669C67 56.3911 67 56.5567 67 56.681C67 56.8052 67 56.9709 67 57.0951C67 57.592 67 57.3436 67 57.8405C67 58.0061 67 58.1718 67 58.3374C67 58.5031 67 58.6273 67 58.7929C67 58.8344 67.0273 58.8758 67.0545 58.9172C67.0818 58.9586 67.109 58.9586 67.1635 58.9586C67.2998 59 67.4634 59 67.5997 59C67.8177 59 68.0085 59 68.2266 59C68.3901 59 69.6712 59 69.862 58.9586C70.0256 58.9172 69.9983 58.6687 69.9983 58.5031C69.9983 58.296 69.9983 58.0475 69.9983 57.8405C69.9983 57.5092 69.9983 57.1365 69.9983 56.888C69.9983 56.7224 69.9983 56.5153 69.9983 56.3497C69.9983 56.3083 69.9983 56.2669 69.971 56.184Z" fill="white"/>
<path d="M69.971 61.184C69.971 61.1426 69.9438 61.1012 69.8893 61.0598C69.8348 61.0184 69.7802 61.0184 69.7257 61.0184C69.4804 61.0184 68.1448 61.0184 67.9267 61.0184C67.6814 61.0184 67.4634 60.977 67.2181 61.0184C67.1635 61.0184 67.109 61.0184 67.0818 61.0598C67.0273 61.1012 67 61.184 67 61.2669C67 61.3911 67 61.5567 67 61.681C67 61.8052 67 61.9709 67 62.0951C67 62.592 67 62.3436 67 62.8405C67 63.0061 67 63.1718 67 63.3374C67 63.5031 67 63.6273 67 63.7929C67 63.8344 67.0273 63.8758 67.0545 63.9172C67.0818 63.9586 67.109 63.9586 67.1635 63.9586C67.2998 64 67.4634 64 67.5997 64C67.8177 64 68.0085 64 68.2266 64C68.3901 64 69.6712 64 69.862 63.9586C70.0256 63.9172 69.9983 63.6687 69.9983 63.5031C69.9983 63.296 69.9983 63.0475 69.9983 62.8405C69.9983 62.5092 69.9983 62.1365 69.9983 61.888C69.9983 61.7224 69.9983 61.5153 69.9983 61.3497C69.9983 61.3083 69.9983 61.2669 69.971 61.184Z" fill="white"/>
<path d="M67 83C67 82.4477 67.4477 82 68 82H106C106.552 82 107 82.4477 107 83V87.9864C107 88.544 106.544 88.9939 105.987 88.9864L67.9865 88.4748C67.4396 88.4675 67 88.0219 67 87.4749V83Z" fill="white"/>
</g>
<defs>
<clipPath id="clip0_3069_81750">
<rect width="178" height="146" fill="white"/>
</clipPath>
</defs>
</svg>
