<svg width="178" height="146" viewBox="0 0 178 146" fill="none" xmlns="http://www.w3.org/2000/svg">
<g clip-path="url(#clip0_3584_170245)">
<path d="M38.712 65.378C38.385 65.5994 38.053 65.8182 37.7153 66.0322C30.7193 70.4678 21.5952 71.8398 14.4259 76.062C5.67887 81.214 0.212538 90.7603 0.878236 100.439C1.49692 109.435 9.15538 118.77 16.5214 125.217C21.7099 129.758 27.73 133.711 34.3675 136.337C40.0104 138.57 47.1778 141.217 53.1953 141.683C62.4018 142.395 71.5612 140.314 78.722 135.882C87.4894 130.457 92.1672 121.993 99.3686 115.332C106.062 109.142 115.792 107.251 125.73 107.052C136.555 106.835 147.874 108.061 157.821 105.011C168.748 101.66 176.871 92.877 177.988 82.635C179.106 72.392 172.947 61.1248 162.553 55.1242C156.405 51.5743 149.248 49.9109 142.676 47.0884C136.44 44.4102 132.176 40.7768 128.726 35.5709C125.71 31.0186 125.032 25.8463 121.718 21.4125C116.793 14.8216 109.373 9.49727 101.076 6.62623C87.7055 1.99961 70.1529 3.08613 60.0134 10.9783C54.3857 15.3578 51.1561 21.4264 50.6989 28.1993C50.2906 34.2576 51.2135 40.4528 50.7109 46.4988C50.0504 54.44 45.5319 60.7542 38.712 65.378Z" fill="#D0E3FF"/>
<path d="M117.489 111.264C111.855 112.723 107.023 115.873 102.834 119.602C100.041 122.089 97.0981 124.931 95.4652 128.403C92.8437 133.979 96.8053 137.605 102.843 135.672C107.959 134.035 111.529 129.878 116.161 127.365C120.058 125.25 124.674 124.333 129.403 124.321C131.606 124.316 133.874 124.498 135.936 123.988C141.652 122.573 141.501 115.393 135.675 112.617C130.077 109.95 122.742 109.904 117.489 111.264Z" fill="#D0E3FF"/>
<path d="M139.744 40.2306C143.175 42.3565 152.79 43.6638 156.058 41.6178C162.678 37.4718 146.984 28.9736 143.615 26.5498C138.488 22.8595 130.464 20.5408 132.483 29.0346C133.532 33.4457 135.173 37.3977 139.744 40.2306Z" fill="#D0E3FF"/>
<path d="M46.999 21.5002C46.999 20.1193 45.8797 19 44.4993 19C43.1189 19 41.999 20.1193 41.999 21.5002C41.999 22.8807 43.1189 24 44.4993 24C45.8797 24 46.999 22.8807 46.999 21.5002Z" fill="#D0E3FF"/>
<path d="M159 47.0002C159 45.8954 158.105 45 157 45C155.896 45 155 45.8954 155 47.0002C155 48.1046 155.896 49 157 49C158.105 49 159 48.1046 159 47.0002Z" fill="#D0E3FF"/>
<path d="M21.4174 68.9537C22.0602 68.0552 21.8529 66.8059 20.9548 66.1633C20.0567 65.5208 18.8071 65.7277 18.1642 66.6262C17.5216 67.5244 17.7292 68.7739 18.6274 69.4165C19.5255 70.059 20.7748 69.8519 21.4174 68.9537Z" fill="#D0E3FF"/>
<path d="M92 134.5C92 133.672 91.3284 133 90.5001 133C89.6719 133 89 133.672 89 134.5C89 135.328 89.6719 136 90.5001 136C91.3284 136 92 135.328 92 134.5Z" fill="#D0E3FF"/>
<path d="M162.31 49.7008C162.31 49.1484 161.863 48.7007 161.31 48.7007C160.758 48.7007 160.31 49.1484 160.31 49.7008C160.31 50.253 160.758 50.7007 161.31 50.7007C161.863 50.7007 162.31 50.253 162.31 49.7008Z" fill="#D0E3FF"/>
<path d="M26.513 64.9777C26.8344 64.5284 26.7307 63.9038 26.2817 63.5825C25.8326 63.2612 25.2078 63.3647 24.8864 63.814C24.5651 64.2631 24.6689 64.8878 25.1179 65.2091C25.567 65.5304 26.1917 65.4268 26.513 64.9777Z" fill="#D0E3FF"/>
<g clip-path="url(#clip1_3584_170245)">
<path d="M123.354 39.5633C122.968 38.5077 122.452 37.584 121.291 37.0561C119.873 36.2644 118.068 36.2644 116.392 36.2644C109.429 36.2644 69.1996 36.2644 62.1079 36.2644C54.8873 36.2644 47.7956 35.7365 40.575 36.2644C39.1566 36.2644 37.6094 36.3963 36.4489 37.0561C34.7727 37.9798 34.3859 39.6953 34.128 41.2788C33.7412 44.3139 34.128 47.3489 34.128 50.252C34.128 53.2871 34.128 56.3221 34.128 59.2252C34.128 69.7819 34.2569 64.2396 34.3859 74.7963C34.3859 78.2273 34.3859 81.6582 34.5148 85.0891C34.5148 88.2561 34.2569 91.5551 34.7727 94.7221C34.9016 95.7778 35.4174 96.8334 36.4489 97.4932C37.2225 98.0211 38.254 98.417 39.4145 98.6809C43.4116 99.6046 48.1824 99.3407 52.3085 99.4726C58.4976 99.6046 64.6867 99.7365 70.8758 99.7365C76.0334 99.7365 114.586 99.8685 119.615 99.2087C124.773 98.5489 123.87 93.0066 123.999 89.8396C124.128 85.617 123.999 79.6788 123.999 75.4561C123.999 68.7262 123.999 60.6767 123.999 55.2664C123.999 51.3077 123.87 47.3489 123.87 43.5221C123.741 42.5984 123.87 41.0149 123.354 39.5633Z" fill="#19468F"/>
<path d="M120.519 42.5978C120.261 41.6741 119.616 40.8824 118.585 40.3545C117.295 39.6947 115.619 39.6947 113.943 39.6947C107.367 39.6947 69.8455 39.6947 63.2696 39.6947C56.5647 39.6947 49.9888 39.2989 43.1549 39.6947C41.8655 39.6947 40.4472 39.8267 39.2867 40.3545C37.7395 41.2782 37.3527 42.7298 37.0948 44.1813C36.708 46.8205 37.0948 49.4597 37.0948 52.2308C37.0948 54.87 37.0948 57.6411 37.0948 60.2803C37.0948 69.6494 37.2237 64.7669 37.3527 74.136C37.3527 77.171 37.3527 80.2061 37.4816 83.2411C37.4816 86.0123 37.2237 89.0473 37.7395 91.8185C37.7395 92.7422 38.2552 93.6659 39.1578 94.3257C39.9314 94.8535 40.834 95.1174 41.8655 95.3813C45.6048 96.1731 50.1177 96.0411 53.9859 96.1731C59.7882 96.3051 65.5905 96.437 71.3928 96.437C76.2925 96.437 112.138 96.569 117.037 95.9092C121.937 95.3813 121.035 90.3669 121.164 87.5958C121.292 83.9009 121.164 78.6226 121.164 74.7958C121.164 68.8576 121.164 61.5999 121.164 56.8494C121.164 53.2865 121.035 49.8556 121.035 46.2927C120.906 45.237 120.906 43.7855 120.519 42.5978Z" fill="#5F95EC"/>
<path d="M82.3526 50.7792C82.2236 50.2513 81.9658 49.7235 81.45 49.3276C80.8053 48.9318 79.9027 48.9317 79.1291 48.9317C75.9056 48.9317 57.0804 48.9317 53.7279 48.9317C50.3755 48.9317 47.0231 48.6678 43.6706 48.9317C43.0259 48.9317 42.2523 49.0637 41.7365 49.4596C40.9629 49.9874 40.705 50.9111 40.705 51.8348C40.5761 53.5503 40.705 55.1338 40.705 56.8493C40.705 58.5647 40.705 60.1482 40.705 61.8637C40.705 67.6699 40.705 64.6348 40.834 70.441C40.834 72.2885 40.834 74.2678 40.834 76.1153C40.834 77.8307 40.705 79.6781 40.9629 81.3936C41.0918 81.9214 41.3497 82.5812 41.7365 82.9771C41.9944 83.241 42.5102 83.373 43.0259 83.5049C44.8311 84.0328 47.152 83.9008 49.0861 83.9008C51.9228 84.0328 54.8884 84.0328 57.854 84.0328C60.3039 84.0328 78.2265 84.0328 80.6764 83.7689C83.1262 83.373 82.6105 80.3379 82.7394 78.6225C82.8683 76.2472 82.7394 73.0802 82.7394 70.7049C82.7394 67.0101 82.7394 62.5235 82.7394 59.4885C82.7394 57.2452 82.6105 55.1338 82.6105 53.0225C82.6105 52.3627 82.6105 51.5709 82.3526 50.7792Z" fill="white"/>
<path d="M40.8337 81.1298V81.2617C40.9627 81.7896 41.2206 82.4493 41.6074 82.8452C41.9942 83.2411 42.51 83.3731 43.0257 83.505C44.8309 84.0329 47.1518 83.9009 49.0859 83.9009C51.9226 84.0328 54.8882 84.0329 57.8538 84.0329C60.3037 84.0329 78.2263 84.0329 80.6761 83.7689C82.0945 83.505 82.6102 82.4493 82.6102 81.1298H40.8337V81.1298Z" fill="#5B40C7"/>
<path d="M101.048 49.3278C101.048 49.1959 100.92 49.0639 100.662 48.9319C100.404 48.8 100.146 48.8 99.888 48.8C98.7276 48.8 92.4095 48.8 91.378 48.8C90.2175 48.8 89.186 48.668 88.0255 48.8C87.7677 48.8 87.5098 48.8 87.3808 48.9319C87.123 49.0639 86.994 49.3278 86.994 49.5917C86.994 49.9876 86.994 50.5154 86.994 50.9113C86.994 51.3072 86.994 51.835 86.994 52.2309C86.994 53.8144 86.994 53.0227 86.994 54.6062C86.994 55.134 86.994 55.6618 86.994 56.1897C86.994 56.7175 86.994 57.1134 86.994 57.6412C86.994 57.7732 87.123 57.9051 87.2519 58.0371C87.3808 58.1691 87.5098 58.1691 87.7677 58.1691C88.4124 58.301 89.186 58.301 89.8307 58.301C90.8622 58.301 91.7648 58.301 92.7963 58.301C93.57 58.301 99.6301 58.301 100.533 58.1691C101.306 58.0371 101.177 57.2453 101.177 56.7175C101.177 56.0577 101.177 55.266 101.177 54.6062C101.177 53.5505 101.177 52.3629 101.177 51.5711C101.177 51.0433 101.177 50.3835 101.177 49.8557C101.177 49.7237 101.177 49.5917 101.048 49.3278Z" fill="white"/>
<path d="M114.072 48.8C113.943 48.6681 113.814 48.6681 113.685 48.6681C112.266 48.6681 110.848 48.6681 109.43 48.6681H106.206C105.304 48.6681 104.401 48.6681 103.37 48.6681C103.241 48.6681 102.983 48.6681 102.854 48.6681C102.725 48.6681 102.725 48.6681 102.596 48.6681C102.596 48.6681 102.467 48.8 102.467 48.932C102.467 49.064 102.338 49.5918 102.596 49.7238H102.725C103.37 49.7238 104.143 49.7238 104.788 49.7238C105.562 49.7238 106.335 49.7238 107.238 49.7238H110.074C110.719 49.7238 111.493 49.7238 112.138 49.7238C112.524 49.7238 112.782 49.7238 113.169 49.7238C113.427 49.7238 113.685 49.7238 113.943 49.5918C114.072 49.4598 114.072 49.1959 114.072 49.064C114.201 49.1959 114.201 48.932 114.072 48.8Z" fill="white"/>
<path d="M114.072 51.5709C113.943 51.439 113.814 51.439 113.685 51.439C112.266 51.439 110.848 51.439 109.43 51.439H106.206C105.304 51.439 104.401 51.439 103.37 51.439C103.241 51.439 102.983 51.439 102.854 51.439C102.725 51.439 102.725 51.439 102.596 51.439C102.596 51.439 102.467 51.5709 102.467 51.7029C102.467 51.8348 102.338 52.3627 102.596 52.4946H102.725C103.37 52.4946 104.143 52.4946 104.788 52.4946C105.562 52.4946 106.335 52.4946 107.238 52.4946C108.14 52.4946 109.172 52.4946 110.074 52.4946C110.719 52.4946 111.493 52.4946 112.138 52.4946C112.524 52.4946 112.782 52.4946 113.169 52.4946C113.427 52.4946 113.685 52.4946 113.943 52.3627C114.072 52.2307 114.072 51.9668 114.072 51.8348C114.201 51.8348 114.201 51.7029 114.072 51.5709Z" fill="white"/>
<path d="M109.043 54.21C109.043 54.078 108.914 54.078 108.785 54.078C108.011 54.078 107.238 54.078 106.464 54.078C105.819 54.078 105.175 54.078 104.659 54.078C104.143 54.078 103.627 54.078 103.112 54.078C102.983 54.078 102.854 54.078 102.854 54.078H102.725C102.725 54.078 102.725 54.21 102.725 54.3419C102.725 54.4739 102.596 55.0017 102.725 55.1337H102.854C103.241 55.1337 103.627 55.1337 104.014 55.1337C104.401 55.1337 104.917 55.1337 105.304 55.1337H106.98C107.367 55.1337 107.754 55.1337 108.14 55.1337C108.269 55.1337 108.527 55.1337 108.656 55.1337C108.785 55.1337 108.914 55.1337 109.043 55.0017C109.172 54.8698 109.172 54.6058 109.172 54.4739C109.043 54.6058 109.172 54.3419 109.043 54.21Z" fill="white"/>
<path d="M101.048 65.5588C101.048 65.4268 100.92 65.2949 100.662 65.1629C100.404 65.0309 100.146 65.0309 99.888 65.0309C98.7276 65.0309 92.4095 65.0309 91.378 65.0309C90.2175 65.0309 89.186 64.899 88.0255 65.0309C87.7677 65.0309 87.5098 65.0309 87.3808 65.1629C87.123 65.2949 86.994 65.5588 86.994 65.8227C86.994 66.2186 86.994 66.7464 86.994 67.1423C86.994 67.5382 86.994 68.066 86.994 68.4619C86.994 70.0454 86.994 69.2536 86.994 70.8371C86.994 71.365 86.994 71.8928 86.994 72.4206C86.994 72.9485 86.994 73.3443 86.994 73.8722C86.994 74.0041 87.123 74.1361 87.2519 74.2681C87.3808 74.4 87.5098 74.4 87.7677 74.4C88.4124 74.532 89.186 74.532 89.8307 74.532C90.8622 74.532 91.7648 74.532 92.7963 74.532C93.57 74.532 99.6301 74.532 100.533 74.4C101.306 74.2681 101.177 73.4763 101.177 72.9485C101.177 72.2887 101.177 71.4969 101.177 70.8371C101.177 69.7815 101.177 68.5938 101.177 67.8021C101.177 67.2742 101.177 66.6144 101.177 66.0866C101.177 66.0866 101.177 65.8227 101.048 65.5588Z" fill="white"/>
<path d="M114.072 65.1631C114.072 65.0311 113.943 65.0311 113.814 65.0311C112.395 65.0311 110.977 65.0311 109.559 65.0311H106.206C105.304 65.0311 104.401 65.0311 103.37 65.0311C103.241 65.0311 102.983 65.0311 102.854 65.0311C102.725 65.0311 102.725 65.0311 102.596 65.0311C102.596 65.0311 102.467 65.1631 102.467 65.295C102.467 65.427 102.338 65.9548 102.596 66.0868H102.725C103.37 66.0868 104.143 66.0868 104.788 66.0868C105.562 66.0868 106.335 66.0868 107.238 66.0868C108.14 66.0868 109.172 66.0868 110.074 66.0868C110.719 66.0868 111.493 66.0868 112.138 66.0868C112.524 66.0868 112.782 66.0868 113.169 66.0868C113.427 66.0868 113.685 66.0868 113.943 65.9548C114.072 65.8229 114.072 65.559 114.072 65.427C114.201 65.427 114.201 65.295 114.072 65.1631Z" fill="white"/>
<path d="M110.977 67.8022C110.977 67.6703 110.848 67.6703 110.719 67.6703C109.688 67.6703 108.656 67.6703 107.625 67.6703C106.851 67.6703 105.949 67.6703 105.175 67.6703C104.53 67.6703 103.886 67.6703 103.112 67.6703C102.983 67.6703 102.854 67.6703 102.725 67.6703H102.596C102.596 67.6703 102.596 67.8022 102.596 67.9342C102.596 68.0662 102.467 68.594 102.596 68.726H102.725C103.241 68.726 103.757 68.726 104.272 68.726C104.917 68.726 105.433 68.726 106.077 68.726H108.141C108.656 68.726 109.172 68.726 109.688 68.726C109.946 68.726 110.204 68.726 110.461 68.726C110.59 68.726 110.848 68.726 110.977 68.594C111.106 68.462 111.106 68.1981 111.106 68.0662C111.106 68.1981 111.106 67.9342 110.977 67.8022Z" fill="white"/>
<path d="M109.043 70.5731C109.043 70.4412 108.914 70.4412 108.785 70.4412C108.011 70.4412 107.238 70.4412 106.464 70.4412C105.819 70.4412 105.175 70.4412 104.659 70.4412C104.143 70.4412 103.627 70.4412 103.112 70.4412C102.983 70.4412 102.854 70.4412 102.854 70.4412H102.725C102.725 70.4412 102.725 70.5731 102.725 70.7051C102.725 70.837 102.596 71.3649 102.725 71.4968H102.854C103.241 71.4968 103.627 71.4968 104.014 71.4968C104.401 71.4968 104.917 71.4968 105.304 71.4968C105.819 71.4968 106.335 71.4968 106.98 71.4968C107.367 71.4968 107.754 71.4968 108.14 71.4968C108.269 71.4968 108.527 71.4968 108.656 71.4968C108.785 71.4968 108.914 71.4968 109.043 71.3649C109.172 71.2329 109.172 70.969 109.172 70.837C109.043 70.837 109.172 70.7051 109.043 70.5731Z" fill="white"/>
<path d="M101.048 80.866C101.048 80.7341 100.92 80.6021 100.662 80.4702C100.404 80.3382 100.146 80.3382 99.888 80.3382C98.7276 80.3382 92.4095 80.3382 91.378 80.3382C90.2175 80.3382 89.186 80.2062 88.0255 80.3382C87.7677 80.3382 87.5098 80.3382 87.3808 80.4702C87.123 80.6021 86.994 80.866 86.994 81.1299C86.994 81.5258 86.994 82.0537 86.994 82.4495C86.994 82.8454 86.994 83.3732 86.994 83.7691C86.994 85.3526 86.994 84.5609 86.994 86.1444C86.994 86.6722 86.994 87.2 86.994 87.7279C86.994 88.2557 86.994 88.6516 86.994 89.1794C86.994 89.3114 87.123 89.4433 87.2519 89.5753C87.3808 89.7073 87.5098 89.7073 87.7677 89.7073C88.4124 89.8392 89.186 89.8392 89.8307 89.8392C90.8622 89.8392 91.7648 89.8392 92.7963 89.8392C93.57 89.8392 99.6301 89.8392 100.533 89.7073C101.306 89.5753 101.177 88.7835 101.177 88.2557C101.177 87.5959 101.177 86.8042 101.177 86.1444C101.177 85.0887 101.177 83.9011 101.177 83.1093C101.177 82.5815 101.177 81.9217 101.177 81.3939C101.177 81.2619 101.177 80.998 101.048 80.866Z" fill="white"/>
<path d="M114.072 80.3381C113.943 80.2062 113.814 80.2062 113.685 80.2062C112.266 80.2062 110.848 80.2062 109.43 80.2062H106.206C105.304 80.2062 104.401 80.2062 103.37 80.2062C103.241 80.2062 102.983 80.2062 102.854 80.2062C102.725 80.2062 102.725 80.2062 102.596 80.2062C102.596 80.2062 102.467 80.3381 102.467 80.4701C102.467 80.6021 102.338 81.1299 102.596 81.2619H102.725C103.37 81.2619 104.143 81.2619 104.788 81.2619C105.562 81.2619 106.335 81.2619 107.238 81.2619C108.14 81.2619 109.172 81.2619 110.074 81.2619C110.719 81.2619 111.493 81.2619 112.138 81.2619C112.524 81.2619 112.782 81.2619 113.169 81.2619C113.427 81.2619 113.685 81.2619 113.943 81.1299C114.072 80.9979 114.072 80.734 114.072 80.6021C114.201 80.734 114.201 80.4701 114.072 80.3381Z" fill="white"/>
<path d="M114.072 83.1093C113.943 82.9773 113.814 82.9773 113.685 82.9773C112.267 82.9773 110.848 82.9773 109.43 82.9773C108.269 82.9773 107.238 82.9773 106.078 82.9773C105.175 82.9773 104.272 82.9773 103.241 82.9773C103.112 82.9773 102.854 82.9773 102.725 82.9773C102.596 82.9773 102.596 82.9773 102.467 82.9773C102.467 82.9773 102.338 83.1093 102.338 83.2412C102.338 83.3732 102.209 83.901 102.467 84.033H102.596C103.241 84.033 104.014 84.033 104.659 84.033C105.433 84.033 106.206 84.033 107.109 84.033H109.946C110.59 84.033 111.364 84.033 112.009 84.033C112.396 84.033 112.653 84.033 113.04 84.033C113.298 84.033 113.556 84.033 113.814 83.901C113.943 83.7691 113.943 83.5051 113.943 83.3732C114.201 83.3732 114.201 83.2412 114.072 83.1093Z" fill="white"/>
</g>
<path d="M150.493 57.0316C149.261 54.9692 146.554 53.5288 144.653 55.218C143.397 56.3344 143.281 58.2761 144.399 59.5349L145.836 61.1514C146.952 62.4075 148.894 62.5244 150.153 61.4055C151.494 60.2087 151.351 58.4691 150.493 57.0316Z" fill="#5B40C7"/>
<path d="M111.035 90.6952L111.033 90.6924C110.948 90.5969 111.054 90.3314 111.079 90.2553C111.079 90.2553 111.631 89.144 112.017 88.3904C112.447 87.5488 113.286 87.1014 114.048 87.9588L114.075 87.9888C114.849 88.8599 114.297 89.6141 113.43 89.9796C112.917 90.1953 111.472 90.6976 111.472 90.6976C111.396 90.7164 111.12 90.7907 111.035 90.6952Z" fill="#463099"/>
<path d="M119.559 88.6949L146.217 65.0006C146.895 64.3988 146.956 63.3518 146.354 62.6746L142.995 58.8954C142.394 58.2183 141.347 58.1566 140.669 58.7585L114.011 82.4528L119.559 88.6949V88.6949Z" fill="#463099"/>
<path d="M113.245 90.0533L111.919 88.5624C111.885 88.5242 112.085 88.0728 112.104 88.0273C112.257 87.5834 112.407 87.1368 112.563 86.6906C112.879 85.7646 113.197 84.8363 113.513 83.9104C113.632 83.5654 113.947 82.523 114.029 82.4399C114.233 82.2345 114.832 82.1663 115.093 82.223C115.509 82.3071 115.995 82.7212 116.084 83.1405C116.153 83.4551 116.123 83.8001 115.664 84.3009C116.003 84.1605 116.359 84.0986 116.689 84.1077C117.361 84.1317 118.1 84.9749 117.998 85.6624C117.946 86.0216 117.878 86.2039 117.71 86.5045C118.049 86.3356 118.35 86.18 118.826 86.3296C119.303 86.4767 119.831 87.0875 119.922 87.5793C119.992 87.9664 119.935 88.5452 119.56 88.7018C119.431 88.7433 114.652 89.7506 113.245 90.0533Z" fill="#F4F9FF"/>
<path d="M150.15 61.3997L144.653 55.2149C144.427 54.961 144.033 54.9352 143.776 55.1633L140.532 58.0465C140.278 58.2722 140.252 58.6666 140.48 58.9233L145.977 65.1081C146.203 65.3621 146.597 65.3879 146.854 65.1597L150.098 62.2765C150.352 62.0457 150.375 61.6537 150.15 61.3997Z" fill="#D5CBFD"/>
</g>
<defs>
<clipPath id="clip0_3584_170245">
<rect width="178" height="146" fill="white"/>
</clipPath>
<clipPath id="clip1_3584_170245">
<rect width="90" height="64" fill="white" transform="translate(34 36)"/>
</clipPath>
</defs>
</svg>
