<svg width="160" height="126" viewBox="0 0 160 126" fill="none" xmlns="http://www.w3.org/2000/svg">
<path d="M34.1917 55.4946C33.8966 55.6941 33.597 55.8917 33.292 56.0848C26.9784 60.0881 18.7444 61.3263 12.2738 65.1364C4.38191 69.7858 -0.550892 78.4007 0.0492385 87.1355C0.607856 95.2539 7.51883 103.678 14.1663 109.496C18.8491 113.594 24.2819 117.162 30.2714 119.532C35.364 121.547 41.8319 123.936 47.2628 124.356C55.5717 124.999 63.8372 123.121 70.2997 119.121C78.2115 114.225 82.4332 106.587 88.9326 100.576C94.9727 94.9895 103.754 93.283 112.722 93.1034C122.491 92.9076 132.706 94.014 141.683 91.2615C151.544 88.2374 158.874 80.3111 159.882 71.0682C160.891 61.8244 155.333 51.6565 145.953 46.2418C140.405 43.0381 133.946 41.5364 128.015 38.9888C122.387 36.572 118.539 33.2934 115.426 28.5952C112.704 24.4873 112.092 19.8189 109.102 15.8183C104.657 9.87024 97.9607 5.06469 90.4731 2.47375C78.4064 -1.70099 62.5657 -0.720932 53.4148 6.40122C48.3367 10.354 45.4218 15.83 45.0094 21.9423C44.6412 27.4103 45.4741 33.001 45.0202 38.4572C44.4246 45.6236 40.3455 51.3217 34.1917 55.4946Z" fill="#D0E3FF"/>
<path d="M105.267 96.9052C100.183 98.2219 95.8223 101.065 92.0419 104.43C89.5214 106.674 86.8654 109.239 85.3917 112.372C83.0264 117.404 86.601 120.677 92.05 118.932C96.667 117.455 99.8887 113.703 104.069 111.436C107.586 109.527 111.751 108.699 116.019 108.689C118.007 108.684 120.054 108.848 121.915 108.388C127.073 107.111 126.937 100.631 121.679 98.1263C116.627 95.7194 110.008 95.6779 105.267 96.9052ZM125.351 32.8005C128.448 34.72 137.125 35.8995 140.074 34.0531C146.048 30.3115 131.885 22.6425 128.845 20.4549C124.218 17.1249 116.977 15.0312 118.799 22.6975C119.745 26.6773 121.226 30.2447 125.351 32.8014V32.8005Z" fill="#D0E3FF"/>
<path d="M140.924 37.1055C141.914 37.1055 142.729 37.9204 142.729 38.9104C142.729 39.9004 141.914 40.7153 140.924 40.7153C139.934 40.7153 139.119 39.9004 139.119 38.9104C139.119 37.9204 139.934 37.1055 140.924 37.1055Z" fill="#F4F9FF"/>
<path d="M10.9709 58.7643C11.9609 58.7643 12.7758 59.5792 12.7758 60.5692C12.7758 61.5592 11.9609 62.3741 10.9709 62.3741C9.98093 62.3741 9.16602 61.5592 9.16602 60.5692C9.16602 59.5792 9.98093 58.7643 10.9709 58.7643Z" fill="#F4F9FF"/>
<path d="M80.9109 116.521C81.6536 116.521 82.2646 117.132 82.2646 117.875C82.2646 118.618 81.6536 119.229 80.9109 119.229C80.1682 119.229 79.5573 118.618 79.5573 117.875C79.5573 117.132 80.1682 116.521 80.9109 116.521Z" fill="#F4F9FF"/>
<path d="M144.814 40.4445C145.309 40.4445 145.716 40.8515 145.716 41.347C145.716 41.8424 145.309 42.2494 144.814 42.2494C144.318 42.2494 143.911 41.8424 143.911 41.347C143.911 40.8515 144.318 40.4445 144.814 40.4445Z" fill="#F4F9FF"/>
<path d="M37.9348 45.2025C39.7684 43.024 41.6586 36.4457 40.563 33.9566C38.3424 28.9142 30.8146 39.0041 28.78 41.1091C25.6829 44.3124 23.2474 49.6771 29.3822 49.1319C32.5671 48.8483 35.4931 48.1049 37.9355 45.2026L37.9348 45.2025Z" fill="#D0E3FF"/>
<path d="M68.8087 78.2524C83.8344 79.8523 102.23 79.4429 119.285 76.0153C119.427 75.9865 119.572 76.0855 119.61 76.2355C119.648 76.3858 119.564 76.5299 119.422 76.5589C102.307 79.9971 83.8713 80.4071 68.7929 78.8027C68.6458 78.7867 68.5304 78.6509 68.5351 78.4992C68.5393 78.347 68.6622 78.2369 68.8087 78.2524Z" fill="#463099"/>
<path fill-rule="evenodd" clip-rule="evenodd" d="M29.2113 66.8956L29.1403 66.9547C25.028 69.1868 19.6616 70.5933 15.4217 70.813C15.4345 70.8404 15.4474 70.8679 15.4604 70.8954C17.1417 74.5035 19.8344 77.7151 22.973 80.2786C28.4838 78.3574 33.6115 75.2567 37.8784 71.2636L37.8832 71.2594C34.9194 69.9538 32.0237 68.5003 29.2149 66.8976L29.2113 66.8956ZM23.49 80.6911C29.0293 78.7089 34.172 75.552 38.4423 71.5066L38.4467 71.5026L38.4594 71.5078C41.728 72.9208 45.0695 74.1491 48.4609 75.1754L48.4572 75.1805C47.7158 76.2337 46.8307 77.1533 45.8423 78.1574C43.9811 80.0353 41.9759 82.008 39.6868 83.6016C37.8544 84.8767 36.0132 85.7793 34.1796 86.3043C33.1541 85.9578 32.1421 85.5738 31.1392 85.1486C30.9037 85.0499 30.6684 84.9478 30.4361 84.843C29.3946 84.3744 28.3679 83.8564 27.3672 83.2885C26.0367 82.5365 24.7344 81.6674 23.4932 80.6935L23.49 80.6911ZM35.1118 86.6007C36.7435 86.043 38.3825 85.1962 40.0052 84.0663C42.3264 82.448 44.3523 80.4636 46.2249 78.5658C47.2766 77.503 48.2118 76.528 48.9991 75.3838L49.0167 75.3499L49.0176 75.3444L49.0403 75.3508C52.1807 76.2824 55.3543 77.0434 58.5449 77.626L58.5446 77.6266L58.5413 77.6273C55.6575 82.4641 52.0073 86.344 48.4161 88.4524L48.4169 88.4532C43.9723 88.5498 39.4607 87.9402 35.1203 86.6032C35.1175 86.6024 35.1146 86.6015 35.1118 86.6007ZM49.6226 88.4085C53.0357 86.1455 56.3779 82.3816 59.0862 77.7966L59.102 77.7515L59.1037 77.7467L59.13 77.7323L59.1324 77.7308L59.1573 77.733C62.3945 78.3008 65.6444 78.6806 68.8824 78.8675C67.6488 82.8389 62.517 85.9223 58.0767 87.1026C55.3411 87.8312 52.5037 88.2703 49.6226 88.4085ZM69.0258 78.3223C65.7866 78.1471 62.5285 77.7673 59.2886 77.2035L59.2614 77.1992C59.3369 75.8347 59.2854 74.4602 59.1199 73.0917C58.8013 70.4426 57.814 67.4233 56.6358 64.9335C56.6683 64.9535 56.7008 64.9735 56.7333 64.9934C57.3188 65.3566 57.8965 65.71 58.4541 66.0467C59.0061 66.3797 59.5638 66.7035 60.1214 67.0273C61.9692 68.1004 63.8167 69.1731 65.4531 70.5777C68.646 73.3141 69.532 75.9629 69.0259 78.3219C69.0258 78.3221 69.0258 78.3222 69.0258 78.3223ZM55.8027 64.4109C57.7663 68.2434 58.9493 72.9386 58.7293 77.1051C55.5251 76.5279 52.3382 75.7649 49.1866 74.8307L49.1657 74.8246C49.3508 72.1034 49.275 69.3555 48.9465 66.6291C48.646 64.1324 48.0492 61.2954 47.3201 58.8236C50.1625 60.7858 53.0939 62.7113 55.8027 64.4109ZM46.6277 58.3413C48.2422 63.5493 48.9882 69.3372 48.64 74.6681C45.311 73.6609 42.0229 72.4599 38.8121 71.0805L38.795 71.0732L38.7955 71.0234C38.7881 70.9647 38.7632 70.9035 38.7186 70.8576L38.6988 70.8393L38.6911 70.8318C38.7211 68.6139 38.5981 66.388 38.3311 64.1754C37.7667 59.4871 36.4002 54.4664 34.5643 50.0175C34.569 50.0197 34.5737 50.022 34.5783 50.0243C36.2014 50.7865 37.7902 51.7695 39.2894 52.9465C41.4613 54.6537 43.9837 56.5004 46.6064 58.3265C46.6135 58.3315 46.6206 58.3364 46.6277 58.3413ZM33.8657 49.6996C36.6728 56.3027 38.2465 63.779 38.1591 70.7932C35.1706 69.4829 32.2489 68.0187 29.4142 66.4046L29.3987 66.3958C29.4019 64.8384 29.3028 63.2523 29.1098 61.6452C28.5745 57.2018 27.304 52.6245 25.3523 48.1293C25.3546 48.1292 25.3569 48.1291 25.3593 48.1289C28.078 47.9159 31.0131 48.4749 33.8657 49.6996ZM24.8056 48.1819C22.1928 48.4838 19.7988 49.5168 17.8969 51.3707C17.8933 51.3743 17.8897 51.3778 17.8861 51.3813C19.2225 54.3214 20.1376 57.4835 20.5552 60.629L20.5555 60.6329L20.5564 60.6606L20.5809 60.6785C23.2316 62.6256 25.9992 64.4333 28.8654 66.0888C28.8297 60.3248 27.4337 54.1787 24.8056 48.1819ZM17.4983 51.782C18.701 54.4749 19.5453 57.3489 19.963 60.2207C18.2082 58.9086 16.5096 57.5348 14.8702 56.1023C14.7987 56.2736 14.7355 56.4515 14.679 56.6288C16.235 57.9844 17.8449 59.2896 19.5043 60.5344L19.5056 60.5354C17.6663 60.811 15.7667 60.7004 13.8203 60.2047C13.8051 60.2951 13.7926 60.385 13.7802 60.4751L13.7772 60.4969C13.7663 60.5788 13.7555 60.6649 13.7476 60.7465C15.9346 61.2995 18.0689 61.3817 20.1253 60.9984C22.8498 63.0069 25.6986 64.8714 28.6518 66.5745C24.5767 68.7405 19.3081 70.0894 15.1786 70.268C13.9038 67.3004 13.3214 64.0818 13.7313 60.7456C13.7393 60.664 13.75 60.5779 13.7609 60.496C13.7624 60.4851 13.7639 60.4743 13.7654 60.4634C13.7774 60.3769 13.7894 60.2906 13.8041 60.2038C13.9981 58.9001 14.2906 57.7088 14.671 56.6281C14.7274 56.4507 14.7907 56.2728 14.8621 56.1015C15.5293 54.3656 16.4264 52.9334 17.4983 51.782Z" fill="#463099"/>
<path fill-rule="evenodd" clip-rule="evenodd" d="M77.9973 28.8C76.8942 28.8 76 29.6943 76 30.7973C76 31.9004 76.8942 32.7946 77.9973 32.7946H116.332C117.435 32.7946 118.329 31.9004 118.329 30.7973C118.329 29.6943 117.435 28.8 116.332 28.8H77.9973ZM82.3178 38.7865C82.3178 37.6834 83.212 36.7892 84.3151 36.7892H110.014C111.117 36.7892 112.012 37.6834 112.012 38.7865C112.012 39.8895 111.117 40.7837 110.014 40.7837H84.3151C83.212 40.7837 82.3178 39.8895 82.3178 38.7865ZM101.334 52.0306V52.0321V63.1433C101.334 63.9294 100.874 64.6425 100.157 64.9661L96.0865 66.8046C94.7627 67.4024 93.2633 66.4343 93.2633 64.9819V52.3352L86.6027 44.7781L107.726 44.7781L101.334 52.0306Z" fill="#2058B4"/>
</svg>
