<svg width="200" height="146" viewBox="0 0 200 146" fill="none" xmlns="http://www.w3.org/2000/svg">
<g clip-path="url(#clip0_4052_122108)">
<path d="M44.712 65.3779C44.385 65.5992 44.053 65.8181 43.7153 66.032C36.7193 70.4677 27.5952 71.8397 20.4259 76.0619C11.6789 81.2139 6.21254 90.7601 6.87824 100.439C7.49692 109.435 15.1554 118.77 22.5214 125.217C27.7099 129.758 33.73 133.711 40.3675 136.337C46.0104 138.57 53.1778 141.217 59.1953 141.682C68.4019 142.395 77.5612 140.313 84.722 135.882C93.4894 130.456 98.1672 121.993 105.369 115.332C112.062 109.142 121.792 107.251 131.73 107.051C142.555 106.835 153.874 108.061 163.821 105.011C174.748 101.659 182.871 92.8768 183.988 82.6349C185.106 72.3918 178.947 61.1247 168.553 55.1241C162.405 51.5741 155.248 49.9108 148.676 47.0883C142.44 44.41 138.176 40.7766 134.726 35.5708C131.71 31.0185 131.032 25.8461 127.718 21.4124C122.793 14.8214 115.373 9.49715 107.076 6.62611C93.7055 1.99948 76.1529 3.08601 66.0134 10.9782C60.3857 15.3577 57.1561 21.4263 56.6989 28.1992C56.2906 34.2574 57.2135 40.4527 56.7109 46.4986C56.0504 54.4399 51.5319 60.7541 44.712 65.3779Z" fill="#F4F9FF"/>
<path d="M123.489 111.264C117.855 112.723 113.023 115.873 108.834 119.602C106.041 122.089 103.098 124.93 101.465 128.403C98.8438 133.978 102.805 137.605 108.843 135.672C113.959 134.034 117.529 129.878 122.161 127.365C126.058 125.25 130.674 124.333 135.403 124.321C137.606 124.315 139.874 124.498 141.936 123.987C147.652 122.573 147.501 115.393 141.675 112.617C136.077 109.95 128.742 109.904 123.489 111.264Z" fill="#F4F9FF"/>
<path d="M145.744 40.2306C149.175 42.3565 158.79 43.6638 162.058 41.6178C168.678 37.4718 152.984 28.9736 149.615 26.5498C144.488 22.8595 136.464 20.5408 138.483 29.0346C139.532 33.4457 141.173 37.3977 145.744 40.2306Z" fill="#F4F9FF"/>
<path d="M52.2705 38.637C52.2705 37.256 51.1511 36.1367 49.7707 36.1367C48.3903 36.1367 47.2705 37.256 47.2705 38.637C47.2705 40.0175 48.3903 41.1367 49.7707 41.1367C51.1511 41.1367 52.2705 40.0175 52.2705 38.637Z" fill="#F4F9FF"/>
<path d="M165 47.0002C165 45.8954 164.105 45 163 45C161.896 45 161 45.8954 161 47.0002C161 48.1046 161.896 49 163 49C164.105 49 165 48.1046 165 47.0002Z" fill="#F4F9FF"/>
<path d="M21 71.0002C21 69.8954 20.1045 69 19.0002 69C17.8959 69 17 69.8954 17 71.0002C17 72.1046 17.8959 73 19.0002 73C20.1045 73 21 72.1046 21 71.0002Z" fill="#F4F9FF"/>
<path d="M98 134.5C98 133.672 97.3284 133 96.5001 133C95.6719 133 95 133.672 95 134.5C95 135.328 95.6719 136 96.5001 136C97.3284 136 98 135.328 98 134.5Z" fill="#F4F9FF"/>
<path d="M168.31 49.7013C168.31 49.1489 167.863 48.7012 167.31 48.7012C166.758 48.7012 166.31 49.1489 166.31 49.7013C166.31 50.2535 166.758 50.7012 167.31 50.7012C167.863 50.7012 168.31 50.2535 168.31 49.7013Z" fill="#F4F9FF"/>
<path d="M24 63.0001C24 62.4477 23.5523 62 23.0001 62C22.4479 62 22 62.4477 22 63.0001C22 63.5523 22.4479 64 23.0001 64C23.5523 64 24 63.5523 24 63.0001Z" fill="#F4F9FF"/>
<path d="M12.0113 35.4785C26.0034 38.6822 47.1178 44.6775 59.8867 50.4141C49.7826 58.2494 42.3481 64.8518 33.5911 76.4034C30.8258 67.7236 12.7529 35.609 12.0113 35.4785Z" fill="#856BEE"/>
<path d="M50.4365 71.3776C47.7749 70.4937 43.8521 68.6396 40.9905 67.4229C42.7281 65.4031 44.5804 63.6377 46.6826 61.3429C39.0276 54.0958 30.4869 47.6138 21.2645 42.0518C23.3541 43.3127 25.7148 44.2806 27.9378 45.3325C31.5932 47.0628 50.4121 57.8355 50.5321 58.0527C50.6848 58.3289 50.3025 63.0963 50.4128 65.1696C50.4395 65.6912 50.5573 71.4188 50.4365 71.3776Z" fill="#463099"/>
<path d="M48.9587 75.2849C48.9587 75.2849 48.6229 75.8074 48.2863 76.3298C47.9818 76.8658 47.6772 77.4017 47.6772 77.4017L47.6755 77.4055C47.6512 77.448 47.594 77.4652 47.5463 77.4417C47.4999 77.4196 47.4815 77.3685 47.5044 77.3259L47.5075 77.3208C47.5075 77.3208 47.8573 76.8016 48.2055 76.2836C48.5832 75.7843 48.9587 75.2849 48.9587 75.2849Z" fill="#DADDE2"/>
<path d="M46.0357 81.9916C46.0357 81.9916 45.995 82.2967 45.9353 82.753C45.9194 82.8687 45.9016 82.9922 45.8843 83.1224C45.8602 83.2549 45.862 83.3886 45.8576 83.5273C45.848 83.8048 45.8375 84.1007 45.8285 84.398C45.8252 84.5447 45.8446 84.6965 45.8518 84.8424C45.861 84.9897 45.8719 85.1331 45.8816 85.2738C45.8926 85.4133 45.895 85.5497 45.9127 85.6763C45.9348 85.8031 45.9559 85.9232 45.9751 86.0326C46.0511 86.4742 46.1022 86.7691 46.1022 86.7691L46.1079 86.8064C46.1461 87.0306 45.9759 87.2381 45.7296 87.2713C45.4817 87.3044 45.2488 87.1478 45.2106 86.9236L45.2072 86.901C45.2072 86.901 45.1741 86.5844 45.1234 86.1123C45.1112 85.9939 45.0973 85.8649 45.0822 85.7292C45.0732 85.5938 45.0793 85.4498 45.076 85.3028C45.0765 85.1546 45.0763 85.0024 45.0748 84.8462C45.0786 84.6903 45.0682 84.5349 45.0803 84.3754C45.1125 84.0594 45.1447 83.7433 45.1738 83.4457C45.1927 83.1449 45.2641 82.8889 45.3063 82.6607C45.4013 82.2087 45.4639 81.9074 45.4639 81.9074C45.4944 81.7659 45.6458 81.6752 45.8032 81.7026C45.9524 81.7296 46.0539 81.8575 46.0357 81.9916Z" fill="#463099"/>
<path d="M48.0583 91.1377C48.0583 91.1377 48.2509 91.3931 48.5381 91.776C48.6092 91.872 48.6865 91.9763 48.7689 92.0861C48.8504 92.1958 48.9437 92.2916 49.0371 92.4019C49.2249 92.6173 49.4262 92.8453 49.6259 93.0745C49.8467 93.2968 50.0684 93.5178 50.2742 93.7262C50.3806 93.8278 50.4735 93.9328 50.5792 94.0199C50.681 94.1095 50.777 94.1948 50.8653 94.2731C51.2206 94.5848 51.4562 94.7938 51.4562 94.7938L51.4888 94.8225C51.7863 95.0856 51.794 95.5153 51.5068 95.7815C51.2181 96.0485 50.7432 96.0512 50.4442 95.7884L50.4185 95.7644C50.4185 95.7644 50.1789 95.5318 49.8175 95.1816C49.728 95.0939 49.6295 94.9991 49.5268 94.8988C49.4209 94.8015 49.3248 94.6842 49.2191 94.5695C49.0091 94.3378 48.785 94.0903 48.5617 93.844C48.3494 93.5825 48.1434 93.3132 47.9483 93.0657C47.8549 92.9422 47.7514 92.8221 47.6761 92.7087C47.5998 92.5939 47.5279 92.4872 47.4614 92.3874C47.2 91.9912 47.0241 91.726 47.0241 91.726C46.85 91.461 46.9449 91.1215 47.2356 90.966C47.515 90.8166 47.877 90.8948 48.0583 91.1377Z" fill="#463099"/>
<path d="M55.6832 97.6199C55.6832 97.6199 56.8829 98.2095 58.0824 98.7987C59.2768 99.2778 60.4728 99.7578 60.4728 99.7578L60.5419 99.7858C61.0549 99.9913 61.291 100.534 61.0686 100.995C60.8447 101.458 60.2471 101.665 59.7334 101.459C59.7202 101.454 59.7028 101.446 59.689 101.44C59.689 101.44 58.4162 100.861 57.1456 100.283C55.979 99.6409 54.8117 98.9993 54.8117 98.9993C54.3932 98.7692 54.2564 98.2781 54.5074 97.9016C54.7503 97.538 55.2666 97.4153 55.6804 97.6173L55.6832 97.6199Z" fill="#463099"/>
<path d="M65.482 101.224C65.482 101.224 66.8148 101.477 68.1491 101.73C69.434 101.886 70.7202 102.042 70.7202 102.042L70.8073 102.053C71.4771 102.134 71.9534 102.69 71.8696 103.294C71.7873 103.898 71.175 104.322 70.5061 104.241C70.492 104.239 70.4715 104.236 70.4581 104.235C70.4581 104.235 69.0511 104.012 67.6456 103.789C66.323 103.49 65.0007 103.191 65.0007 103.191C64.3995 103.055 64.0296 102.507 64.175 101.966C64.316 101.438 64.8953 101.112 65.482 101.224Z" fill="#463099"/>
<path d="M75.9015 102.127C75.9015 102.127 76.2389 102.098 76.7462 102.056C76.9973 102.033 77.3089 102.016 77.5899 101.972C77.8826 101.934 78.1917 101.894 78.5037 101.853C78.8175 101.805 79.1365 101.746 79.431 101.697C79.7285 101.651 80.0005 101.592 80.2339 101.538C80.7001 101.435 81.0136 101.366 81.0136 101.366L81.0817 101.352C81.8383 101.185 82.6075 101.605 82.8002 102.292C82.9929 102.978 82.534 103.669 81.7768 103.836L81.7394 103.843C81.7394 103.843 81.3895 103.912 80.864 104.014C80.6017 104.067 80.2957 104.124 79.9642 104.168C79.6325 104.215 79.2827 104.271 78.9259 104.316C78.5623 104.351 78.1992 104.385 77.8587 104.417C77.5098 104.456 77.2261 104.461 76.968 104.475C76.4595 104.499 76.1196 104.515 76.1196 104.515C75.3887 104.551 74.7579 104.045 74.7123 103.384C74.6668 102.739 75.1969 102.186 75.9015 102.127Z" fill="#463099"/>
<path d="M85.7276 99.6979C85.7276 99.6979 86.0225 99.5493 86.4671 99.3252C86.5773 99.2696 86.6975 99.2087 86.8237 99.1454C86.9574 99.0808 87.0622 99.0121 87.1896 98.9419C87.4365 98.803 87.6974 98.6526 87.9613 98.5039C88.4848 98.1689 89.0199 97.8508 89.3959 97.5756C89.7795 97.3099 90.0343 97.1333 90.0343 97.1333L90.0849 97.0985C90.7677 96.6257 91.7515 96.7465 92.2811 97.368C92.8107 97.9895 92.6859 98.8761 92.0039 99.349L91.9701 99.3714C91.9701 99.3714 91.683 99.56 91.2502 99.8422C90.8269 100.133 90.2215 100.476 89.6273 100.831C89.3121 100.999 88.9956 101.168 88.6986 101.325C88.554 101.401 88.4016 101.488 88.2773 101.544C88.1475 101.605 88.0253 101.662 87.913 101.716C87.4636 101.928 87.163 102.07 87.163 102.07C86.4352 102.412 85.5342 102.156 85.1476 101.496C84.7675 100.848 85.0297 100.051 85.7276 99.6979Z" fill="#463099"/>
<path d="M93.7988 93.9635C93.7988 93.9635 94.7016 93.0526 95.6042 92.1418C96.4339 91.234 97.2645 90.325 97.2645 90.325L97.299 90.2869C97.8962 89.6327 98.974 89.5453 99.703 90.091C100.433 90.638 100.541 91.6104 99.9425 92.2646L99.9173 92.2938C99.9173 92.2938 98.9983 93.2516 98.0787 94.2093C97.1483 95.0977 96.2171 95.9847 96.2171 95.9847C95.5968 96.5756 94.5595 96.5961 93.899 96.0299C93.2504 95.4749 93.208 94.5598 93.7935 93.9672L93.7988 93.9635Z" fill="#463099"/>
<path d="M100.946 85.2689C100.946 85.2689 101.786 84.3695 102.625 83.4687C103.616 82.5733 104.607 81.6768 104.607 81.6768C105.295 81.0561 106.43 81.1388 107.143 81.8619C107.85 82.5786 107.877 83.6567 107.209 84.2803L107.109 84.3721C107.109 84.3721 106.28 85.1445 105.45 85.9165C104.628 86.832 103.806 87.7471 103.806 87.7471C103.174 88.4516 102.017 88.4738 101.221 87.7956C100.425 87.116 100.294 85.9955 100.926 85.2909L100.946 85.2689Z" fill="#463099"/>
<path d="M108.953 78.6681C108.953 78.6681 110.061 78.0794 111.169 77.4913C112.401 76.9467 113.634 76.4008 113.634 76.4008C114.457 76.0377 115.496 76.4164 115.954 77.2463C116.407 78.0696 116.121 79.0272 115.314 79.399L115.21 79.4476C115.21 79.4476 114.143 79.9379 113.076 80.4284C111.983 81.0356 110.887 81.6431 110.887 81.6431C110.084 82.0885 108.996 81.7865 108.455 80.9693C107.914 80.1516 108.127 79.1281 108.928 78.6822L108.953 78.6681Z" fill="#463099"/>
<path d="M118.726 74.7727C118.726 74.7727 119.986 74.5077 121.246 74.2429C122.604 74.0484 123.961 73.8533 123.961 73.8533C124.818 73.7314 125.682 74.313 125.892 75.1537C126.097 75.9791 125.593 76.7477 124.761 76.8897L124.66 76.907C124.66 76.907 123.459 77.1101 122.259 77.3131C121.008 77.6051 119.758 77.8961 119.758 77.8961C118.887 78.0984 117.944 77.566 117.65 76.7059C117.355 75.845 117.823 74.9831 118.692 74.7808L118.726 74.7727Z" fill="#463099"/>
<path d="M129.424 73.5929C129.424 73.5929 130.743 73.6491 132.063 73.7049C133.453 73.8464 134.842 73.9867 134.842 73.9867C135.644 74.0687 136.286 74.7558 136.277 75.5229C136.268 76.2771 135.633 76.8267 134.85 76.7676L134.754 76.7609C134.754 76.7609 133.503 76.6653 132.253 76.5692C130.936 76.5478 129.62 76.5277 129.62 76.5277C128.781 76.515 128.046 75.8455 127.981 75.0352C127.914 74.2242 128.542 73.5782 129.382 73.5914L129.424 73.5929Z" fill="#463099"/>
<path d="M140.331 75.0615C140.331 75.0615 141.623 75.4408 142.916 75.8196C144.252 76.3084 145.587 76.7974 145.587 76.7974C146.274 77.0483 146.67 77.7693 146.472 78.4095C146.279 79.0341 145.592 79.3489 144.921 79.1288L144.828 79.0981C144.828 79.0981 143.613 78.6966 142.397 78.2964C141.097 77.9505 139.797 77.6054 139.797 77.6054C139.049 77.4071 138.552 76.6727 138.689 75.9683C138.825 75.2624 139.544 74.8525 140.293 75.0509L140.331 75.0615Z" fill="#463099"/>
<path d="M150.614 79.3903L155.222 82.2828L155.232 82.2889C155.758 82.6198 155.944 83.2724 155.651 83.7491C155.364 84.2148 154.722 84.3379 154.202 84.0374L149.5 81.3082L149.489 81.3017C148.903 80.9624 148.671 80.2529 148.969 79.7176C149.269 79.1836 149.986 79.0249 150.573 79.3662C150.585 79.3727 150.601 79.3828 150.614 79.3903Z" fill="#463099"/>
<path d="M159.796 85.1727L164.455 87.9778L164.46 87.9807C164.879 88.2335 165.038 88.7478 164.815 89.1304C164.597 89.5017 164.098 89.6098 163.685 89.3852L158.912 86.7859L158.907 86.7827C158.414 86.5145 158.203 85.9307 158.437 85.4794C158.671 85.0269 159.261 84.8788 159.755 85.1474C159.767 85.1547 159.783 85.1639 159.796 85.1727Z" fill="#463099"/>
<path d="M169.165 90.4963C169.165 90.4963 170.399 91.0622 171.632 91.6265C171.939 91.7548 172.245 91.866 172.532 91.979C172.821 92.0901 173.089 92.1934 173.32 92.2826C173.781 92.4628 174.088 92.5829 174.088 92.5829L174.137 92.6015C174.451 92.7244 174.628 93.0633 174.529 93.3563C174.434 93.6393 174.116 93.7758 173.811 93.6762C173.811 93.6762 173.483 93.5671 172.991 93.4053C172.745 93.3215 172.457 93.2247 172.149 93.1219C171.843 93.0166 171.509 92.9106 171.186 92.7931C169.931 92.2845 168.677 91.7759 168.677 91.7759L168.675 91.7752C168.29 91.6183 168.081 91.2037 168.206 90.8463C168.333 90.4891 168.747 90.3264 169.131 90.4822L169.165 90.4963Z" fill="#463099"/>
<path d="M179.15 93.7098C179.15 93.7098 179.234 93.7131 179.377 93.7164C179.517 93.7166 179.736 93.7342 179.966 93.7245C180.195 93.713 180.464 93.7173 180.754 93.6775C180.898 93.659 181.051 93.6539 181.199 93.6231C181.348 93.5957 181.5 93.5684 181.651 93.5394C181.802 93.5082 181.945 93.4612 182.091 93.4234C182.239 93.3897 182.375 93.3387 182.507 93.2859C182.639 93.234 182.772 93.1936 182.887 93.137C183.003 93.0801 183.112 93.0267 183.212 92.9769C183.42 92.885 183.565 92.7689 183.681 92.7058C183.792 92.6369 183.857 92.5988 183.857 92.5988L183.879 92.5846C184.004 92.5077 184.181 92.5498 184.272 92.6773C184.36 92.7998 184.339 92.9582 184.231 93.0388C184.231 93.0388 184.165 93.0864 184.05 93.17C183.93 93.2462 183.781 93.3867 183.563 93.5008C183.456 93.562 183.341 93.6276 183.219 93.6972C183.096 93.766 182.956 93.8209 182.815 93.8858C182.675 93.952 182.528 94.0148 182.371 94.0633C182.215 94.1148 182.059 94.1749 181.898 94.2193C181.735 94.2602 181.572 94.3002 181.413 94.3407C181.252 94.3826 181.089 94.3993 180.933 94.4284C180.625 94.489 180.318 94.5039 180.06 94.5306C179.803 94.5539 179.607 94.5482 179.461 94.5563C179.318 94.5613 179.235 94.5619 179.235 94.5619C178.992 94.5701 178.77 94.3852 178.739 94.1501C178.708 93.9144 178.88 93.7174 179.124 93.7101L179.15 93.7098Z" fill="#463099"/>
</g>
<defs>
<clipPath id="clip0_4052_122108">
<rect width="200" height="146" fill="white"/>
</clipPath>
</defs>
</svg>
