<svg width="512" height="134" viewBox="0 0 512 134" fill="none" xmlns="http://www.w3.org/2000/svg">
<g clip-path="url(#clip0_1873_38971)">
<path d="M340.694 74.0341C339.915 66.2764 344.82 59.4412 346.598 52.0623C348.376 44.6834 337.948 31.8177 325.211 28.2551C295.462 19.9206 293.763 48.558 250.431 33.8954C223.419 24.755 224.465 20.2238 217.658 16.0892C200.991 5.96607 175.682 7.45918 168.321 18.834C154.878 39.6009 177.925 39.1874 172.075 55.3034C166.072 71.835 160.9 77.9871 168.6 93.6699C175.024 106.762 192.383 111.477 206.339 110.969C227.821 110.187 243.955 89.579 260.594 92.2004C270.343 93.7312 279.956 96.5886 288.517 101.113C297.837 106.046 307.101 110.615 317.094 115.175C337.173 124.34 350.832 107.956 350.43 99.6865C349.707 84.7055 341.528 82.3432 340.694 74.0341Z" fill="#F4F9FF"/>
<path d="M257.127 96.2544C252.064 96.4397 240.577 100.874 238.119 104.478C233.14 111.78 255.585 109.901 260.751 110.003C268.614 110.159 287.029 108.852 279.845 102.862C276.114 99.7514 263.872 96.0081 257.127 96.2544Z" fill="#F4F9FF"/>
<path d="M345.086 72.6572C345.308 75.0202 348.109 79.9908 350.228 80.7958C354.521 82.4263 352.932 72.0537 352.872 69.6143C352.782 65.9012 351.019 61.3172 347.755 65.2791C346.06 67.3367 344.791 69.509 345.086 72.6572Z" fill="#F4F9FF"/>
<path d="M169.517 48.1018C169.027 46.2357 166.124 42.6188 164.318 42.253C160.659 41.5122 163.303 49.6223 163.674 51.571C164.237 54.5374 166.256 57.9815 168.351 54.3724C169.439 52.4981 170.17 50.588 169.517 48.1018Z" fill="#F4F9FF"/>
<path d="M267.748 33.9542C256.114 32.2466 243.751 27.4532 239.426 21.4271C235.1 15.401 243.224 13.6209 250.121 15.4673C257.018 17.3137 264.303 23.5203 276.647 21.7782C288.99 20.036 290.333 24.0447 289.826 26.5088C289.319 28.9729 282.291 36.0887 267.748 33.9542Z" fill="#F4F9FF"/>
<circle cx="232.412" cy="18.8407" r="2" transform="rotate(8.65433 232.412 18.8407)" fill="#F4F9FF"/>
<circle cx="287.901" cy="106.185" r="2" transform="rotate(8.65433 287.901 106.185)" fill="#F4F9FF"/>
<circle cx="235.292" cy="13.2099" r="1" transform="rotate(8.65433 235.292 13.2099)" fill="#F4F9FF"/>
<g clip-path="url(#clip1_1873_38971)">
<path d="M228.594 60.0849C227.421 70.104 231.776 80.5945 239.71 86.8476C245.825 91.6648 253.813 93.9406 261.584 93.4259C274.633 92.5589 286.927 83.2713 290.571 70.7379C294.209 58.2046 288.388 43.3629 276.826 37.2615C268.377 32.8073 257.695 31.5665 248.562 34.8502C238.76 38.3777 230.734 48.1205 228.86 58.3021C228.752 58.8928 228.665 59.4888 228.594 60.0849Z" fill="#2058B4"/>
<path d="M261.236 29.816C261.676 28.3855 261.795 26.8358 261.915 25.3456C262.023 24.0289 262.279 22.5875 261.697 21.3521C261.556 21.0486 261.236 20.8481 260.981 21.1624C260.226 22.0944 260.351 23.5575 260.242 24.6845C260.106 26.153 259.906 27.6431 259.938 29.117C259.965 29.984 260.796 31.252 261.236 29.816Z" fill="#2058B4"/>
<path d="M272.227 33.2189C273.406 32.1243 274.177 30.7372 274.953 29.3446C275.779 27.8653 276.316 26.4456 276.311 24.7333C276.311 24.6032 276.273 24.2023 276.072 24.2131C274.921 24.2565 274.4 25.985 273.981 26.8195C273.189 28.4126 272.314 29.9352 271.619 31.5771C271.467 31.9347 271.489 33.9017 272.227 33.2189Z" fill="#2058B4"/>
<path d="M283.652 37.7492C284.793 37.3103 285.656 36.2428 286.422 35.3216C287.416 34.135 288.263 33.0079 288.8 31.5503C288.92 31.2251 289.088 29.4803 288.333 29.7621C287.144 30.2064 286.416 31.431 285.651 32.4064C284.711 33.6039 283.848 34.8394 283.245 36.2374C283.12 36.5192 283.006 37.9985 283.652 37.7492Z" fill="#2058B4"/>
<path d="M291.505 46.1806C292.889 46.1643 294.16 45.7308 295.42 45.1835C296.761 44.6037 298.108 44.2786 298.705 42.8698C298.814 42.6097 298.874 42.0136 298.64 41.786C298.206 41.3742 298.097 41.2333 297.478 41.4284C296.815 41.6397 296.18 41.9757 295.539 42.2466C294.051 42.8806 292.667 43.5254 291.396 44.5441C291.108 44.7826 290.929 46.186 291.505 46.1806Z" fill="#2058B4"/>
<path d="M295.121 61.0926C296.539 61.6453 297.885 61.629 299.4 61.6236C300.834 61.6127 302.507 61.6344 303.679 60.7349C304.065 60.4369 304.152 59.1581 303.674 58.898C302.403 58.2152 300.774 58.5566 299.39 58.7192C297.891 58.898 296.511 58.9793 295.116 59.5807C294.757 59.7325 294.752 60.9517 295.121 61.0926Z" fill="#2058B4"/>
<path d="M292.374 75.1758C292.917 76.7797 295.333 76.8339 296.761 77.2511C298.266 77.6901 300.476 79.0176 302.04 78.4541C302.409 78.3186 302.279 77.3866 302.105 77.1482C300.981 75.5876 298.988 75.0945 297.212 74.6014C295.958 74.2492 293.471 73.2522 292.412 74.3522C292.238 74.5364 292.303 74.9645 292.374 75.1758Z" fill="#2058B4"/>
<path d="M284.511 86.2679C285.559 87.6497 286.688 88.793 287.899 90.0285C288.708 90.8575 289.317 92.1797 290.424 92.624C290.609 92.6999 290.821 92.6674 290.94 92.4777C291.891 90.9388 290.631 89.4433 289.713 88.1916C288.48 86.5118 286.688 85.4172 284.804 84.6532C284.174 84.4039 284.315 86.0078 284.511 86.2679Z" fill="#2058B4"/>
<path d="M274.405 94.4932C274.747 95.7286 275.409 96.7636 276.088 97.8311C276.686 98.7685 277.212 99.9498 278.13 100.611C278.955 101.201 278.793 98.6276 278.7 98.3675C278.277 97.17 277.495 96.1459 276.762 95.1109C276.246 94.3848 275.659 93.3119 274.736 93.0952C274.274 92.9868 274.35 94.309 274.405 94.4932Z" fill="#2058B4"/>
<path d="M260.693 95.4903C259.868 96.2543 260.004 97.6089 259.971 98.6331C259.922 100.248 259.949 101.852 260.08 103.467C260.123 104.014 260.411 105.114 261.133 104.989C261.861 104.865 261.953 103.385 261.953 102.892C261.948 104.409 261.942 102.085 261.937 101.825C261.92 101.294 261.899 100.757 261.872 100.226C261.812 99.1641 261.557 98.0804 261.551 97.0292C261.546 96.8828 261.296 94.9321 260.693 95.4903Z" fill="#2058B4"/>
<path d="M249.854 30.9867C249.387 29.2852 248.747 27.6542 248.204 25.9744C247.916 25.0912 247.623 23.238 246.58 22.902C246.374 22.837 246.314 23.1242 246.292 23.2705C246.015 24.9069 246.46 26.4458 247.014 27.9739C247.585 29.5399 248.182 31.0788 249.186 32.4226C249.751 33.1812 249.93 31.2576 249.854 30.9867Z" fill="#2058B4"/>
<path d="M238.755 36.2371C238.147 34.8391 237.283 33.6037 236.344 32.4062C235.578 31.4308 234.845 30.2062 233.661 29.7619C232.901 29.4801 233.091 31.2411 233.21 31.5554C233.748 33.013 234.595 34.1401 235.594 35.3268C236.36 36.2426 237.229 37.31 238.358 37.7489C238.999 37.9982 238.869 36.5081 238.755 36.2371Z" fill="#2058B4"/>
<path d="M230.593 44.5442C229.393 43.5797 228.095 42.9403 226.678 42.3442C226.059 42.0841 225.45 41.7807 224.82 41.5477C224.163 41.3038 223.968 41.1901 223.425 41.7157C223.142 41.992 223.148 42.5285 223.294 42.8698C223.897 44.2733 225.249 44.6038 226.585 45.1836C227.851 45.7309 229.11 46.1698 230.495 46.1806C231.082 46.1861 230.881 44.7772 230.593 44.5442Z" fill="#2058B4"/>
<path d="M226.879 59.581C225.483 58.9795 224.104 58.8982 222.6 58.7194C221.215 58.5568 219.591 58.2101 218.321 58.8982C217.837 59.1583 217.946 60.4425 218.326 60.7351C219.499 61.6346 221.182 61.613 222.61 61.6238C224.12 61.6346 225.467 61.6455 226.884 61.0928C227.253 60.9465 227.232 59.7327 226.879 59.581Z" fill="#2058B4"/>
<path d="M228.513 74.352C227.454 73.2574 224.956 74.2544 223.707 74.6012C221.931 75.0997 219.938 75.5874 218.82 77.148C218.657 77.3755 218.527 78.3184 218.896 78.4539C220.454 79.0174 222.686 77.6844 224.18 77.2509C225.619 76.8337 228.019 76.7849 228.556 75.1756C228.632 74.9643 228.692 74.5362 228.513 74.352Z" fill="#2058B4"/>
<path d="M236.523 85.8938C234.633 86.6578 232.841 87.7524 231.608 89.4376C230.691 90.6947 229.442 92.1902 230.403 93.7237C230.522 93.9134 230.734 93.9405 230.919 93.8646C232.059 93.4094 232.743 91.9735 233.585 91.1228C234.758 89.9361 235.817 88.8415 236.827 87.5085C237.039 87.2267 237.147 85.6391 236.523 85.8938Z" fill="#2058B4"/>
<path d="M247.253 93.0951C246.335 93.3064 245.732 94.3956 245.222 95.1163C244.494 96.1458 243.707 97.1699 243.289 98.3729C243.191 98.6546 243.061 101.196 243.881 100.611C244.798 99.9551 245.331 98.763 245.922 97.831C246.607 96.7635 247.258 95.7286 247.6 94.4931C247.655 94.3035 247.72 92.9922 247.253 93.0951Z" fill="#2058B4"/>
<path d="M233.243 72.2498C233.363 72.705 233.515 73.1439 233.699 73.5503C234.117 74.4769 235.339 75.3602 235.855 74.0651C237.082 70.9981 237.397 66.8691 238.787 63.8726C241.503 58.0096 244.679 54.2924 249.588 49.9792C253.406 46.625 259.2 44.3763 261.769 39.8788C262.648 38.3399 261.486 37.099 259.852 36.9527C246.308 35.7552 235.051 48.8846 232.814 60.7352C232.228 63.8509 232.347 68.8632 233.243 72.2498Z" fill="#5F95EC"/>
</g>
<circle cx="207.278" cy="34.2781" r="2.66181" transform="rotate(8.65433 207.278 34.2781)" fill="#2058B4"/>
<circle cx="199.626" cy="43.6256" r="2.30503" transform="rotate(8.65433 199.626 43.6256)" fill="#2058B4"/>
<circle cx="212.278" cy="46.2785" r="1.52275" transform="rotate(8.65433 212.278 46.2785)" fill="#2058B4"/>
<circle cx="308.885" cy="90.9584" r="2.66181" transform="rotate(-95.3407 308.885 90.9584)" fill="#2058B4"/>
<circle cx="319.806" cy="96.1232" r="2.30503" transform="rotate(-95.3407 319.806 96.1232)" fill="#2058B4"/>
<circle cx="319.32" cy="83.2044" r="1.52275" transform="rotate(-95.3407 319.32 83.2044)" fill="#2058B4"/>
</g>
<defs>
<clipPath id="clip0_1873_38971">
<rect width="512" height="134" fill="white"/>
</clipPath>
<clipPath id="clip1_1873_38971">
<rect width="86" height="84" fill="white" transform="translate(218 21)"/>
</clipPath>
</defs>
</svg>
