<svg width="200" height="146" viewBox="0 0 200 146" fill="none" xmlns="http://www.w3.org/2000/svg">
<g clip-path="url(#clip0_3933_84087)">
<path d="M44.712 65.3779C44.385 65.5992 44.053 65.8181 43.7153 66.032C36.7193 70.4677 27.5952 71.8397 20.4259 76.0619C11.6789 81.2139 6.21254 90.7601 6.87824 100.439C7.49692 109.435 15.1554 118.77 22.5214 125.217C27.7099 129.758 33.73 133.711 40.3675 136.337C46.0104 138.57 53.1778 141.217 59.1953 141.682C68.4019 142.395 77.5612 140.313 84.722 135.882C93.4894 130.456 98.1672 121.993 105.369 115.332C112.062 109.142 121.792 107.251 131.73 107.051C142.555 106.835 153.874 108.061 163.821 105.011C174.748 101.659 182.871 92.8768 183.988 82.6349C185.106 72.3918 178.947 61.1247 168.553 55.1241C162.405 51.5741 155.248 49.9108 148.676 47.0883C142.44 44.41 138.176 40.7766 134.726 35.5708C131.71 31.0185 131.032 25.8461 127.718 21.4124C122.793 14.8214 115.373 9.49715 107.076 6.62611C93.7055 1.99948 76.1529 3.08601 66.0134 10.9782C60.3857 15.3577 57.1561 21.4263 56.6989 28.1992C56.2906 34.2574 57.2135 40.4527 56.7109 46.4986C56.0504 54.4399 51.5319 60.7541 44.712 65.3779Z" fill="#F4F9FF"/>
<path d="M123.489 111.264C117.855 112.723 113.022 115.873 108.834 119.602C106.041 122.089 103.098 124.93 101.465 128.403C98.8436 133.978 102.805 137.605 108.843 135.672C113.958 134.034 117.529 129.878 122.161 127.365C126.058 125.25 130.674 124.333 135.403 124.321C137.606 124.315 139.874 124.498 141.936 123.987C147.651 122.573 147.501 115.393 141.674 112.617C136.077 109.95 128.742 109.904 123.489 111.264Z" fill="#F4F9FF"/>
<path d="M145.744 40.2306C149.175 42.3565 158.79 43.6638 162.058 41.6178C168.678 37.4718 152.984 28.9736 149.615 26.5498C144.488 22.8595 136.464 20.5408 138.483 29.0346C139.532 33.4457 141.173 37.3977 145.744 40.2306Z" fill="#F4F9FF"/>
<path d="M52.2705 38.637C52.2705 37.256 51.1511 36.1367 49.7707 36.1367C48.3903 36.1367 47.2705 37.256 47.2705 38.637C47.2705 40.0175 48.3903 41.1367 49.7707 41.1367C51.1511 41.1367 52.2705 40.0175 52.2705 38.637Z" fill="#F4F9FF"/>
<path d="M165 47.0002C165 45.8954 164.105 45 163 45C161.896 45 161 45.8954 161 47.0002C161 48.1046 161.896 49 163 49C164.105 49 165 48.1046 165 47.0002Z" fill="#F4F9FF"/>
<path d="M21 71.0002C21 69.8954 20.1045 69 19.0002 69C17.8959 69 17 69.8954 17 71.0002C17 72.1046 17.8959 73 19.0002 73C20.1045 73 21 72.1046 21 71.0002Z" fill="#F4F9FF"/>
<path d="M98 134.5C98 133.672 97.3284 133 96.5001 133C95.6719 133 95 133.672 95 134.5C95 135.328 95.6719 136 96.5001 136C97.3284 136 98 135.328 98 134.5Z" fill="#F4F9FF"/>
<path d="M168.31 49.7013C168.31 49.1489 167.863 48.7012 167.31 48.7012C166.758 48.7012 166.31 49.1489 166.31 49.7013C166.31 50.2535 166.758 50.7012 167.31 50.7012C167.863 50.7012 168.31 50.2535 168.31 49.7013Z" fill="#F4F9FF"/>
<path d="M24 63.0001C24 62.4477 23.5523 62 23.0001 62C22.4479 62 22 62.4477 22 63.0001C22 63.5523 22.4479 64 23.0001 64C23.5523 64 24 63.5523 24 63.0001Z" fill="#F4F9FF"/>
<path d="M64 54.3475V83.6525C64 85.5277 64.7168 87.2325 65.8881 88.5281C67.2692 90.0453 69.2797 91 71.535 91H126.465C129.979 91 132.916 88.6815 133.755 85.5107C133.913 84.914 134 84.3003 134 83.6525V54.3475C134 50.2902 130.626 47 126.465 47H71.535C67.3741 47 64 50.2902 64 54.3475Z" fill="#B6A8EF"/>
<path d="M99 76.0151C96.7622 76.0151 73.458 54.2964 66.6049 48.79C67.9335 47.6819 69.6468 47 71.5349 47H126.465C127.759 47 129.21 47.3069 130.241 48.057C130.136 47.9888 100.171 76.0151 99 76.0151Z" fill="#D5CBFD"/>
<circle cx="99" cy="71" r="10" fill="#19468F"/>
<path d="M104.42 68.8151L98.688 75.0775C98.5827 75.1995 98.4517 75.2982 98.3039 75.3666C98.1561 75.4351 97.9949 75.4719 97.8313 75.4744H97.812C97.6519 75.4743 97.4936 75.4415 97.3474 75.378C97.2011 75.3146 97.0702 75.2219 96.9632 75.106L94.3111 72.3298C94.2067 72.222 94.1255 72.0949 94.0722 71.9561C94.0189 71.8172 93.9947 71.6694 94.001 71.5213C94.0072 71.3732 94.0438 71.2278 94.1086 71.0937C94.1733 70.9596 94.265 70.8394 94.3782 70.7402C94.4913 70.6411 94.6237 70.565 94.7675 70.5163C94.9113 70.4677 95.0636 70.4476 95.2156 70.4571C95.3675 70.4666 95.5159 70.5056 95.6521 70.5717C95.7884 70.6379 95.9096 70.7299 96.0088 70.8424L97.782 72.6676L102.671 67.3846C102.867 67.1636 103.145 67.0267 103.444 67.0035C103.743 66.9803 104.04 67.0726 104.27 67.2606C104.499 67.4485 104.644 67.7169 104.672 68.0078C104.7 68.2987 104.61 68.5887 104.42 68.8151Z" fill="white"/>
</g>
<defs>
<clipPath id="clip0_3933_84087">
<rect width="200" height="146" fill="white"/>
</clipPath>
</defs>
</svg>
