<svg xmlns="http://www.w3.org/2000/svg" width="24" height="24" viewBox="0 0 24 24">
  <path fill-rule="evenodd" d="M12 2C6.479 2 2 6.476 2 12s4.477 10 10 10 10-4.477 10-10S17.522 2 12 2zm6.001 9.772c-.137 1.569-.807 2.39-1.346 2.801-.54.412-1.186.592-1.744.492a2 2 0 01-1.29-.826 2.984 2.984 0 01-2.115.845 2.484 2.484 0 01-1.854-.81c-.547-.597-.817-1.46-.736-2.366.144-1.683 1.486-2.76 2.734-2.956 1.308-.206 2.511.314 3.024.935l.185.224-.305 2.423c-.057.69.158 1.128.591 1.206.115.02.39-.006.691-.237.323-.247.728-.769.822-1.85.113-1.275-.209-2.364-.925-3.148-.745-.812-1.88-1.242-3.28-1.242-2.597 0-4.895 2.136-5.125 4.76-.11 1.26.273 2.436 1.077 3.313.787.86 1.89 1.334 3.109 1.334.913 0 1.472-.098 2.379-.422a.673.673 0 11.452 1.268c-1.05.374-1.764.5-2.831.5-1.6 0-3.056-.627-4.101-1.767-1.06-1.16-1.569-2.7-1.426-4.341.14-1.603.888-3.108 2.105-4.237 1.217-1.13 2.768-1.754 4.36-1.754 1.789 0 3.266.58 4.273 1.68.966 1.053 1.419 2.535 1.276 4.175zm-7.743.253c.086-.982.89-1.631 1.603-1.743a2.385 2.385 0 011.583.303l-.154 1.223a.684.684 0 00-.016.1c-.097 1.111-.79 1.83-1.767 1.83a1.137 1.137 0 01-.86-.373c-.293-.32-.437-.808-.389-1.34z" clip-rule="evenodd"/>
</svg>
