<svg width="12" height="12" viewBox="0 0 12 12" fill="none" xmlns="http://www.w3.org/2000/svg">
<path fill-rule="evenodd" clip-rule="evenodd" d="M2.71796 0C3.08615 0 3.38462 0.298477 3.38462 0.666667V0.820516H8.61538V0.666667C8.61538 0.298477 8.91385 0 9.28204 0C9.65023 0 9.94871 0.298477 9.94871 0.666667V0.820516H10.1026C11.1505 0.820516 12 1.67003 12 2.71795V10.1026C12 11.1505 11.1505 12 10.1026 12H1.89744C0.849511 12 0 11.1505 0 10.1026V2.71795C0 1.67003 0.849511 0.820516 1.89744 0.820516H2.05129V0.666667C2.05129 0.298477 2.34977 0 2.71796 0ZM1.33333 10.1026V4.20513C1.48718 4.05128 1.69231 3.94872 1.89744 3.94872H10.1026C10.3077 3.94872 10.5128 4.05129 10.6667 4.20513V10.1026C10.6667 10.4141 10.4141 10.6667 10.1026 10.6667H1.89744C1.58589 10.6667 1.33333 10.4141 1.33333 10.1026ZM7.64103 5.38461C7.64103 5.72448 7.36551 6 7.02564 6C6.68578 6 6.41026 5.72448 6.41026 5.38461C6.41026 5.04474 6.68578 4.76923 7.02564 4.76923C7.36551 4.76923 7.64103 5.04474 7.64103 5.38461ZM9.07693 6C9.4168 6 9.69232 5.72448 9.69232 5.38461C9.69232 5.04474 9.4168 4.76923 9.07693 4.76923C8.73707 4.76923 8.46155 5.04474 8.46155 5.38461C8.46155 5.72448 8.73707 6 9.07693 6ZM7.64103 7.4359C7.64103 7.77577 7.36551 8.05129 7.02564 8.05129C6.68578 8.05129 6.41026 7.77577 6.41026 7.4359C6.41026 7.09603 6.68578 6.82052 7.02564 6.82052C7.36551 6.82052 7.64103 7.09603 7.64103 7.4359ZM9.07693 8.05129C9.4168 8.05129 9.69232 7.77577 9.69232 7.4359C9.69232 7.09603 9.4168 6.82052 9.07693 6.82052C8.73707 6.82052 8.46155 7.09603 8.46155 7.4359C8.46155 7.77577 8.73707 8.05129 9.07693 8.05129ZM3.53847 7.4359C3.53847 7.77577 3.26295 8.05129 2.92308 8.05129C2.58322 8.05129 2.3077 7.77577 2.3077 7.4359C2.3077 7.09603 2.58322 6.82052 2.92308 6.82052C3.26295 6.82052 3.53847 7.09603 3.53847 7.4359ZM4.97435 8.05129C5.31422 8.05129 5.58974 7.77577 5.58974 7.4359C5.58974 7.09603 5.31422 6.82052 4.97435 6.82052C4.63449 6.82052 4.35897 7.09603 4.35897 7.4359C4.35897 7.77577 4.63449 8.05129 4.97435 8.05129ZM3.53847 9.48718C3.53847 9.82705 3.26295 10.1026 2.92308 10.1026C2.58322 10.1026 2.3077 9.82705 2.3077 9.48718C2.3077 9.14731 2.58322 8.8718 2.92308 8.8718C3.26295 8.8718 3.53847 9.14731 3.53847 9.48718ZM4.97435 10.1026C5.31422 10.1026 5.58974 9.82705 5.58974 9.48718C5.58974 9.14731 5.31422 8.8718 4.97435 8.8718C4.63449 8.8718 4.35897 9.14731 4.35897 9.48718C4.35897 9.82705 4.63449 10.1026 4.97435 10.1026ZM7.64103 9.48718C7.64103 9.82705 7.36551 10.1026 7.02564 10.1026C6.68578 10.1026 6.41026 9.82705 6.41026 9.48718C6.41026 9.14731 6.68578 8.8718 7.02564 8.8718C7.36551 8.8718 7.64103 9.14731 7.64103 9.48718Z" fill="#12151B"/>
</svg>
