<svg width="13" height="18">
  <path clip-rule="evenodd" d="M11.104 6.222c.417 0 .781.158 1.094.476.312.317.468.688.468 1.11v7.937c0 .424-.156.794-.468 1.112-.313.317-.677.476-1.094.476H1.729c-.417 0-.781-.159-1.094-.476a1.535 1.535 0 0 1-.468-1.112V7.81c0-.423.156-.794.468-1.111.313-.318.677-.476 1.094-.476h.781V4.634c0-1.084.384-2.017 1.153-2.797C4.43 1.057 5.349.666 6.417.666c1.067 0 1.985.39 2.753 1.17.769.781 1.153 1.714 1.153 2.798v1.588h.781Zm-5.781 6.746c.312.317.677.476 1.093.476.417 0 .782-.159 1.094-.476.313-.318.469-.688.469-1.111 0-.424-.156-.794-.469-1.112-.312-.317-.677-.476-1.093-.476-.417 0-.782.159-1.094.476a1.534 1.534 0 0 0-.469 1.112c0 .423.156.793.469 1.11Zm3.515-6.746V4.634c0-.688-.234-1.27-.703-1.746a2.32 2.32 0 0 0-1.718-.714 2.32 2.32 0 0 0-1.72.714c-.468.476-.702 1.058-.702 1.746v1.588h4.843Z"/>
</svg>
