<svg width="32" height="32" viewBox="0 0 32 32" xmlns="http://www.w3.org/2000/svg">
<path fill-rule="evenodd" clip-rule="evenodd" d="M11.0769 7C11.6292 7 12.0769 7.44772 12.0769 8V8.23077H19.9231V8C19.9231 7.44772 20.3708 7 20.9231 7C21.4754 7 21.9231 7.44772 21.9231 8V8.23077H22.1538C23.7257 8.23077 25 9.50504 25 11.0769V22.1539C25 23.7257 23.7257 25 22.1538 25H9.84615C8.27427 25 7 23.7257 7 22.1539L7 11.0769C7 9.50504 8.27427 8.23077 9.84615 8.23077H10.0769V8C10.0769 7.44772 10.5247 7 11.0769 7ZM9 22.1539V13.3077C9.23077 13.0769 9.53846 12.9231 9.84615 12.9231H22.1538C22.4615 12.9231 22.7692 13.0769 23 13.3077V22.1539C23 22.6212 22.6212 23 22.1538 23H9.84615C9.37884 23 9 22.6212 9 22.1539ZM18.4615 15.0769C18.4615 15.5867 18.0483 16 17.5385 16C17.0287 16 16.6154 15.5867 16.6154 15.0769C16.6154 14.5671 17.0287 14.1538 17.5385 14.1538C18.0483 14.1538 18.4615 14.5671 18.4615 15.0769ZM20.6154 16C21.1252 16 21.5385 15.5867 21.5385 15.0769C21.5385 14.5671 21.1252 14.1538 20.6154 14.1538C20.1056 14.1538 19.6923 14.5671 19.6923 15.0769C19.6923 15.5867 20.1056 16 20.6154 16ZM18.4615 18.1539C18.4615 18.6637 18.0483 19.0769 17.5385 19.0769C17.0287 19.0769 16.6154 18.6637 16.6154 18.1539C16.6154 17.644 17.0287 17.2308 17.5385 17.2308C18.0483 17.2308 18.4615 17.644 18.4615 18.1539ZM20.6154 19.0769C21.1252 19.0769 21.5385 18.6637 21.5385 18.1539C21.5385 17.644 21.1252 17.2308 20.6154 17.2308C20.1056 17.2308 19.6923 17.644 19.6923 18.1539C19.6923 18.6637 20.1056 19.0769 20.6154 19.0769ZM12.3077 18.1539C12.3077 18.6637 11.8944 19.0769 11.3846 19.0769C10.8748 19.0769 10.4615 18.6637 10.4615 18.1539C10.4615 17.644 10.8748 17.2308 11.3846 17.2308C11.8944 17.2308 12.3077 17.644 12.3077 18.1539ZM14.4615 19.0769C14.9713 19.0769 15.3846 18.6637 15.3846 18.1539C15.3846 17.644 14.9713 17.2308 14.4615 17.2308C13.9517 17.2308 13.5385 17.644 13.5385 18.1539C13.5385 18.6637 13.9517 19.0769 14.4615 19.0769ZM12.3077 21.2308C12.3077 21.7406 11.8944 22.1538 11.3846 22.1538C10.8748 22.1538 10.4615 21.7406 10.4615 21.2308C10.4615 20.721 10.8748 20.3077 11.3846 20.3077C11.8944 20.3077 12.3077 20.721 12.3077 21.2308ZM14.4615 22.1538C14.9713 22.1538 15.3846 21.7406 15.3846 21.2308C15.3846 20.721 14.9713 20.3077 14.4615 20.3077C13.9517 20.3077 13.5385 20.721 13.5385 21.2308C13.5385 21.7406 13.9517 22.1538 14.4615 22.1538ZM18.4615 21.2308C18.4615 21.7406 18.0483 22.1538 17.5385 22.1538C17.0287 22.1538 16.6154 21.7406 16.6154 21.2308C16.6154 20.721 17.0287 20.3077 17.5385 20.3077C18.0483 20.3077 18.4615 20.721 18.4615 21.2308Z"/>
</svg>
