<svg width="24" height="24" viewBox="0 0 24 24" fill="none" xmlns="http://www.w3.org/2000/svg">
<path fill-rule="evenodd" clip-rule="evenodd" d="M5.28555 10.7937C4.95742 10.1703 4.2 9.91484 3.59375 10.2594C2.98789 10.6035 2.86992 11.2578 3.13008 11.9609L5.8125 18.5625C6.60508 20.4531 7.6875 22 11.125 22H11.75C12.9172 22 14.0123 21.7361 14.9497 21.2081C13.772 20.3965 13 19.0384 13 17.5C13 15.0147 15.0147 13 17.5 13C17.669 13 17.8358 13.0093 18 13.0275V6.6875C18.0047 6.14922 17.5672 5.75 17.0234 5.75C16.4797 5.75 16.0469 6.14414 16.0469 6.6875V11.5703C16.0469 11.6274 16.0355 11.684 16.0134 11.7367C15.9913 11.7893 15.9589 11.8371 15.9181 11.8771C15.8774 11.9171 15.829 11.9486 15.7759 11.9697C15.7229 11.9908 15.6661 12.0011 15.609 12C15.4948 11.9954 15.3869 11.9465 15.3082 11.8637C15.2295 11.7808 15.1862 11.6705 15.1875 11.5562V4.22656C15.1875 3.6832 14.7156 3.25 14.1719 3.25C13.6281 3.25 13.1563 3.64414 13.1563 4.1875V10.9453C13.1563 11.0024 13.1449 11.059 13.1228 11.1117C13.1007 11.1643 13.0683 11.2121 13.0275 11.2521C12.9867 11.2921 12.9384 11.3236 12.8853 11.3447C12.8322 11.3658 12.7755 11.3761 12.7184 11.375C12.6042 11.3704 12.4963 11.3215 12.4176 11.2387C12.3389 11.1558 12.2956 11.0455 12.2969 10.9312V2.9375C12.2969 2.39414 11.8586 2 11.3148 2C10.7711 2 10.3438 2.39414 10.3438 2.9375V10.9453C10.3438 11.0024 10.3324 11.059 10.3103 11.1117C10.2882 11.1643 10.2558 11.2121 10.215 11.2521C10.1742 11.2921 10.1259 11.3236 10.0728 11.3447C10.0197 11.3658 9.96298 11.3761 9.90586 11.375C9.79167 11.3704 9.68376 11.3215 9.60506 11.2387C9.52636 11.1558 9.48307 11.0455 9.48438 10.9312V4.8125C9.48438 4.26914 9.0125 3.875 8.46875 3.875C7.925 3.875 7.42305 4.26914 7.42305 4.8125V13.9703C7.42318 14.0251 7.40682 14.0787 7.37611 14.1242C7.34539 14.1696 7.30172 14.2047 7.25078 14.225C7.18649 14.2511 7.11468 14.2518 7.04991 14.2269C6.98514 14.202 6.93225 14.1534 6.90195 14.091L5.28555 10.7937Z" fill="#465269"/>
<path fill-rule="evenodd" clip-rule="evenodd" d="M15.1148 15.1148C15.7746 14.4549 16.5697 14.125 17.5 14.125C18.4303 14.125 19.2254 14.4549 19.8852 15.1148C20.5451 15.7746 20.875 16.5697 20.875 17.5C20.875 18.4303 20.5451 19.2254 19.8852 19.8852C19.2254 20.5451 18.4303 20.875 17.5 20.875C16.5697 20.875 15.7746 20.5451 15.1148 19.8852C14.4549 19.2254 14.125 18.4303 14.125 17.5C14.125 16.5697 14.4549 15.7746 15.1148 15.1148ZM18.8954 17.8407C19.0835 17.8407 19.2361 17.6882 19.2361 17.5C19.2361 17.3118 19.0835 17.1592 18.8954 17.1592H16.1045C15.9163 17.1592 15.7637 17.3118 15.7637 17.5C15.7637 17.6882 15.9163 17.8407 16.1045 17.8407H18.8954Z" fill="#B2110D"/>
</svg>
