<svg width="24" height="24" viewBox="0 0 24 24" xmlns="http://www.w3.org/2000/svg">
<path d="M18.2083 2C18.7083 2 19.1319 2.18601 19.4792 2.55803C19.8264 2.93006 20 3.38392 20 3.91964V20.0804C20 20.6161 19.8264 21.0699 19.4792 21.442C19.1319 21.814 18.7083 22 18.2083 22H5.79167C5.29166 22 4.86806 21.814 4.52083 21.442C4.17361 21.0699 4 20.6161 4 20.0804V3.91964C4 3.38392 4.17361 2.93006 4.52083 2.55803C4.86806 2.18601 5.29166 2 5.79167 2H18.2083ZM18.0417 20.0804C18.1528 20.0804 18.2083 20.0208 18.2083 19.9018V4.09822C18.2083 3.97917 18.1528 3.91965 18.0417 3.91965H5.95835C5.84723 3.91965 5.79168 3.97917 5.79168 4.09822V19.9018C5.79168 20.0208 5.84723 20.0804 5.95835 20.0804H18.0417ZM8.19998 12C7.6477 12 7.19998 12.4477 7.19998 13V17.6667C7.19998 18.219 7.6477 18.6667 8.19998 18.6667H15.8C16.3523 18.6667 16.8 18.219 16.8 17.6667V13C16.8 12.4477 16.3523 12 15.8 12H8.19998ZM8.19998 7.44446C7.6477 7.44446 7.19998 6.99674 7.19998 6.44446C7.19998 5.89217 7.6477 5.44446 8.19998 5.44446H15.8C16.3523 5.44446 16.8 5.89217 16.8 6.44446C16.8 6.99674 16.3523 7.44446 15.8 7.44446H8.19998ZM7.19998 9.88888C7.19998 10.4412 7.6477 10.8889 8.19998 10.8889H13.6666C14.2189 10.8889 14.6666 10.4412 14.6666 9.88888V9.66666C14.6666 9.11437 14.2189 8.66666 13.6666 8.66666H8.19998C7.6477 8.66666 7.19998 9.11437 7.19998 9.66666V9.88888Z"/>
</svg>
