<svg width="20" height="20" viewBox="0 0 20 20" fill="none" xmlns="http://www.w3.org/2000/svg">
<path fill-rule="evenodd" clip-rule="evenodd" d="M1.66602 10.0003C1.66602 5.39946 5.39849 1.66699 9.99935 1.66699C14.6002 1.66699 18.3327 5.39946 18.3327 10.0003C18.3327 14.6012 14.6002 18.3337 9.99935 18.3337C5.39849 18.3337 1.66602 14.6012 1.66602 10.0003ZM9.99935 3.33366C6.31896 3.33366 3.33268 6.31994 3.33268 10.0003C3.33268 13.6807 6.31896 16.667 9.99935 16.667C13.6797 16.667 16.666 13.6807 16.666 10.0003C16.666 6.31994 13.6797 3.33366 9.99935 3.33366Z" fill="#7E899A"/>
<path fill-rule="evenodd" clip-rule="evenodd" d="M3.85442 5.18295C4.14193 4.82357 4.66634 4.7653 5.02572 5.05281L16.2243 14.0116C16.5837 14.2992 16.6419 14.8236 16.3544 15.183C16.0669 15.5423 15.5425 15.6006 15.1831 15.3131L3.98457 6.35425C3.62518 6.06675 3.56691 5.54234 3.85442 5.18295Z" fill="#7E899A"/>
</svg>
