<svg width="24" height="24" viewBox="0 0 24 24" xmlns="http://www.w3.org/2000/svg">
<path clip-rule="evenodd" d="M20.5023 8.33633C19.9555 7.93086 19.2836 7.6332 18.5742 7.47266C18.4577 7.44645 18.3511 7.38766 18.2668 7.30314C18.1825 7.21861 18.124 7.11185 18.098 6.99531C17.7934 5.63789 17.1375 4.47383 16.1734 3.5918C15.0527 2.56484 13.5707 2 12 2C10.6191 2 9.34375 2.43281 8.31367 3.25195C7.61556 3.80799 7.05362 4.51609 6.6707 5.32227C6.62919 5.41047 6.56761 5.48775 6.4909 5.54791C6.41419 5.60807 6.32447 5.64945 6.22891 5.66875C5.18398 5.87969 4.24062 6.32773 3.52031 6.9625C2.52578 7.84141 2 9.00977 2 10.3438C2 11.6922 2.56602 12.9219 3.59336 13.8109C4.57461 14.6582 5.8957 15.125 7.3125 15.125H10.7632V10.6769C10.7632 10.3031 11.0931 10 11.5 10C11.9069 10 12.2368 10.3031 12.2368 10.6769V15.125H17.4688C18.693 15.125 19.809 14.7812 20.6113 14.1574C21.5199 13.4504 22 12.4387 22 11.2344C22 10.0648 21.482 9.06211 20.5023 8.33633Z"/>
<path clip-rule="evenodd" d="M10.7632 15V18.6888L9.25787 17.306C8.97011 17.0416 8.50357 17.0416 8.21582 17.306C7.92806 17.5703 7.92806 17.9989 8.21582 18.2633L10.979 20.8017C11.2667 21.0661 11.7333 21.0661 12.021 20.8017L14.7842 18.2633C15.0719 17.9989 15.0719 17.5703 14.7842 17.306C14.4964 17.0416 14.0299 17.0416 13.7421 17.306L12.2368 18.6888V15H10.7632Z"/>
</svg>
