<svg width="178" height="146" viewBox="0 0 178 146" fill="none" xmlns="http://www.w3.org/2000/svg">
<g clip-path="url(#clip0_1990_130230)">
<path d="M38.7106 65.3779C38.3835 65.5992 38.0515 65.8181 37.7139 66.032C30.7179 70.4677 21.5937 71.8397 14.4245 76.0619C5.67741 81.2139 0.211073 90.7601 0.876771 100.439C1.49546 109.435 9.15391 118.77 16.52 125.217C21.7084 129.758 27.7286 133.711 34.366 136.337C40.0089 138.57 47.1763 141.217 53.1938 141.682C62.4004 142.395 71.5598 140.313 78.7206 135.882C87.488 130.456 92.1658 121.993 99.3672 115.332C106.06 109.142 115.79 107.251 125.729 107.051C136.554 106.835 147.872 108.061 157.82 105.011C168.747 101.659 176.869 92.8768 177.987 82.6349C179.105 72.3918 172.945 61.1247 162.551 55.1241C156.404 51.5741 149.247 49.9108 142.675 47.0883C136.438 44.41 132.174 40.7766 128.725 35.5708C125.708 31.0185 125.03 25.8461 121.717 21.4124C116.792 14.8214 109.371 9.49715 101.074 6.62611C87.7041 1.99948 70.1514 3.08601 60.012 10.9782C54.3843 15.3577 51.1546 21.4263 50.6974 28.1992C50.2891 34.2574 51.212 40.4527 50.7094 46.4986C50.0489 54.4399 45.5304 60.7541 38.7106 65.3779Z" fill="#F4F9FF"/>
<path d="M117.489 111.265C111.855 112.724 107.023 115.874 102.834 119.603C100.041 122.09 97.0984 124.931 95.4656 128.404C92.8441 133.979 96.8057 137.606 102.843 135.673C107.959 134.035 111.53 129.879 116.161 127.366C120.058 125.251 124.675 124.334 129.403 124.322C131.607 124.316 133.874 124.499 135.936 123.988C141.652 122.574 141.502 115.394 135.675 112.618C130.078 109.951 122.742 109.905 117.489 111.265Z" fill="#F4F9FF"/>
<path d="M139.744 40.2306C143.175 42.3565 152.79 43.6638 156.058 41.6178C162.677 37.4718 146.983 28.9736 143.615 26.5498C138.488 22.8595 130.464 20.5408 132.483 29.0346C133.531 33.4457 135.172 37.3977 139.744 40.2306Z" fill="#F4F9FF"/>
<path d="M46.998 21.5002C46.998 20.1193 45.8787 19 44.4983 19C43.1179 19 41.998 20.1193 41.998 21.5002C41.998 22.8807 43.1179 24 44.4983 24C45.8787 24 46.998 22.8807 46.998 21.5002Z" fill="#F4F9FF"/>
<path d="M159 47.0002C159 45.8954 158.105 45 157 45C155.896 45 155 45.8954 155 47.0002C155 48.1046 155.896 49 157 49C158.105 49 159 48.1046 159 47.0002Z" fill="#F4F9FF"/>
<path d="M21.4175 68.9537C22.0604 68.0552 21.8531 66.8059 20.9549 66.1633C20.0568 65.5208 18.8072 65.7277 18.1644 66.6262C17.5218 67.5244 17.7294 68.7739 18.6275 69.4165C19.5256 70.059 20.7749 69.8519 21.4175 68.9537Z" fill="#F4F9FF"/>
<path d="M92 134.5C92 133.672 91.3284 133 90.5001 133C89.6719 133 89 133.672 89 134.5C89 135.328 89.6719 136 90.5001 136C91.3284 136 92 135.328 92 134.5Z" fill="#F4F9FF"/>
<path d="M162.311 49.7013C162.311 49.1489 161.863 48.7012 161.311 48.7012C160.758 48.7012 160.311 49.1489 160.311 49.7013C160.311 50.2535 160.758 50.7012 161.311 50.7012C161.863 50.7012 162.311 50.2535 162.311 49.7013Z" fill="#F4F9FF"/>
<path d="M26.5115 64.9778C26.8329 64.5286 26.7293 63.9039 26.2802 63.5826C25.8311 63.2614 25.2063 63.3648 24.8849 63.8141C24.5636 64.2632 24.6674 64.8879 25.1165 65.2092C25.5655 65.5305 26.1902 65.4269 26.5115 64.9778Z" fill="#F4F9FF"/>
<g clip-path="url(#clip1_1990_130230)">
<path d="M123.355 39.5638C122.969 38.5082 122.453 37.5845 121.292 37.0566C119.874 36.2649 118.069 36.2649 116.393 36.2649C109.43 36.2649 69.2006 36.2649 62.1089 36.2649C54.8883 36.2649 47.7966 35.737 40.5759 36.2649C39.1576 36.2649 37.6103 36.3968 36.4499 37.0566C34.7737 37.9803 34.3868 39.6958 34.129 41.2793C33.7421 44.3144 34.129 47.3494 34.129 50.2525C34.129 53.2875 34.129 56.3226 34.129 59.2257C34.129 69.7824 34.2579 64.2401 34.3868 74.7968C34.3868 78.2278 34.3868 81.6587 34.5158 85.0896C34.5158 88.2566 34.2579 91.5556 34.7737 94.7226C34.9026 95.7783 35.4183 96.8339 36.4499 97.4937C37.2235 98.0216 38.255 98.4174 39.4155 98.6814C43.4126 99.6051 48.1834 99.3412 52.3095 99.4731C58.4986 99.6051 64.6877 99.737 70.8768 99.737C76.0344 99.737 114.587 99.869 119.616 99.2092C124.774 98.5494 123.871 93.0071 124 89.8401C124.129 85.6174 124 79.6793 124 75.4566C124 68.7267 124 60.6772 124 55.2669C124 51.3082 123.871 47.3494 123.871 43.5226C123.742 42.5989 123.871 41.0154 123.355 39.5638Z" fill="#19468F"/>
<path d="M120.518 42.5976C120.26 41.6739 119.615 40.8821 118.584 40.3543C117.294 39.6945 115.618 39.6945 113.942 39.6945C107.366 39.6945 69.8445 39.6945 63.2686 39.6945C56.5637 39.6945 49.9878 39.2986 43.154 39.6945C41.8646 39.6945 40.4462 39.8265 39.2858 40.3543C37.7385 41.278 37.3517 42.7296 37.0938 44.1811C36.707 46.8203 37.0938 49.4594 37.0938 52.2306C37.0938 54.8698 37.0938 57.6409 37.0938 60.2801C37.0938 69.6491 37.2227 64.7667 37.3517 74.1357C37.3517 77.1708 37.3517 80.2058 37.4806 83.2409C37.4806 86.012 37.2227 89.0471 37.7385 91.8182C37.7385 92.7419 38.2543 93.6656 39.1568 94.3254C39.9305 94.8533 40.833 95.1172 41.8646 95.3811C45.6038 96.1729 50.1167 96.0409 53.9849 96.1729C59.7872 96.3048 65.5895 96.4368 71.3918 96.4368C76.2915 96.4368 112.137 96.5687 117.036 95.9089C121.936 95.3811 121.034 90.3667 121.163 87.5955C121.291 83.9007 121.163 78.6223 121.163 74.7955C121.163 68.8574 121.163 61.5997 121.163 56.8491C121.163 53.2863 121.034 49.8553 121.034 46.2924C120.905 45.2368 120.905 43.7852 120.518 42.5976Z" fill="#5F95EC"/>
<path d="M82.3533 50.7792C82.2244 50.2513 81.9665 49.7235 81.4507 49.3276C80.806 48.9318 79.9035 48.9317 79.1298 48.9317C75.9063 48.9317 57.0811 48.9317 53.7287 48.9317C50.3762 48.9317 47.0238 48.6678 43.6714 48.9317C43.0267 48.9317 42.253 49.0637 41.7373 49.4596C40.9636 49.9874 40.7057 50.9111 40.7057 51.8348C40.5768 53.5503 40.7057 55.1338 40.7057 56.8493C40.7057 58.5647 40.7057 60.1482 40.7057 61.8637C40.7057 67.6699 40.7057 64.6348 40.8347 70.441C40.8347 72.2885 40.8347 74.2678 40.8347 76.1153C40.8347 77.8307 40.7057 79.6781 40.9636 81.3936C41.0926 81.9214 41.3504 82.5812 41.7373 82.9771C41.9951 83.241 42.5109 83.373 43.0267 83.5049C44.8318 84.0328 47.1527 83.9008 49.0868 83.9008C51.9235 84.0328 54.8891 84.0328 57.8547 84.0328C60.3046 84.0328 78.2272 84.0328 80.6771 83.7689C83.1269 83.373 82.6112 80.3379 82.7401 78.6225C82.8691 76.2472 82.7401 73.0802 82.7401 70.7049C82.7401 67.0101 82.7401 62.5235 82.7401 59.4885C82.7401 57.2452 82.6112 55.1338 82.6112 53.0225C82.6112 52.3627 82.6112 51.5709 82.3533 50.7792Z" fill="white"/>
<path d="M40.834 81.1299V81.2618C40.9629 81.7897 41.2208 82.4495 41.6076 82.8453C41.9944 83.2412 42.5102 83.3732 43.026 83.5051C44.8311 84.033 47.152 83.901 49.0861 83.901C51.9228 84.033 54.8884 84.033 57.854 84.033C60.3039 84.033 78.2265 84.033 80.6764 83.7691C82.0947 83.5051 82.6105 82.4495 82.6105 81.1299H40.834Z" fill="#5B40C7"/>
<path d="M101.049 49.3277C101.049 49.1957 100.92 49.0638 100.662 48.9318C100.404 48.7999 100.146 48.7999 99.8881 48.7999C98.7277 48.7999 92.4096 48.7999 91.3781 48.7999C90.2176 48.7999 89.1861 48.6679 88.0257 48.7999C87.7678 48.7999 87.5099 48.7999 87.381 48.9318C87.1231 49.0638 86.9941 49.3277 86.9941 49.5916C86.9941 49.9875 86.9941 50.5153 86.9941 50.9112C86.9941 51.3071 86.9941 51.8349 86.9941 52.2308C86.9941 53.8143 86.9941 53.0225 86.9941 54.606C86.9941 55.1339 86.9941 55.6617 86.9941 56.1896C86.9941 56.7174 86.9941 57.1133 86.9941 57.6411C86.9941 57.7731 87.1231 57.905 87.252 58.037C87.381 58.1689 87.5099 58.1689 87.7678 58.1689C88.4125 58.3009 89.1861 58.3009 89.8308 58.3009C90.8623 58.3009 91.7649 58.3009 92.7964 58.3009C93.5701 58.3009 99.6303 58.3009 100.533 58.1689C101.306 58.037 101.178 57.2452 101.178 56.7174C101.178 56.0576 101.178 55.2658 101.178 54.606C101.178 53.5504 101.178 52.3627 101.178 51.571C101.178 51.0432 101.178 50.3834 101.178 49.8555C101.178 49.7236 101.178 49.5916 101.049 49.3277Z" fill="white"/>
<path d="M114.072 48.7999C113.943 48.668 113.814 48.668 113.686 48.668C112.267 48.668 110.849 48.668 109.431 48.668H106.207C105.304 48.668 104.402 48.668 103.37 48.668C103.241 48.668 102.984 48.668 102.855 48.668C102.726 48.668 102.726 48.668 102.597 48.668C102.597 48.668 102.468 48.7999 102.468 48.9319C102.468 49.0638 102.339 49.5917 102.597 49.7236H102.726C103.37 49.7236 104.144 49.7236 104.789 49.7236C105.562 49.7236 106.336 49.7236 107.239 49.7236H110.075C110.72 49.7236 111.494 49.7236 112.138 49.7236C112.525 49.7236 112.783 49.7236 113.17 49.7236C113.428 49.7236 113.686 49.7236 113.943 49.5917C114.072 49.4597 114.072 49.1958 114.072 49.0638C114.201 49.1958 114.201 48.9319 114.072 48.7999Z" fill="white"/>
<path d="M114.072 51.5714C113.943 51.4395 113.814 51.4395 113.686 51.4395C112.267 51.4395 110.849 51.4395 109.431 51.4395H106.207C105.304 51.4395 104.402 51.4395 103.37 51.4395C103.241 51.4395 102.984 51.4395 102.855 51.4395C102.726 51.4395 102.726 51.4395 102.597 51.4395C102.597 51.4395 102.468 51.5714 102.468 51.7034C102.468 51.8353 102.339 52.3632 102.597 52.4951H102.726C103.37 52.4951 104.144 52.4951 104.789 52.4951C105.562 52.4951 106.336 52.4951 107.239 52.4951C108.141 52.4951 109.173 52.4951 110.075 52.4951C110.72 52.4951 111.494 52.4951 112.138 52.4951C112.525 52.4951 112.783 52.4951 113.17 52.4951C113.428 52.4951 113.686 52.4951 113.943 52.3632C114.072 52.2312 114.072 51.9673 114.072 51.8353C114.201 51.8353 114.201 51.7034 114.072 51.5714Z" fill="white"/>
<path d="M109.043 54.2101C109.043 54.0781 108.914 54.0781 108.785 54.0781C108.012 54.0781 107.238 54.0781 106.465 54.0781C105.82 54.0781 105.175 54.0781 104.659 54.0781C104.144 54.0781 103.628 54.0781 103.112 54.0781C102.983 54.0781 102.854 54.0781 102.854 54.0781H102.725C102.725 54.0781 102.725 54.2101 102.725 54.342C102.725 54.474 102.596 55.0018 102.725 55.1338H102.854C103.241 55.1338 103.628 55.1338 104.015 55.1338C104.401 55.1338 104.917 55.1338 105.304 55.1338H106.98C107.367 55.1338 107.754 55.1338 108.141 55.1338C108.27 55.1338 108.528 55.1338 108.657 55.1338C108.785 55.1338 108.914 55.1338 109.043 55.0018C109.172 54.8699 109.172 54.606 109.172 54.474C109.043 54.606 109.172 54.342 109.043 54.2101Z" fill="white"/>
<path d="M101.049 65.5591C101.049 65.4272 100.92 65.2952 100.662 65.1633C100.404 65.0313 100.146 65.0313 99.8881 65.0313C98.7277 65.0313 92.4096 65.0313 91.3781 65.0313C90.2176 65.0313 89.1861 64.8993 88.0257 65.0313C87.7678 65.0313 87.5099 65.0313 87.381 65.1633C87.1231 65.2952 86.9941 65.5591 86.9941 65.8231C86.9941 66.2189 86.9941 66.7468 86.9941 67.1426C86.9941 67.5385 86.9941 68.0664 86.9941 68.4622C86.9941 70.0457 86.9941 69.254 86.9941 70.8375C86.9941 71.3653 86.9941 71.8932 86.9941 72.421C86.9941 72.9488 86.9941 73.3447 86.9941 73.8725C86.9941 74.0045 87.1231 74.1365 87.252 74.2684C87.381 74.4004 87.5099 74.4004 87.7678 74.4004C88.4125 74.5323 89.1861 74.5323 89.8308 74.5323C90.8623 74.5323 91.7649 74.5323 92.7964 74.5323C93.5701 74.5323 99.6303 74.5323 100.533 74.4004C101.306 74.2684 101.178 73.4767 101.178 72.9488C101.178 72.289 101.178 71.4973 101.178 70.8375C101.178 69.7818 101.178 68.5942 101.178 67.8024C101.178 67.2746 101.178 66.6148 101.178 66.087C101.178 66.087 101.178 65.8231 101.049 65.5591Z" fill="white"/>
<path d="M114.072 65.1632C114.072 65.0313 113.943 65.0312 113.814 65.0312C112.396 65.0312 110.978 65.0312 109.559 65.0312H106.207C105.304 65.0312 104.402 65.0312 103.37 65.0312C103.241 65.0312 102.984 65.0312 102.855 65.0312C102.726 65.0312 102.726 65.0312 102.597 65.0312C102.597 65.0312 102.468 65.1632 102.468 65.2952C102.468 65.4271 102.339 65.955 102.597 66.0869H102.726C103.37 66.0869 104.144 66.0869 104.789 66.0869C105.562 66.0869 106.336 66.0869 107.239 66.0869C108.141 66.0869 109.173 66.0869 110.075 66.0869C110.72 66.0869 111.494 66.0869 112.138 66.0869C112.525 66.0869 112.783 66.0869 113.17 66.0869C113.428 66.0869 113.686 66.0869 113.943 65.955C114.072 65.823 114.072 65.5591 114.072 65.4271C114.201 65.4271 114.201 65.2952 114.072 65.1632Z" fill="white"/>
<path d="M110.977 67.8019C110.977 67.6699 110.849 67.6699 110.72 67.6699C109.688 67.6699 108.657 67.6699 107.625 67.6699C106.851 67.6699 105.949 67.6699 105.175 67.6699C104.53 67.6699 103.886 67.6699 103.112 67.6699C102.983 67.6699 102.854 67.6699 102.725 67.6699H102.596C102.596 67.6699 102.596 67.8019 102.596 67.9338C102.596 68.0658 102.467 68.5936 102.596 68.7256H102.725C103.241 68.7256 103.757 68.7256 104.273 68.7256C104.917 68.7256 105.433 68.7256 106.078 68.7256H108.141C108.657 68.7256 109.172 68.7256 109.688 68.7256C109.946 68.7256 110.204 68.7256 110.462 68.7256C110.591 68.7256 110.849 68.7256 110.977 68.5936C111.106 68.4617 111.106 68.1978 111.106 68.0658C111.106 68.1978 111.106 67.9338 110.977 67.8019Z" fill="white"/>
<path d="M109.043 70.5734C109.043 70.4414 108.914 70.4414 108.785 70.4414C108.012 70.4414 107.238 70.4414 106.465 70.4414C105.82 70.4414 105.175 70.4414 104.659 70.4414C104.144 70.4414 103.628 70.4414 103.112 70.4414C102.983 70.4414 102.854 70.4414 102.854 70.4414H102.725C102.725 70.4414 102.725 70.5734 102.725 70.7053C102.725 70.8373 102.596 71.3651 102.725 71.4971H102.854C103.241 71.4971 103.628 71.4971 104.015 71.4971C104.401 71.4971 104.917 71.4971 105.304 71.4971C105.82 71.4971 106.336 71.4971 106.98 71.4971C107.367 71.4971 107.754 71.4971 108.141 71.4971C108.27 71.4971 108.528 71.4971 108.657 71.4971C108.785 71.4971 108.914 71.4971 109.043 71.3651C109.172 71.2332 109.172 70.9692 109.172 70.8373C109.043 70.8373 109.172 70.7053 109.043 70.5734Z" fill="white"/>
<path d="M101.049 80.8658C101.049 80.7338 100.92 80.6019 100.662 80.4699C100.404 80.3379 100.146 80.3379 99.8881 80.3379C98.7277 80.3379 92.4096 80.3379 91.3781 80.3379C90.2176 80.3379 89.1861 80.206 88.0257 80.3379C87.7678 80.3379 87.5099 80.3379 87.381 80.4699C87.1231 80.6019 86.9941 80.8658 86.9941 81.1297C86.9941 81.5256 86.9941 82.0534 86.9941 82.4493C86.9941 82.8452 86.9941 83.373 86.9941 83.7689C86.9941 85.3524 86.9941 84.5606 86.9941 86.1441C86.9941 86.672 86.9941 87.1998 86.9941 87.7276C86.9941 88.2555 86.9941 88.6513 86.9941 89.1792C86.9941 89.3111 87.1231 89.4431 87.252 89.5751C87.381 89.707 87.5099 89.707 87.7678 89.707C88.4125 89.839 89.1861 89.839 89.8308 89.839C90.8623 89.839 91.7649 89.839 92.7964 89.839C93.5701 89.839 99.6303 89.839 100.533 89.707C101.306 89.5751 101.178 88.7833 101.178 88.2555C101.178 87.5957 101.178 86.8039 101.178 86.1441C101.178 85.0885 101.178 83.9008 101.178 83.1091C101.178 82.5812 101.178 81.9215 101.178 81.3936C101.178 81.2617 101.178 80.9977 101.049 80.8658Z" fill="white"/>
<path d="M114.072 80.338C113.943 80.2061 113.814 80.2061 113.686 80.2061C112.267 80.2061 110.849 80.2061 109.431 80.2061H106.207C105.304 80.2061 104.402 80.2061 103.37 80.2061C103.241 80.2061 102.984 80.2061 102.855 80.2061C102.726 80.2061 102.726 80.2061 102.597 80.2061C102.597 80.2061 102.468 80.338 102.468 80.47C102.468 80.6019 102.339 81.1298 102.597 81.2617H102.726C103.37 81.2617 104.144 81.2617 104.789 81.2617C105.562 81.2617 106.336 81.2617 107.239 81.2617C108.141 81.2617 109.173 81.2617 110.075 81.2617C110.72 81.2617 111.494 81.2617 112.138 81.2617C112.525 81.2617 112.783 81.2617 113.17 81.2617C113.428 81.2617 113.686 81.2617 113.943 81.1298C114.072 80.9978 114.072 80.7339 114.072 80.6019C114.201 80.7339 114.201 80.47 114.072 80.338Z" fill="white"/>
<path d="M114.072 83.1095C113.943 82.9775 113.815 82.9775 113.686 82.9775C112.267 82.9775 110.849 82.9775 109.431 82.9775C108.27 82.9775 107.239 82.9775 106.078 82.9775C105.176 82.9775 104.273 82.9775 103.241 82.9775C103.113 82.9775 102.855 82.9775 102.726 82.9775C102.597 82.9775 102.597 82.9775 102.468 82.9775C102.468 82.9775 102.339 83.1095 102.339 83.2415C102.339 83.3734 102.21 83.9013 102.468 84.0332H102.597C103.241 84.0332 104.015 84.0332 104.66 84.0332C105.433 84.0332 106.207 84.0332 107.11 84.0332H109.946C110.591 84.0332 111.365 84.0332 112.009 84.0332C112.396 84.0332 112.654 84.0332 113.041 84.0332C113.299 84.0332 113.557 84.0332 113.815 83.9013C113.943 83.7693 113.943 83.5054 113.943 83.3734C114.201 83.3734 114.201 83.2415 114.072 83.1095Z" fill="white"/>
</g>
<path d="M150.493 57.0311C149.261 54.9687 146.554 53.5284 144.653 55.2175C143.397 56.3339 143.28 58.2756 144.399 59.5344L145.836 61.1509C146.952 62.407 148.894 62.5239 150.153 61.405C151.494 60.2083 151.35 58.4686 150.493 57.0311Z" fill="#5B40C7"/>
<path d="M111.035 90.6949L111.032 90.6922C110.947 90.5966 111.054 90.3312 111.079 90.255C111.079 90.255 111.631 89.1437 112.017 88.3902C112.447 87.5486 113.285 87.1011 114.047 87.9585L114.074 87.9886C114.848 88.8596 114.297 89.6138 113.429 89.9794C112.917 90.195 111.472 90.6974 111.472 90.6974C111.396 90.7162 111.12 90.7905 111.035 90.6949Z" fill="#463099"/>
<path d="M119.558 88.695L146.217 65.0008C146.894 64.3989 146.956 63.3519 146.354 62.6747L142.995 58.8956C142.393 58.2184 141.346 58.1567 140.669 58.7586L114.01 82.4529L119.558 88.695Z" fill="#463099"/>
<path d="M113.245 90.053L111.92 88.5621C111.886 88.5238 112.086 88.0724 112.104 88.0269C112.257 87.583 112.408 87.1365 112.564 86.6902C112.879 85.7643 113.198 84.8359 113.514 83.91C113.633 83.5651 113.948 82.5227 114.03 82.4395C114.234 82.2341 114.833 82.1659 115.093 82.2227C115.51 82.3067 115.996 82.7209 116.085 83.1402C116.154 83.4548 116.124 83.7997 115.665 84.3006C116.004 84.1601 116.36 84.0983 116.69 84.1074C117.362 84.1314 118.101 84.9745 117.999 85.662C117.947 86.0212 117.879 86.2035 117.711 86.5042C118.05 86.3352 118.351 86.1796 118.826 86.3292C119.304 86.4764 119.832 87.0871 119.922 87.5789C119.993 87.966 119.935 88.5449 119.561 88.7014C119.432 88.743 114.653 89.7503 113.245 90.053Z" fill="#F4F9FF"/>
<path d="M150.15 61.4L144.653 55.2152C144.427 54.9612 144.033 54.9354 143.776 55.1636L140.532 58.0468C140.278 58.2725 140.252 58.6669 140.48 58.9236L145.977 65.1084C146.203 65.3623 146.598 65.3881 146.854 65.16L150.098 62.2768C150.352 62.0459 150.376 61.6539 150.15 61.4Z" fill="#D5CBFD"/>
</g>
<defs>
<clipPath id="clip0_1990_130230">
<rect width="178" height="146" fill="white"/>
</clipPath>
<clipPath id="clip1_1990_130230">
<rect width="90" height="64" fill="white" transform="translate(34 36)"/>
</clipPath>
</defs>
</svg>
