<svg width="200" height="146" viewBox="0 0 200 146" fill="none" xmlns="http://www.w3.org/2000/svg">
<g clip-path="url(#clip0_1442_53740)">
<path d="M44.712 65.378C44.385 65.5994 44.053 65.8183 43.7153 66.0322C36.7193 70.4679 27.5952 71.8399 20.4259 76.062C11.6789 81.214 6.21254 90.7603 6.87824 100.439C7.49692 109.435 15.1554 118.77 22.5214 125.217C27.7099 129.758 33.73 133.711 40.3675 136.337C46.0104 138.57 53.1778 141.217 59.1953 141.683C68.4019 142.395 77.5612 140.314 84.722 135.882C93.4894 130.457 98.1672 121.993 105.369 115.332C112.062 109.142 121.792 107.251 131.73 107.052C142.555 106.835 153.874 108.061 163.821 105.011C174.748 101.66 182.871 92.877 183.988 82.6351C185.106 72.392 178.947 61.1248 168.553 55.1243C162.405 51.5743 155.248 49.9109 148.676 47.0884C142.44 44.4102 138.176 40.7768 134.726 35.5709C131.71 31.0187 131.032 25.8463 127.718 21.4125C122.793 14.8216 115.373 9.4973 107.076 6.62626C93.7055 1.99964 76.1529 3.08616 66.0134 10.9784C60.3857 15.3578 57.1561 21.4264 56.6989 28.1993C56.2906 34.2576 57.2135 40.4529 56.7109 46.4988C56.0504 54.44 51.5319 60.7542 44.712 65.378Z" fill="#F4F9FF"/>
<path d="M123.489 111.264C117.855 112.723 113.023 115.873 108.834 119.602C106.041 122.089 103.098 124.931 101.465 128.403C98.8437 133.979 102.805 137.605 108.843 135.672C113.959 134.035 117.529 129.878 122.161 127.365C126.058 125.25 130.674 124.333 135.403 124.321C137.606 124.316 139.874 124.498 141.936 123.988C147.652 122.573 147.501 115.393 141.675 112.617C136.077 109.95 128.742 109.904 123.489 111.264Z" fill="#F4F9FF"/>
<path d="M145.744 40.2306C149.175 42.3565 158.79 43.6638 162.058 41.6178C168.678 37.4718 152.984 28.9736 149.615 26.5498C144.488 22.8595 136.464 20.5408 138.483 29.0346C139.532 33.4457 141.173 37.3977 145.744 40.2306Z" fill="#F4F9FF"/>
<path d="M52.2705 38.637C52.2705 37.256 51.1511 36.1367 49.7707 36.1367C48.3903 36.1367 47.2705 37.256 47.2705 38.637C47.2705 40.0175 48.3903 41.1367 49.7707 41.1367C51.1511 41.1367 52.2705 40.0175 52.2705 38.637Z" fill="#F4F9FF"/>
<path d="M165 47.0002C165 45.8955 164.105 45.0001 163 45.0001C161.896 45.0001 161 45.8955 161 47.0002C161 48.1046 161.896 49.0001 163 49.0001C164.105 49.0001 165 48.1046 165 47.0002Z" fill="#F4F9FF"/>
<path d="M21 71.0002C21 69.8955 20.1045 69.0001 19.0002 69.0001C17.8959 69.0001 17 69.8955 17 71.0002C17 72.1046 17.8959 73.0001 19.0002 73.0001C20.1045 73.0001 21 72.1046 21 71.0002Z" fill="#F4F9FF"/>
<path d="M98 134.5C98 133.672 97.3284 133 96.5001 133C95.6719 133 95 133.672 95 134.5C95 135.328 95.6719 136 96.5001 136C97.3284 136 98 135.328 98 134.5Z" fill="#F4F9FF"/>
<path d="M168.31 49.7008C168.31 49.1484 167.863 48.7007 167.31 48.7007C166.758 48.7007 166.31 49.1484 166.31 49.7008C166.31 50.253 166.758 50.7007 167.31 50.7007C167.863 50.7007 168.31 50.253 168.31 49.7008Z" fill="#F4F9FF"/>
<path d="M24 63.0001C24 62.4478 23.5523 62.0001 23.0001 62.0001C22.4479 62.0001 22 62.4478 22 63.0001C22 63.5523 22.4479 64.0001 23.0001 64.0001C23.5523 64.0001 24 63.5523 24 63.0001Z" fill="#F4F9FF"/>
<path d="M12.0112 35.4785C26.0033 38.6822 47.1178 44.6775 59.8867 50.4141C49.7825 58.2494 42.3481 64.8518 33.591 76.4034C30.8257 67.7236 12.7529 35.609 12.0112 35.4785Z" fill="#D5CBFD"/>
<path d="M50.4364 71.3778C47.7748 70.494 43.852 68.6398 40.9904 67.4232C42.728 65.4034 44.5803 63.6379 46.6826 61.3431C39.0275 54.096 30.4868 47.614 21.2644 42.052C23.354 43.313 25.7147 44.2809 27.9377 45.3327C31.5931 47.063 50.412 57.8358 50.532 58.0529C50.6847 58.3292 50.3024 63.0966 50.4127 65.1698C50.4394 65.6914 50.5572 71.4191 50.4364 71.3778Z" fill="#463099"/>
<path d="M48.9586 75.2856C48.9586 75.2856 48.6228 75.8081 48.2863 76.3305C47.9818 76.8664 47.6771 77.4023 47.6771 77.4023L47.6755 77.4062C47.6512 77.4487 47.5939 77.4658 47.5463 77.4424C47.4998 77.4203 47.4815 77.3692 47.5043 77.3266L47.5075 77.3214C47.5075 77.3214 47.8572 76.8023 48.2054 76.2843C48.5832 75.785 48.9586 75.2856 48.9586 75.2856Z" fill="#DADDE2"/>
<path d="M46.0355 81.9921C46.0355 81.9921 45.9949 82.2972 45.9352 82.7535C45.9193 82.8692 45.9015 82.9927 45.8841 83.1229C45.8601 83.2554 45.8619 83.3891 45.8574 83.5278C45.8478 83.8053 45.8373 84.1012 45.8284 84.3985C45.825 84.5452 45.8444 84.697 45.8517 84.8429C45.8609 84.9902 45.8718 85.1336 45.8814 85.2743C45.8925 85.4138 45.8949 85.5502 45.9126 85.6768C45.9347 85.8036 45.9557 85.9237 45.975 86.0331C46.051 86.4747 46.1021 86.7696 46.1021 86.7696L46.1078 86.8069C46.146 87.0311 45.9758 87.2386 45.7295 87.2718C45.4816 87.3049 45.2487 87.1483 45.2105 86.9241L45.207 86.9015C45.207 86.9015 45.174 86.5849 45.1233 86.1128C45.1111 85.9944 45.0972 85.8654 45.0821 85.7297C45.0731 85.5943 45.0792 85.4503 45.0759 85.3033C45.0763 85.1551 45.0761 85.0029 45.0747 84.8467C45.0785 84.6908 45.068 84.5354 45.0802 84.3759C45.1123 84.0599 45.1446 83.7438 45.1736 83.4462C45.1926 83.1454 45.264 82.8894 45.3061 82.6612C45.4012 82.2092 45.4638 81.9079 45.4638 81.9079C45.4943 81.7664 45.6456 81.6757 45.803 81.7031C45.9522 81.7301 46.0538 81.858 46.0355 81.9921Z" fill="#463099"/>
<path d="M48.0581 91.1385C48.0581 91.1385 48.2508 91.3939 48.538 91.7768C48.609 91.8728 48.6864 91.9771 48.7688 92.0869C48.8503 92.1966 48.9436 92.2924 49.0369 92.4027C49.2247 92.6181 49.426 92.8461 49.6258 93.0753C49.8465 93.2976 50.0682 93.5186 50.2741 93.7269C50.3805 93.8286 50.4734 93.9336 50.5791 94.0207C50.6809 94.1103 50.7769 94.1956 50.8652 94.2739C51.2204 94.5856 51.456 94.7946 51.456 94.7946L51.4887 94.8233C51.7862 95.0864 51.7939 95.516 51.5067 95.7823C51.218 96.0493 50.743 96.052 50.4441 95.7892L50.4184 95.7652C50.4184 95.7652 50.1788 95.5326 49.8173 95.1824C49.7279 95.0947 49.6294 94.9999 49.5266 94.8996C49.4208 94.8023 49.3247 94.685 49.219 94.5703C49.0089 94.3386 48.7849 94.0911 48.5616 93.8448C48.3493 93.5833 48.1433 93.314 47.9482 93.0665C47.8547 92.943 47.7513 92.8229 47.676 92.7095C47.5997 92.5947 47.5277 92.488 47.4613 92.3882C47.1999 91.992 47.024 91.7268 47.024 91.7268C46.8498 91.4618 46.9448 91.1223 47.2355 90.9668C47.5149 90.8174 47.8769 90.8956 48.0581 91.1385Z" fill="#463099"/>
<path d="M55.6831 97.6198C55.6831 97.6198 56.8828 98.2094 58.0823 98.7986C59.2767 99.2777 60.4727 99.7577 60.4727 99.7577L60.5418 99.7857C61.0548 99.9912 61.2909 100.534 61.0685 100.995C60.8446 101.457 60.247 101.665 59.7333 101.459C59.7201 101.454 59.7027 101.446 59.6889 101.44C59.6889 101.44 58.4161 100.861 57.1455 100.283C55.9789 99.6407 54.8116 98.9992 54.8116 98.9992C54.3931 98.7691 54.2563 98.278 54.5073 97.9015C54.7502 97.5379 55.2665 97.4152 55.6803 97.6172L55.6831 97.6198Z" fill="#463099"/>
<path d="M65.4819 101.224C65.4819 101.224 66.8147 101.477 68.149 101.73C69.4339 101.886 70.7201 102.042 70.7201 102.042L70.8072 102.053C71.477 102.134 71.9533 102.69 71.8694 103.295C71.7872 103.899 71.1749 104.322 70.506 104.241C70.4919 104.24 70.4714 104.237 70.458 104.235C70.458 104.235 69.051 104.012 67.6455 103.79C66.3229 103.491 65.0006 103.191 65.0006 103.191C64.3994 103.056 64.0295 102.507 64.1748 101.966C64.3158 101.439 64.8952 101.113 65.4819 101.224Z" fill="#463099"/>
<path d="M75.9014 102.127C75.9014 102.127 76.2388 102.098 76.7461 102.056C76.9972 102.033 77.3088 102.017 77.5897 101.972C77.8824 101.934 78.1916 101.894 78.5036 101.853C78.8174 101.805 79.1363 101.746 79.4309 101.697C79.7283 101.651 80.0004 101.592 80.2337 101.538C80.7 101.435 81.0135 101.367 81.0135 101.367L81.0816 101.352C81.8381 101.185 82.6074 101.606 82.8001 102.292C82.9928 102.978 82.5339 103.67 81.7767 103.836L81.7392 103.843C81.7392 103.843 81.3894 103.912 80.8638 104.014C80.6016 104.068 80.2956 104.124 79.964 104.168C79.6324 104.215 79.2825 104.271 78.9257 104.316C78.5621 104.351 78.1991 104.385 77.8586 104.418C77.5096 104.456 77.226 104.461 76.9678 104.475C76.4593 104.499 76.1195 104.515 76.1195 104.515C75.3886 104.551 74.7578 104.045 74.7121 103.384C74.6666 102.74 75.1968 102.186 75.9014 102.127Z" fill="#463099"/>
<path d="M85.7275 99.6984C85.7275 99.6984 86.0224 99.5497 86.467 99.3257C86.5772 99.2701 86.6974 99.2091 86.8237 99.1458C86.9573 99.0813 87.0621 99.0126 87.1895 98.9423C87.4365 98.8034 87.6973 98.653 87.9612 98.5044C88.4847 98.1693 89.0198 97.8513 89.3958 97.576C89.7794 97.3104 90.0342 97.1338 90.0342 97.1338L90.0848 97.099C90.7676 96.6262 91.7514 96.747 92.281 97.3684C92.8106 97.99 92.6858 98.8766 92.0038 99.3495L91.97 99.3719C91.97 99.3719 91.6829 99.5605 91.2501 99.8427C90.8268 100.134 90.2215 100.476 89.6272 100.831C89.312 101 88.9955 101.168 88.6985 101.326C88.5539 101.402 88.4015 101.488 88.2772 101.545C88.1474 101.605 88.0252 101.663 87.9129 101.716C87.4635 101.929 87.163 102.07 87.163 102.07C86.4351 102.412 85.5341 102.156 85.1475 101.497C84.7674 100.848 85.0296 100.051 85.7275 99.6984Z" fill="#463099"/>
<path d="M93.7988 93.9635C93.7988 93.9635 94.7015 93.0526 95.6041 92.1417C96.4339 91.234 97.2644 90.325 97.2644 90.325L97.2989 90.2869C97.8962 89.6327 98.9739 89.5453 99.7029 90.0909C100.433 90.638 100.541 91.6104 99.9424 92.2646L99.9173 92.2938C99.9173 92.2938 98.9982 93.2516 98.0786 94.2093C97.1482 95.0977 96.217 95.9847 96.217 95.9847C95.5967 96.5756 94.5594 96.5961 93.8989 96.0299C93.2504 95.4749 93.208 94.5598 93.7935 93.9672L93.7988 93.9635Z" fill="#463099"/>
<path d="M100.945 85.269C100.945 85.269 101.786 84.3696 102.625 83.4688C103.616 82.5734 104.606 81.677 104.606 81.677C105.295 81.0563 106.43 81.1389 107.143 81.862C107.85 82.5788 107.877 83.6568 107.209 84.2805L107.109 84.3722C107.109 84.3722 106.28 85.1446 105.45 85.9167C104.628 86.8321 103.806 87.7472 103.806 87.7472C103.173 88.4518 102.017 88.4739 101.221 87.7957C100.425 87.1161 100.294 85.9956 100.926 85.2911L100.945 85.269Z" fill="#463099"/>
<path d="M108.953 78.6682C108.953 78.6682 110.061 78.0795 111.169 77.4914C112.401 76.9468 113.634 76.401 113.634 76.401C114.457 76.0378 115.496 76.4166 115.954 77.2464C116.407 78.0698 116.12 79.0274 115.314 79.3991L115.21 79.4478C115.21 79.4478 114.143 79.9381 113.076 80.4285C111.983 81.0357 110.887 81.6432 110.887 81.6432C110.084 82.0886 108.996 81.7866 108.455 80.9694C107.914 80.1517 108.127 79.1283 108.928 78.6824L108.953 78.6682Z" fill="#463099"/>
<path d="M118.726 74.7735C118.726 74.7735 119.986 74.5085 121.246 74.2437C122.603 74.0492 123.961 73.8541 123.961 73.8541C124.818 73.7322 125.682 74.3138 125.892 75.1545C126.097 75.9799 125.593 76.7485 124.761 76.8904L124.66 76.9078C124.66 76.9078 123.459 77.1109 122.259 77.3139C121.008 77.6059 119.758 77.8969 119.758 77.8969C118.887 78.0991 117.944 77.5668 117.65 76.7067C117.355 75.8458 117.823 74.9839 118.692 74.7816L118.726 74.7735Z" fill="#463099"/>
<path d="M129.424 73.5932C129.424 73.5932 130.743 73.6494 132.063 73.7052C133.453 73.8467 134.842 73.987 134.842 73.987C135.644 74.069 136.286 74.7561 136.276 75.5232C136.268 76.2774 135.633 76.827 134.85 76.7679L134.754 76.7612C134.754 76.7612 133.503 76.6656 132.253 76.5695C130.936 76.5481 129.62 76.528 129.62 76.528C128.781 76.5154 128.046 75.8458 127.981 75.0355C127.914 74.2245 128.542 73.5785 129.382 73.5917L129.424 73.5932Z" fill="#463099"/>
<path d="M140.331 75.0617C140.331 75.0617 141.623 75.441 142.915 75.8198C144.252 76.3087 145.587 76.7977 145.587 76.7977C146.274 77.0485 146.67 77.7696 146.472 78.4097C146.279 79.0344 145.592 79.3492 144.921 79.129L144.828 79.0984C144.828 79.0984 143.613 78.6968 142.397 78.2966C141.097 77.9508 139.797 77.6057 139.797 77.6057C139.049 77.4073 138.552 76.6729 138.689 75.9685C138.825 75.2627 139.544 74.8527 140.293 75.0511L140.331 75.0617Z" fill="#463099"/>
<path d="M150.614 79.3907L155.222 82.2832L155.232 82.2893C155.758 82.6202 155.944 83.2729 155.651 83.7496C155.364 84.2153 154.722 84.3383 154.202 84.0379L149.5 81.3086L149.489 81.3022C148.902 80.9628 148.671 80.2533 148.969 79.718C149.269 79.184 149.986 79.0254 150.573 79.3666C150.585 79.3731 150.601 79.3832 150.614 79.3907Z" fill="#463099"/>
<path d="M159.796 85.1726L164.455 87.9777L164.46 87.9806C164.879 88.2334 165.038 88.7478 164.815 89.1303C164.597 89.5016 164.098 89.6098 163.685 89.3852L158.912 86.7859L158.907 86.7826C158.414 86.5144 158.203 85.9306 158.437 85.4794C158.671 85.0269 159.261 84.8787 159.755 85.1474C159.767 85.1547 159.783 85.1639 159.796 85.1726Z" fill="#463099"/>
<path d="M169.165 90.4971C169.165 90.4971 170.399 91.063 171.632 91.6273C171.939 91.7555 172.245 91.8668 172.532 91.9798C172.821 92.0909 173.089 92.1942 173.32 92.2834C173.781 92.4636 174.088 92.5837 174.088 92.5837L174.137 92.6023C174.451 92.7251 174.628 93.0641 174.529 93.3571C174.434 93.6401 174.116 93.7766 173.811 93.677C173.811 93.677 173.483 93.5678 172.991 93.4061C172.745 93.3223 172.457 93.2255 172.149 93.1227C171.843 93.0173 171.509 92.9114 171.186 92.7938C169.931 92.2853 168.677 91.7767 168.677 91.7767L168.675 91.776C168.29 91.6191 168.08 91.2045 168.206 90.847C168.333 90.4898 168.747 90.3272 169.131 90.483L169.165 90.4971Z" fill="#463099"/>
<path d="M179.15 93.7106C179.15 93.7106 179.233 93.7138 179.377 93.7171C179.517 93.7173 179.736 93.7349 179.965 93.7253C180.195 93.7137 180.464 93.718 180.754 93.6783C180.898 93.6598 181.051 93.6547 181.199 93.6238C181.348 93.5964 181.5 93.5691 181.65 93.5401C181.802 93.5089 181.945 93.4619 182.091 93.4241C182.239 93.3905 182.375 93.3394 182.507 93.2867C182.639 93.2347 182.772 93.1943 182.887 93.1377C183.003 93.0809 183.112 93.0274 183.212 92.9777C183.42 92.8858 183.565 92.7697 183.681 92.7065C183.792 92.6376 183.857 92.5995 183.857 92.5995L183.879 92.5854C184.004 92.5084 184.181 92.5505 184.272 92.678C184.359 92.8005 184.339 92.959 184.23 93.0396C184.23 93.0396 184.165 93.0871 184.05 93.1707C183.93 93.247 183.781 93.3874 183.563 93.5015C183.456 93.5627 183.341 93.6284 183.219 93.6979C183.095 93.7667 182.956 93.8216 182.815 93.8865C182.675 93.9527 182.527 94.0156 182.37 94.0641C182.215 94.1155 182.058 94.1756 181.898 94.22C181.735 94.2609 181.572 94.301 181.412 94.3414C181.252 94.3833 181.089 94.4 180.933 94.4292C180.624 94.4897 180.318 94.5046 180.06 94.5313C179.802 94.5547 179.607 94.5489 179.46 94.557C179.318 94.562 179.235 94.5627 179.235 94.5627C178.992 94.5708 178.77 94.3859 178.739 94.1508C178.708 93.9151 178.88 93.7181 179.124 93.7108L179.15 93.7106Z" fill="#463099"/>
</g>
<defs>
<clipPath id="clip0_1442_53740">
<rect width="200" height="146" fill="white"/>
</clipPath>
</defs>
</svg>
