<svg width="24" height="24" fill="none" xmlns="http://www.w3.org/2000/svg"><g clip-path="url(#a)" fill-rule="evenodd" clip-rule="evenodd" fill="#7E899A"><path d="M17.143 7.484a1 1 0 0 1 .123 1.41l-6.3 7.5a1 1 0 0 1-1.51.025l-2.7-3a1 1 0 0 1 1.487-1.338l1.931 2.145 5.56-6.62a1 1 0 0 1 1.41-.122Z"/><path d="M15.982 2.823a10.47 10.47 0 0 1 3.438 2.248c.984.968 1.762 2.12 2.286 3.386l.01.023.523 1.473a1 1 0 1 1-1.884.67l-.506-1.425a8.247 8.247 0 0 0-1.831-2.7 8.47 8.47 0 0 0-2.782-1.82h-.002C10.978 2.963 6.22 4.938 4.58 9.01c-1.64 4.072.418 8.794 4.675 10.509m6.727-16.696c-5.23-2.107-11.184.294-13.257 5.44-2.074 5.146.552 11.003 5.782 13.11 1.963.792 4.118.973 6.17.517a10.036 10.036 0 0 0 5.293-3.075 1 1 0 1 0-1.487-1.337 8.036 8.036 0 0 1-4.24 2.46 8.456 8.456 0 0 1-4.988-.42"/><path d="M20.398 20.824a1 1 0 0 1-1.021-.977l-.044-1.985h-1.919a1 1 0 1 1 0-2h2.896a1 1 0 0 1 1 .978l.066 2.962a1 1 0 0 1-.978 1.022Z"/></g><defs><clipPath id="a"><path fill="#fff" d="M0 0h24v24H0z"/></clipPath></defs></svg>
