<svg width="20" height="20" viewBox="0 0 20 20" fill="none" xmlns="http://www.w3.org/2000/svg">
<path fill-rule="evenodd" clip-rule="evenodd" d="M10 0C4.47596 0 0 4.47596 0 10C0 15.524 4.47596 20 10 20C15.524 20 20 15.524 20 10C20 4.47596 15.524 0 10 0ZM10.9998 4.83525L10.8196 10.2976C10.8079 10.6868 10.4766 11 9.99998 11C9.52334 11 9.19201 10.6868 9.18039 10.2976L9.00019 4.83525C8.98857 4.37966 9.43615 4 9.99998 4C10.558 4 11.0114 4.37492 10.9998 4.83525ZM8.99997 14C8.99997 14.5598 9.43976 15 9.99997 15C10.5602 15 11 14.5598 11 14C11 13.4402 10.5602 13 9.99997 13C9.43976 13 8.99997 13.4402 8.99997 14Z" fill="#996502"/>
</svg>
