<svg width="24" height="24" viewBox="0 0 24 24" xmlns="http://www.w3.org/2000/svg">
<path clip-rule="evenodd" d="M5.44 5H18.56C20.4599 5 22 6.54014 22 8.44V15.56C22 17.4599 20.4599 19 18.56 19H5.44C3.54014 19 2 17.4599 2 15.56V8.44C2 6.54014 3.54014 5 5.44 5ZM5.44 7C4.64471 7 4 7.64471 4 8.44V15.56C4 16.3553 4.64471 17 5.44 17H18.56C19.3553 17 20 16.3553 20 15.56V8.44C20 7.64471 19.3553 7 18.56 7H5.44ZM5.6 10.2C5.6 9.75817 5.95817 9.4 6.4 9.4H17.6C18.0418 9.4 18.4 9.75817 18.4 10.2C18.4 10.6418 18.0418 11 17.6 11H6.4C5.95817 11 5.6 10.6418 5.6 10.2ZM9.60001 14.2C10.0418 14.2 10.4 13.8418 10.4 13.4C10.4 12.9582 10.0418 12.6 9.60001 12.6H6.40001C5.95818 12.6 5.60001 12.9582 5.60001 13.4C5.60001 13.8418 5.95818 14.2 6.40001 14.2H9.60001ZM18.4 13.4C18.4 13.8418 18.0418 14.2 17.6 14.2C17.1582 14.2 16.8 13.8418 16.8 13.4C16.8 12.9582 17.1582 12.6 17.6 12.6C18.0418 12.6 18.4 12.9582 18.4 13.4ZM15.2 14.2C15.6418 14.2 16 13.8418 16 13.4C16 12.9582 15.6418 12.6 15.2 12.6C14.7582 12.6 14.4 12.9582 14.4 13.4C14.4 13.8418 14.7582 14.2 15.2 14.2Z"/>
</svg>
