<svg width="82" height="18" viewBox="0 0 82 18" fill="none" xmlns="http://www.w3.org/2000/svg">
<path fill-rule="evenodd" clip-rule="evenodd" d="M28.7754 12.6481C28.371 12.4733 28.0339 12.1893 27.7867 11.818L26.6182 12.7791C26.9777 13.2597 27.4496 13.6092 28.0564 13.8495C28.6631 14.0898 29.2923 14.199 29.9665 14.199C30.4608 14.199 30.9327 14.1335 31.3822 13.9806C31.8091 13.8495 32.2136 13.6311 32.5282 13.3689C32.8653 13.1068 33.1125 12.7791 33.3147 12.3859C33.517 12.0146 33.6069 11.5558 33.6069 11.0753C33.6069 10.4636 33.472 9.98302 33.2249 9.6335C32.9777 9.28399 32.6631 9.00001 32.281 8.80341C31.899 8.6068 31.4945 8.43205 31.0451 8.32282C30.9776 8.30314 30.9111 8.28394 30.8455 8.26502L30.8455 8.265C30.4746 8.15795 30.1338 8.05956 29.8091 7.92962C29.4496 7.77671 29.1125 7.60195 28.8653 7.36166C28.6181 7.14321 28.4833 6.81554 28.4833 6.37865C28.4833 6.22574 28.5058 6.05098 28.5732 5.87622C28.6406 5.70146 28.753 5.52671 28.9103 5.37379C29.0676 5.22088 29.2698 5.08981 29.5395 4.98059C29.8091 4.87137 30.1238 4.82768 30.5282 4.82768C30.9327 4.82768 31.3148 4.91506 31.6294 5.06797C31.9664 5.24273 32.2136 5.46117 32.3934 5.72331L33.5395 4.69661C33.1574 4.21603 32.6855 3.9102 32.1687 3.75729C31.6518 3.60438 31.09 3.517 30.5282 3.517C29.899 3.517 29.3597 3.60438 28.9103 3.80098C28.4608 3.99758 28.1013 4.21603 27.8092 4.50001C27.517 4.78399 27.3148 5.08981 27.18 5.41748C27.0451 5.74515 26.9777 6.05098 26.9777 6.3568C26.9777 7.01214 27.1125 7.53642 27.3597 7.92962C27.6069 8.30098 27.9215 8.6068 28.3035 8.8471C28.6856 9.08739 29.0901 9.26214 29.5395 9.39321C29.6281 9.41905 29.7158 9.44404 29.8023 9.46869L29.8023 9.46869L29.8024 9.46869L29.8024 9.4687L29.8024 9.4687C30.1547 9.56905 30.4868 9.66365 30.7754 9.78642C31.135 9.93933 31.4721 10.1141 31.7192 10.3107C31.9664 10.5073 32.1013 10.8131 32.1013 11.2063C32.1013 11.4903 32.0339 11.7306 31.899 11.949C31.7642 12.1456 31.6069 12.3204 31.4046 12.4733C31.2024 12.6262 30.9777 12.7354 30.7305 12.801C30.4833 12.8665 30.2586 12.9102 30.0114 12.9102C29.5844 12.9102 29.1799 12.8228 28.7754 12.6481ZM35.7417 7.14321H34.2136L37.045 13.9806L36.6181 15.051C36.5507 15.2257 36.4833 15.3786 36.4158 15.5097C36.3484 15.6408 36.281 15.75 36.1686 15.8592C36.0788 15.9685 35.9439 16.034 35.8091 16.0995C35.6743 16.1651 35.4945 16.1869 35.2923 16.1869C35.0451 16.1869 34.7754 16.1432 34.5057 16.034L34.3484 17.2136C34.5282 17.301 34.7305 17.3447 34.9327 17.3665L34.9327 17.3665C35.135 17.3884 35.3372 17.4102 35.5394 17.4102C35.899 17.4102 36.2136 17.3447 36.4608 17.2573C36.708 17.1699 36.9102 17.0388 37.09 16.8641C37.2698 16.6893 37.4046 16.4709 37.5394 16.2306C37.5636 16.1788 37.5889 16.126 37.6148 16.0719L37.6152 16.0709L37.6153 16.0709C37.7092 15.8745 37.811 15.6618 37.899 15.4223L41.2248 7.14321H39.8091L37.8316 12.4515H37.8091L35.7417 7.14321ZM42.2135 7.14321H43.5394V8.19176H43.5618C43.7191 7.8204 44.0113 7.53642 44.4382 7.31797C44.8427 7.09952 45.3371 6.9903 45.8764 6.9903C46.2135 6.9903 46.5281 7.03399 46.8427 7.14321C47.1573 7.25244 47.427 7.40535 47.6517 7.60195C47.8764 7.8204 48.0787 8.08253 48.2135 8.4102C48.3483 8.73787 48.4157 9.13108 48.4157 9.58981V13.9587H47.0899V9.93933C47.0899 9.6335 47.045 9.34952 46.9551 9.13108C46.8652 8.91263 46.7528 8.71603 46.5955 8.58496C46.4382 8.45389 46.2809 8.34467 46.0787 8.27913C45.8764 8.2136 45.6967 8.19176 45.4719 8.19176C45.2023 8.19176 44.9326 8.23545 44.7079 8.32282C44.4607 8.4102 44.2585 8.54127 44.0787 8.73787C43.8989 8.93447 43.7641 9.15292 43.6742 9.45875C43.5843 9.74273 43.5169 10.0922 43.5169 10.4854V13.9806H42.1911V7.14321H42.2135ZM51.2696 7.23059C50.7753 7.3835 50.3483 7.64564 49.9663 7.97331L50.7753 8.78156C50.8144 8.75114 50.8535 8.71807 50.8936 8.6842L50.8936 8.68414L50.8937 8.68411C50.9687 8.62072 51.047 8.55451 51.1348 8.49758C51.2696 8.4102 51.4045 8.32282 51.5618 8.25729C51.7191 8.19176 51.8764 8.12622 52.0786 8.08253C52.2809 8.03884 52.5056 8.017 52.7528 8.017C53.0449 8.017 53.2921 8.06069 53.4943 8.14807C53.6966 8.23545 53.8764 8.34467 54.0112 8.47574C54.146 8.6068 54.2584 8.75972 54.3258 8.93447C54.3932 9.10923 54.4382 9.28399 54.4382 9.45875V9.74273H53.4719C52.9326 9.74273 52.4382 9.78642 51.9663 9.8738C51.4944 9.93933 51.0899 10.0704 50.7303 10.267C50.3708 10.4418 50.1011 10.682 49.8989 10.9879C49.6966 11.2937 49.6067 11.6651 49.6067 12.102C49.6067 12.4296 49.6742 12.7136 49.809 12.9757C49.9213 13.216 50.1011 13.4345 50.3258 13.6092C50.5505 13.784 50.8202 13.9151 51.1123 14.0024C51.4045 14.0898 51.7191 14.1335 52.0337 14.1335C52.5505 14.1335 53.0224 14.0461 53.4269 13.8714C53.8314 13.6748 54.191 13.3689 54.4831 12.932H54.5056C54.5056 13.2597 54.528 13.6092 54.5505 13.9587H55.7415C55.719 13.784 55.6966 13.5874 55.6966 13.3908C55.6741 13.1942 55.6741 12.9757 55.6741 12.7354V9.26214C55.6741 8.97816 55.6067 8.67234 55.4943 8.4102C55.382 8.14807 55.2247 7.90777 54.9775 7.68933C54.7528 7.47088 54.4382 7.31797 54.0786 7.1869C53.6966 7.05583 53.2696 6.9903 52.7528 6.9903C52.2584 6.9903 51.764 7.07768 51.2696 7.23059ZM53.7191 10.682C53.4242 10.682 53.1293 10.7012 52.816 10.7216L52.7528 10.7257C52.4157 10.7694 52.1236 10.835 51.8539 10.9223C51.5842 11.0097 51.3595 11.1408 51.1798 11.3155C51 11.4903 50.9326 11.7087 50.9326 11.9709C50.9326 12.3641 51.0674 12.6481 51.3371 12.8228C51.6067 12.9976 51.9663 13.085 52.4382 13.085C52.7977 13.085 53.1123 13.0194 53.3595 12.9102C53.6067 12.801 53.8314 12.6262 53.9887 12.4515C54.146 12.2549 54.2584 12.0364 54.3258 11.818C54.3932 11.5777 54.4382 11.3592 54.4382 11.1189V10.682H53.7191ZM58.7078 7.14321H57.3819V18H58.7078V12.9757H58.7303C58.955 13.3253 59.292 13.6092 59.7415 13.8058C60.1909 14.0024 60.6628 14.1117 61.1572 14.1117C61.6965 14.1117 62.1684 14.0243 62.6179 13.8495C63.0673 13.6529 63.4268 13.4126 63.7415 13.085C64.0561 12.7573 64.3032 12.3859 64.4605 11.949C64.6179 11.5121 64.7077 11.0316 64.7077 10.5291C64.7077 10.0267 64.6179 9.56797 64.4605 9.13108C64.2808 8.69418 64.0561 8.32282 63.7415 7.99515C63.4268 7.66748 63.0448 7.40535 62.6179 7.23059C62.1909 7.05583 61.6965 6.96845 61.1572 6.96845C60.6853 6.96845 60.2359 7.07768 59.7864 7.27428C59.337 7.47088 58.9774 7.75486 58.7303 8.12622H58.7078V7.14321ZM61.0224 8.16991C60.6628 8.16991 60.3482 8.23544 60.0561 8.34467C59.764 8.45389 59.5392 8.62865 59.337 8.82525C59.1347 9.02185 58.9774 9.28399 58.8876 9.56797C58.7752 9.85195 58.7303 10.1796 58.7303 10.5291C58.7303 10.8786 58.7752 11.1845 58.8876 11.4903C58.9999 11.7743 59.1572 12.0364 59.337 12.233C59.5392 12.4296 59.7864 12.6044 60.0561 12.7136C60.3257 12.8228 60.6628 12.8884 61.0224 12.8884C61.3819 12.8884 61.6965 12.8228 61.9887 12.7136C62.2808 12.6044 62.5055 12.4296 62.7078 12.233C62.91 12.0364 63.0673 11.7743 63.1572 11.4903C63.2695 11.2063 63.3145 10.8786 63.3145 10.5291C63.3145 10.1796 63.2695 9.87379 63.1572 9.56797C63.0448 9.28399 62.8875 9.02185 62.7078 8.82525C62.5055 8.62865 62.2583 8.45389 61.9887 8.34467C61.6965 8.23544 61.3819 8.16991 61.0224 8.16991ZM69.247 8.36651C69.4717 8.49758 69.674 8.65049 69.8313 8.8471L70.8875 8.12622C70.6403 7.73302 70.2807 7.44904 69.8538 7.27428C69.4268 7.09952 68.9774 7.01214 68.5055 7.01214C68.1908 7.01214 67.8538 7.05583 67.5392 7.14321C67.2246 7.23059 66.9324 7.36166 66.6852 7.53642C66.4381 7.71117 66.2358 7.92962 66.0785 8.19176C65.9212 8.45389 65.8538 8.75972 65.8538 9.10923C65.8538 9.41506 65.9212 9.69904 66.0336 9.91748C66.1459 10.1359 66.3032 10.3107 66.5055 10.4636C66.7077 10.6165 66.9324 10.7257 67.1796 10.8131C67.4268 10.9005 67.6965 10.9879 67.9886 11.0534C68.095 11.0682 68.2013 11.0929 68.3216 11.1209C68.3792 11.1343 68.44 11.1485 68.5055 11.1626C68.6852 11.2063 68.865 11.2719 69.0448 11.3374C69.2245 11.4029 69.3819 11.4903 69.4942 11.6214C69.6066 11.7524 69.674 11.9053 69.674 12.102C69.674 12.233 69.629 12.3641 69.5392 12.4733C69.4717 12.5825 69.3594 12.6699 69.2245 12.7354C69.0897 12.801 68.9549 12.8447 68.7751 12.8884C68.5953 12.9102 68.4156 12.932 68.2583 12.932C67.8762 12.932 67.5616 12.8447 67.292 12.6918C67.0223 12.517 66.7976 12.3422 66.5729 12.1238L65.5617 12.932C65.8987 13.3908 66.3032 13.6966 66.7302 13.8714C67.1572 14.0461 67.674 14.1335 68.2583 14.1335C68.6178 14.1335 68.9549 14.0898 69.292 14.0243C69.629 13.9587 69.9212 13.8277 70.1908 13.6529C70.4605 13.4782 70.6852 13.2379 70.8425 12.9757C70.9998 12.7136 71.0897 12.3859 71.0897 11.9927C71.0897 11.6651 71.0448 11.4029 70.9324 11.1845C70.82 10.966 70.6852 10.7694 70.5054 10.6165C70.3257 10.4636 70.1009 10.3325 69.8538 10.2452C69.6066 10.1578 69.3369 10.0704 69.0448 10.0049C68.9515 9.97897 68.8504 9.96075 68.7414 9.94111C68.6665 9.92761 68.5878 9.91344 68.5055 9.89564C68.3032 9.85195 68.101 9.80826 67.9212 9.72088C67.7414 9.6335 67.5841 9.54612 67.4493 9.41506C67.3145 9.30583 67.247 9.13108 67.247 8.93447C67.247 8.69418 67.3594 8.49758 67.5841 8.36651C67.8088 8.23545 68.0785 8.16991 68.3931 8.16991C68.7302 8.16991 69.0223 8.23545 69.247 8.36651ZM73.5167 11.0316C73.5167 11.3374 73.5841 11.5995 73.7189 11.8398C73.8537 12.0801 74.0335 12.2986 74.2358 12.4733C74.4605 12.6481 74.7077 12.7791 74.9998 12.8665C75.2919 12.9539 75.5841 13.0194 75.8762 13.0194C76.2807 13.0194 76.6402 12.932 76.9548 12.7354C77.2694 12.5388 77.5391 12.2986 77.7863 11.9927L78.7975 12.7354C78.0559 13.6748 77.0222 14.1335 75.6964 14.1335C75.1346 14.1335 74.6402 14.0461 74.1908 13.8714C73.7414 13.6966 73.3594 13.4345 73.0448 13.1068C72.7301 12.7791 72.5054 12.4078 72.3257 11.9709C72.1684 11.534 72.0785 11.0534 72.0785 10.551C72.0785 10.0486 72.1684 9.56797 72.3481 9.13108C72.5279 8.69418 72.7751 8.32282 73.1122 7.99515C73.4268 7.66748 73.8088 7.42719 74.2582 7.25244C74.7077 7.07768 75.1796 6.9903 75.6964 6.9903C76.3256 6.9903 76.8425 7.09952 77.2694 7.29612C77.6964 7.51457 78.0559 7.77671 78.3256 8.12622C78.5953 8.47574 78.7975 8.8471 78.9323 9.28399C79.0447 9.72088 79.1121 10.1359 79.1121 10.5728V11.0316H73.5167ZM77.6963 9.96117C77.6963 9.96844 77.6964 9.97572 77.6964 9.98302V9.96117H77.6963ZM77.6963 9.96117C77.6929 9.68558 77.6272 9.43073 77.5616 9.19661C77.4717 8.95632 77.3593 8.75972 77.1795 8.56311C77.0222 8.38836 76.7975 8.25729 76.5503 8.14807C76.3031 8.03884 76.011 7.99515 75.6739 7.99515C75.3593 7.99515 75.0447 8.06069 74.7751 8.16991C74.5054 8.27913 74.2807 8.45389 74.0784 8.62865C73.8987 8.82525 73.7414 9.0437 73.6515 9.26214C73.5391 9.50243 73.4942 9.72088 73.4942 9.96117H77.6963Z" fill="white"/>
<path fill-rule="evenodd" clip-rule="evenodd" d="M3.87681 8.10437C4.2813 5.00243 7.00038 2.59952 10.3037 2.59952C13.8767 2.59952 16.7981 5.41748 16.7981 8.89078C16.7981 12.3859 13.8992 15.2039 10.3037 15.2039C7.00038 15.2039 4.2813 12.801 3.87681 9.69903H0.348751V9.67719C0.168978 9.65534 0.101562 9.48058 0.101562 8.91262C0.101562 8.38835 0.168978 8.16991 0.32628 8.12622V8.10437H0.438638H3.87681ZM5.44983 8.89078C5.44983 11.4903 7.62959 13.6092 10.3037 13.6092C12.9779 13.6092 15.1351 11.4903 15.1576 8.89078C15.1576 6.29126 12.9779 4.17233 10.3037 4.17233C7.62959 4.17233 5.44983 6.29126 5.44983 8.89078Z" fill="white"/>
<path d="M24.2362 8.89078C24.2362 8.32281 24.1463 8.21359 23.8766 8.21359H19.6519L19.6295 8.06068C19.18 3.51699 15.3598 0.0873786 10.6857 0H10.6633C10.3936 0.0218447 10.3037 0.174757 10.3037 0.699029C10.3037 1.26699 10.3936 1.35437 10.6633 1.37621C14.8879 1.46359 18.2587 4.80583 18.2587 8.89078C18.2587 12.9976 14.8655 16.3398 10.6633 16.4053C10.3936 16.4272 10.3037 16.5801 10.3037 17.1044C10.3037 17.6723 10.3936 17.7597 10.6633 17.7816C15.3598 17.716 19.2025 14.2646 19.6519 9.72087L19.6744 9.56796H23.8991C24.1238 9.58981 24.2362 9.43689 24.2362 8.89078Z" fill="white"/>
<path fill-rule="evenodd" clip-rule="evenodd" d="M80.9548 14.0898C81.4941 14.0898 81.8986 13.6748 81.8986 13.1723C81.8986 12.6699 81.4941 12.2549 80.9548 12.2767C80.4379 12.2767 80.011 12.6699 80.011 13.1723C80.011 13.6966 80.4155 14.0898 80.9548 14.0898ZM80.9548 13.8932C80.5503 13.8932 80.2357 13.5655 80.2357 13.1723C80.2357 12.7791 80.5503 12.4515 80.9323 12.4515C81.3593 12.4515 81.6514 12.7791 81.6514 13.1723C81.6514 13.5655 81.3593 13.8932 80.9548 13.8932ZM80.7975 13.6311H80.5952V12.7354C80.6851 12.7136 80.7975 12.7136 80.9548 12.7136C81.1346 12.7136 81.202 12.7354 81.2694 12.7791C81.3143 12.8228 81.3593 12.8884 81.3593 12.9757C81.3593 13.085 81.2694 13.1505 81.157 13.1942V13.216C81.2469 13.2597 81.2919 13.3252 81.3368 13.4345C81.3593 13.5655 81.3818 13.6311 81.4042 13.6529H81.1795C81.157 13.6092 81.1346 13.5437 81.1121 13.4345C81.0896 13.3252 81.0447 13.2816 80.9099 13.2816H80.7975V13.6311ZM80.9323 13.1286H80.8424V12.8884C80.8649 12.8665 80.8874 12.8665 80.9548 12.8665C81.0896 12.8665 81.157 12.9102 81.157 12.9976C81.157 13.085 81.0447 13.1286 80.9323 13.1286Z" fill="white"/>
</svg>
