<svg width="20" height="20" viewBox="0 0 20 20" fill="none" xmlns="http://www.w3.org/2000/svg">
<path fill-rule="evenodd" clip-rule="evenodd" d="M2.33319 3.99986C2.75995 3.5731 3.33877 3.33334 3.94231 3.33334H10.8654C11.4689 3.33334 12.0477 3.5731 12.4745 3.99986C12.9013 4.42663 13.141 5.00545 13.141 5.60898V6.57408C13.141 7.03432 12.7679 7.40742 12.3077 7.40742C11.8475 7.40742 11.4744 7.03432 11.4744 6.57408V5.60898C11.4744 5.44747 11.4102 5.29258 11.296 5.17837C11.1818 5.06417 11.0269 5.00001 10.8654 5.00001H3.94231C3.7808 5.00001 3.6259 5.06417 3.5117 5.17837C3.39749 5.29258 3.33333 5.44747 3.33333 5.60898V14.2628C3.33333 14.4243 3.39749 14.5792 3.5117 14.6934C3.6259 14.8076 3.7808 14.8718 3.94231 14.8718H10.8654C11.0269 14.8718 11.1818 14.8076 11.296 14.6934C11.4102 14.5792 11.4744 14.4243 11.4744 14.2628V13.0556C11.4744 12.5953 11.8475 12.2222 12.3077 12.2222C12.7679 12.2222 13.141 12.5953 13.141 13.0556V14.2628C13.141 14.8664 12.9013 15.4452 12.4745 15.872C12.0477 16.2987 11.4689 16.5385 10.8654 16.5385H3.94231C3.33877 16.5385 2.75995 16.2987 2.33319 15.872C1.90642 15.4452 1.66667 14.8664 1.66667 14.2628V5.60898C1.66667 5.00545 1.90642 4.42663 2.33319 3.99986Z" fill="white"/>
<path fill-rule="evenodd" clip-rule="evenodd" d="M14.0261 6.46203C14.3516 6.1366 14.8792 6.1366 15.2046 6.46203L18.0892 9.34665C18.4147 9.67209 18.4147 10.1997 18.0892 10.5252L15.2046 13.4098C14.8792 13.7352 14.3516 13.7352 14.0261 13.4098C13.7007 13.0843 13.7007 12.5567 14.0261 12.2313L16.3215 9.9359L14.0261 7.64055C13.7007 7.31511 13.7007 6.78747 14.0261 6.46203Z" fill="white"/>
<path fill-rule="evenodd" clip-rule="evenodd" d="M6.8229 9.9359C6.8229 9.47567 7.19599 9.10257 7.65623 9.10257H17.5C17.9602 9.10257 18.3333 9.47567 18.3333 9.9359C18.3333 10.3961 17.9602 10.7692 17.5 10.7692H7.65623C7.19599 10.7692 6.8229 10.3961 6.8229 9.9359Z" fill="white"/>
</svg>
