<svg width="156" height="128" viewBox="0 0 156 128" fill="none" xmlns="http://www.w3.org/2000/svg">
<g clip-path="url(#clip0)">
<path d="M147.592 52.0562C147.573 51.4942 147.484 50.9793 147.326 50.5113C147.166 50.0438 146.927 49.6361 146.609 49.2895C146.29 48.9429 145.894 48.6716 145.415 48.4754C144.938 48.278 144.381 48.1801 143.744 48.1801C143.127 48.1801 142.56 48.2972 142.046 48.5314C141.531 48.7656 141.094 49.0694 140.739 49.4438C140.384 49.819 140.107 50.2353 139.911 50.6934C139.715 51.1523 139.616 51.6066 139.616 52.0562H147.592ZM139.616 54.078C139.616 54.6592 139.742 55.1878 139.995 55.6647C140.248 56.1429 140.58 56.5498 140.992 56.8865C141.404 57.2237 141.881 57.4857 142.424 57.6733C142.968 57.8609 143.528 57.9545 144.109 57.9545C144.896 57.9545 145.579 57.7716 146.16 57.4066C146.74 57.0412 147.273 56.5592 147.761 55.96L149.67 57.4199C148.267 59.2374 146.3 60.1447 143.773 60.1447C142.724 60.1447 141.773 59.9669 140.922 59.6113C140.07 59.2553 139.348 58.7639 138.759 58.1365C138.169 57.5096 137.715 56.7694 137.397 55.9182C137.078 55.0656 136.92 54.1438 136.92 53.1515C136.92 52.1592 137.092 51.2374 137.439 50.3848C137.785 49.5335 138.263 48.7934 138.871 48.166C139.48 47.5391 140.206 47.0476 141.049 46.6912C141.89 46.3361 142.808 46.1579 143.801 46.1579C144.98 46.1579 145.977 46.3639 146.791 46.7763C147.606 47.1874 148.275 47.7267 148.8 48.3904C149.324 49.0553 149.703 49.8045 149.937 50.637C150.171 51.4716 150.288 52.3182 150.288 53.1788V54.078H139.616ZM132.633 49.8374C132.333 49.463 131.964 49.1494 131.524 48.8959C131.084 48.6438 130.545 48.5173 129.909 48.5173C129.31 48.5173 128.79 48.6438 128.351 48.8959C127.91 49.1494 127.691 49.519 127.691 50.0058C127.691 50.3989 127.817 50.7173 128.07 50.9609C128.322 51.2036 128.621 51.4011 128.968 51.5502C129.315 51.7011 129.684 51.8126 130.077 51.8874C130.471 51.963 130.808 52.0276 131.089 52.0835C131.632 52.2152 132.142 52.3741 132.619 52.5622C133.096 52.7485 133.509 52.9925 133.856 53.2917C134.201 53.5912 134.473 53.9562 134.67 54.3865C134.866 54.8182 134.964 55.3417 134.964 55.96C134.964 56.7088 134.805 57.3506 134.487 57.884C134.169 58.4173 133.756 58.8523 133.252 59.1895C132.746 59.5267 132.17 59.7707 131.524 59.9199C130.878 60.0694 130.227 60.1447 129.571 60.1447C128.467 60.1447 127.498 59.9763 126.665 59.6391C125.832 59.3019 125.088 58.684 124.432 57.7857L126.342 56.2126C126.753 56.6246 127.213 56.9895 127.718 57.3079C128.224 57.6267 128.842 57.7857 129.571 57.7857C129.89 57.7857 130.214 57.7536 130.541 57.6865C130.869 57.622 131.159 57.519 131.412 57.378C131.664 57.2382 131.871 57.06 132.03 56.8451C132.189 56.6297 132.268 56.381 132.268 56.0998C132.268 55.7259 132.15 55.4173 131.917 55.1733C131.683 54.9306 131.402 54.7382 131.075 54.5981C130.747 54.457 130.4 54.3447 130.035 54.2609C129.671 54.1763 129.347 54.1066 129.067 54.0506C128.523 53.919 128.009 53.7694 127.522 53.6011C127.035 53.4323 126.604 53.2075 126.23 52.9267C125.856 52.6455 125.556 52.2904 125.33 51.8592C125.106 51.4284 124.994 50.8951 124.994 50.2579C124.994 49.5656 125.139 48.9617 125.43 48.4468C125.719 47.9323 126.103 47.5058 126.581 47.1686C127.058 46.8323 127.601 46.5793 128.21 46.4105C128.818 46.2421 129.432 46.1579 130.05 46.1579C130.948 46.1579 131.809 46.3267 132.633 46.6639C133.457 47.0011 134.112 47.5617 134.6 48.3485L132.633 49.8374ZM115.882 48.5173C115.207 48.5173 114.599 48.6344 114.056 48.8686C113.513 49.1028 113.054 49.4211 112.68 49.8229C112.306 50.2259 112.015 50.7122 111.809 51.284C111.602 51.8553 111.5 52.4771 111.5 53.1515C111.5 53.8259 111.602 54.4476 111.809 55.019C112.015 55.5908 112.306 56.0771 112.68 56.4793C113.054 56.8818 113.513 57.2002 114.056 57.4344C114.599 57.6686 115.207 57.7857 115.882 57.7857C116.556 57.7857 117.163 57.6686 117.707 57.4344C118.25 57.2002 118.708 56.8818 119.083 56.4793C119.458 56.0771 119.747 55.5908 119.954 55.019C120.16 54.4476 120.262 53.8259 120.262 53.1515C120.262 52.4771 120.16 51.8553 119.954 51.284C119.747 50.7122 119.458 50.2259 119.083 49.8229C118.708 49.4211 118.25 49.1028 117.707 48.8686C117.163 48.6344 116.556 48.5173 115.882 48.5173ZM108.972 46.4951H111.5V48.4049H111.556C112.043 47.6934 112.712 47.1408 113.564 46.7476C114.416 46.3545 115.292 46.1579 116.19 46.1579C117.22 46.1579 118.152 46.3361 118.985 46.6912C119.818 47.0476 120.529 47.5438 121.12 48.1801C121.709 48.8169 122.163 49.5609 122.482 50.4135C122.8 51.2647 122.959 52.178 122.959 53.1515C122.959 54.1438 122.8 55.0656 122.482 55.9182C122.163 56.7694 121.709 57.5096 121.12 58.1365C120.529 58.7639 119.818 59.2553 118.985 59.6113C118.152 59.9669 117.22 60.1447 116.19 60.1447C115.236 60.1447 114.337 59.9429 113.494 59.5412C112.652 59.1382 112.005 58.5908 111.556 57.8981H111.5V67.7276H108.972V46.4951ZM101.971 53.4036C101.371 53.4036 100.758 53.437 100.131 53.5019C99.503 53.5686 98.9325 53.6942 98.4175 53.8818C97.9021 54.0686 97.4808 54.3306 97.1534 54.6677C96.8256 55.0049 96.662 55.4361 96.662 55.96C96.662 56.7276 96.9192 57.2801 97.4346 57.6173C97.9496 57.9545 98.647 58.1229 99.5269 58.1229C100.219 58.1229 100.809 58.0058 101.296 57.7716C101.783 57.5374 102.176 57.2335 102.476 56.8592C102.775 56.484 102.991 56.0677 103.122 55.6088C103.253 55.1506 103.318 54.6964 103.318 54.2468V53.4036H101.971ZM94.8363 48.1237C95.5479 47.4686 96.3718 46.9771 97.3077 46.6494C98.244 46.322 99.1803 46.1579 100.116 46.1579C101.09 46.1579 101.929 46.2801 102.631 46.5229C103.332 46.7669 103.909 47.0942 104.357 47.5058C104.807 47.9182 105.139 48.3904 105.354 48.9246C105.57 49.4579 105.677 50.0152 105.677 50.5955V57.3925C105.677 57.8609 105.687 58.2912 105.706 58.684C105.724 59.0771 105.753 59.4524 105.79 59.8079H103.543C103.487 59.1335 103.459 58.4592 103.459 57.7857H103.403C102.841 58.6468 102.176 59.2553 101.409 59.6113C100.641 59.9669 99.7517 60.1447 98.7402 60.1447C98.1226 60.1447 97.5325 60.06 96.9714 59.8912C96.4098 59.7237 95.9179 59.4707 95.4966 59.1335C95.0752 58.7964 94.7427 58.3801 94.4991 57.884C94.256 57.3878 94.1342 56.8122 94.1342 56.1562C94.1342 55.2955 94.3261 54.5746 94.7107 53.9942C95.0932 53.4135 95.6184 52.9408 96.2829 52.575C96.9474 52.2105 97.7252 51.9485 98.6145 51.7895C99.503 51.6306 100.453 51.5502 101.465 51.5502H103.318V50.9887C103.318 50.6515 103.253 50.3143 103.122 49.9771C102.991 49.6408 102.794 49.3361 102.532 49.0647C102.27 48.7934 101.942 48.578 101.549 48.419C101.156 48.26 100.688 48.1801 100.145 48.1801C99.6573 48.1801 99.2325 48.2267 98.8671 48.3207C98.5021 48.4143 98.1688 48.5314 97.8697 48.6716C97.5705 48.8126 97.2983 48.9763 97.0551 49.163C96.8115 49.3502 96.5782 49.5284 96.3534 49.6972L94.8363 48.1237ZM80.1248 46.4951H82.6525V48.5447H82.7085C83.0269 47.8344 83.5803 47.2579 84.3658 46.8182C85.1525 46.378 86.0602 46.1579 87.0906 46.1579C87.7269 46.1579 88.3402 46.2562 88.9299 46.4523C89.5201 46.6494 90.0346 46.9545 90.4743 47.3656C90.9145 47.778 91.2658 48.3066 91.5278 48.9523C91.7897 49.5981 91.9214 50.3617 91.9214 51.2421V59.8079H89.3936V51.9438C89.3936 51.3259 89.3094 50.7972 89.1414 50.357C88.9726 49.9173 88.7479 49.5609 88.4671 49.2895C88.1859 49.0182 87.8632 48.822 87.4974 48.7002C87.1325 48.578 86.7534 48.5173 86.3602 48.5173C85.8355 48.5173 85.3487 48.6011 84.9 48.7694C84.4508 48.9382 84.0572 49.2049 83.7201 49.5707C83.3829 49.9353 83.1209 50.3989 82.9333 50.9609C82.7466 51.522 82.6525 52.1878 82.6525 52.9545V59.8079H80.1248V46.4951ZM64.894 46.4951H67.8149L71.7568 56.8865H71.8128L75.5953 46.4951H78.2914L71.9713 62.6724C71.7474 63.2524 71.5141 63.7818 71.2722 64.2592C71.0303 64.7374 70.7406 65.1438 70.4055 65.481C70.0692 65.8182 69.6645 66.0801 69.1884 66.2677C68.7128 66.4545 68.1303 66.5489 67.4406 66.5489C67.0671 66.5489 66.6893 66.5246 66.3072 66.4784C65.9256 66.4314 65.5568 66.3327 65.2025 66.1831L65.5102 63.8801C66.0119 64.0857 66.5149 64.1887 67.0166 64.1887C67.4072 64.1887 67.7376 64.1374 68.0072 64.0344C68.2769 63.9314 68.5089 63.7818 68.7055 63.5848C68.9004 63.3887 69.0636 63.1592 69.194 62.8972C69.3235 62.6344 69.4538 62.3353 69.5846 61.9981L70.4025 59.8912L64.894 46.4951ZM52.6636 55.6506C53.1504 56.381 53.773 56.9199 54.5316 57.2656C55.2897 57.6122 56.0713 57.7857 56.8769 57.7857C57.326 57.7857 57.785 57.7152 58.2529 57.5754C58.7205 57.4344 59.147 57.2237 59.5307 56.9429C59.9145 56.6618 60.2282 56.316 60.4713 55.9036C60.7149 55.4925 60.8367 55.0143 60.8367 54.4716C60.8367 53.7036 60.5931 53.119 60.1068 52.716C59.6196 52.3135 59.0158 51.9763 58.2948 51.7049C57.5739 51.4331 56.7876 51.1716 55.9359 50.9182C55.0833 50.6656 54.2974 50.3143 53.5769 49.866C52.8559 49.416 52.2512 48.8126 51.7649 48.0532C51.2777 47.2951 51.0346 46.2703 51.0346 44.978C51.0346 44.3981 51.1611 43.7801 51.4141 43.125C51.6666 42.4694 52.0641 41.8707 52.6076 41.3276C53.1504 40.7848 53.8478 40.3305 54.7 39.9647C55.5521 39.6002 56.5769 39.4169 57.7752 39.4169C58.8611 39.4169 59.9 39.5673 60.8931 39.8669C61.8854 40.1664 62.7559 40.7754 63.5047 41.6925L61.3145 43.6865C60.9773 43.1626 60.4995 42.7408 59.882 42.4229C59.2641 42.1045 58.5619 41.9446 57.7752 41.9446C57.026 41.9446 56.4034 42.0438 55.9077 42.2399C55.4111 42.4361 55.0132 42.6895 54.7141 42.9981C54.4145 43.3075 54.2038 43.6399 54.082 43.9951C53.9602 44.3515 53.8995 44.6788 53.8995 44.978C53.8995 45.8211 54.1423 46.4664 54.6294 46.916C55.1162 47.3656 55.7196 47.7305 56.4414 48.0113C57.1619 48.2925 57.9483 48.5447 58.8004 48.7694C59.6525 48.9942 60.4388 49.3083 61.1598 49.7105C61.8803 50.1135 62.4846 50.6562 62.9709 51.34C63.4581 52.0237 63.7017 52.9647 63.7017 54.1617C63.7017 55.1173 63.5192 55.9793 63.1538 56.7468C62.7889 57.5143 62.2974 58.16 61.6795 58.684C61.0615 59.2088 60.3312 59.6113 59.4888 59.8912C58.6461 60.1724 57.7474 60.3135 56.7923 60.3135C55.5179 60.3135 54.3111 60.0887 53.1692 59.6391C52.0273 59.1895 51.1192 58.4972 50.4448 57.5609L52.6636 55.6506Z" fill="#295AA9"/>
<path d="M19.4056 59.1432C14.3274 59.1432 10.1962 55.0107 10.1962 49.9312C10.1962 44.8517 14.3274 40.7175 19.4056 40.7175C24.4868 40.7175 28.6205 44.8517 28.6205 49.9312C28.6205 55.0107 24.4868 59.1432 19.4056 59.1432ZM19.4056 37.5816C13.118 37.5816 7.94231 42.285 7.17052 48.3624H0.677778V48.3585C0.670086 48.3585 0.665813 48.3624 0.65812 48.3624H0.464958V48.4068C0.132051 48.5154 0 48.9098 0 49.956C0 51.0739 0.117521 51.3914 0.464958 51.4697V51.4983H7.17052C7.94231 57.5769 13.118 62.2791 19.4056 62.2791C26.2278 62.2791 31.7556 56.7504 31.7556 49.9312C31.7556 43.1102 26.2278 37.5816 19.4056 37.5816Z" fill="#EE5323"/>
<path d="M45.8996 49.9061C45.8996 48.7958 45.7337 48.5984 45.2098 48.5787V48.5723H37.1718L37.1431 48.2693C36.3047 39.3903 29.0179 32.6693 20.1265 32.5056V32.5031C20.1188 32.5031 20.1136 32.5048 20.1072 32.5048C20.0927 32.5048 20.0782 32.5031 20.0641 32.5031V32.5082C19.5675 32.533 19.3953 32.8454 19.3953 33.8839C19.3953 34.9783 19.5572 35.1847 20.0641 35.2095V35.2227C28.0906 35.3975 34.5128 41.9283 34.5128 49.9309C34.5128 57.9544 28.0564 64.498 20.0641 64.6416V64.6446C19.5675 64.6693 19.3953 64.9813 19.3953 66.0198C19.3953 67.1142 19.5572 67.3206 20.0641 67.3454V67.357C28.9837 67.2253 36.3021 60.492 37.1431 51.5911L37.1718 51.2877H45.2098V51.2826C45.7231 51.2655 45.8996 50.9587 45.8996 49.9061Z" fill="#295AA9"/>
<path d="M153.525 58.1901H153.719C153.944 58.1901 154.126 58.1149 154.126 57.9328C154.126 57.7717 154.008 57.6644 153.751 57.6644C153.644 57.6644 153.569 57.6751 153.525 57.6862V58.1901ZM153.515 59.1871H153.108V57.4285C153.268 57.3965 153.493 57.3747 153.783 57.3747C154.116 57.3747 154.265 57.4285 154.394 57.5038C154.49 57.5785 154.566 57.7183 154.566 57.8896C154.566 58.0824 154.415 58.2328 154.201 58.2973V58.3187C154.373 58.3828 154.469 58.5114 154.522 58.7473C154.577 59.0153 154.608 59.123 154.652 59.1871H154.212C154.159 59.123 154.126 58.9623 154.072 58.7585C154.041 58.5653 153.933 58.4794 153.708 58.4794H153.515V59.1871ZM152.432 58.2649C152.432 59.0478 153.011 59.6696 153.804 59.6696C154.577 59.6696 155.144 59.0478 155.144 58.276C155.144 57.4926 154.577 56.8602 153.793 56.8602C153.011 56.8602 152.432 57.4926 152.432 58.2649ZM155.595 58.2649C155.595 59.2619 154.813 60.0448 153.793 60.0448C152.786 60.0448 151.982 59.2619 151.982 58.2649C151.982 57.2892 152.786 56.5067 153.793 56.5067C154.813 56.5067 155.595 57.2892 155.595 58.2649Z" fill="#EE5323"/>
</g>
<defs>
<clipPath id="clip0">
<rect width="156" height="156" fill="white" transform="translate(0 -28)"/>
</clipPath>
</defs>
</svg>
