<svg width="24" height="24" viewBox="0 0 24 24" xmlns="http://www.w3.org/2000/svg">
<path d="M18.75 5H5.25C4.65346 5.00064 4.08153 5.2379 3.65971 5.65971C3.2379 6.08153 3.00064 6.65346 3 7.25V16.8929C3.00064 17.4894 3.2379 18.0613 3.65971 18.4831C4.08153 18.905 4.65346 19.1422 5.25 19.1429H18.75C19.3465 19.1422 19.9185 18.905 20.3403 18.4831C20.7621 18.0613 20.9994 17.4894 21 16.8929V7.25C20.9994 6.65346 20.7621 6.08153 20.3403 5.65971C19.9185 5.2379 19.3465 5.00064 18.75 5ZM18.1803 8.72174L12.3946 13.2217C12.2817 13.3094 12.1429 13.3571 12 13.3571C11.8571 13.3571 11.7183 13.3094 11.6054 13.2217L5.81973 8.72174C5.75176 8.67041 5.69466 8.60607 5.65176 8.53248C5.60886 8.45889 5.58102 8.37751 5.56984 8.29306C5.55867 8.20861 5.56439 8.12279 5.58667 8.04057C5.60895 7.95836 5.64735 7.88139 5.69964 7.81414C5.75192 7.74689 5.81705 7.69071 5.89124 7.64885C5.96543 7.60699 6.0472 7.58029 6.13179 7.57031C6.21639 7.56032 6.30212 7.56725 6.38402 7.59069C6.46591 7.61412 6.54233 7.6536 6.60884 7.70683L12 11.8999L17.3912 7.70683C17.526 7.60503 17.6954 7.56038 17.8629 7.58254C18.0304 7.6047 18.1824 7.69188 18.2861 7.82525C18.3898 7.95861 18.4368 8.12742 18.417 8.29519C18.3972 8.46295 18.3122 8.61618 18.1803 8.72174Z"/>
</svg>
