<svg width="16" height="16" viewBox="0 0 16 16" fill="none" xmlns="http://www.w3.org/2000/svg">
<rect width="16" height="16" rx="2" fill="#19468F"/>
<path fill-rule="evenodd" clip-rule="evenodd" d="M3.49996 5.5C3.49996 5.22386 3.72697 5 4.007 5H11.9929C12.2729 5 12.5 5.22386 12.5 5.5C12.5 5.77614 12.2729 6 11.9929 6H4.007C3.72697 6 3.49996 5.77614 3.49996 5.5ZM3.49996 8C3.49996 7.72386 3.72697 7.5 4.007 7.5H11.9929C12.2729 7.5 12.5 7.72386 12.5 8C12.5 8.27614 12.2729 8.5 11.9929 8.5H4.007C3.72697 8.5 3.49996 8.27614 3.49996 8ZM3.99996 10C3.71993 10 3.49292 10.2239 3.49292 10.5C3.49292 10.7761 3.71993 11 3.99996 11H7.99292C8.27295 11 8.49996 10.7761 8.49996 10.5C8.49996 10.2239 8.27295 10 7.99292 10H3.99996Z" fill="#F4F9FF"/>
</svg>
