<svg width="32" height="32" viewBox="0 0 32 32" xmlns="http://www.w3.org/2000/svg">
<path fill-rule="evenodd" clip-rule="evenodd" d="M18.7541 19.8797H13.2974V19.0795L16.1802 15.7106C16.6072 15.2012 16.9018 14.7871 17.0639 14.4682C17.2259 14.1494 17.307 13.8195 17.307 13.4786C17.307 13.0214 17.1754 12.6464 16.9123 12.3536C16.6492 12.0608 16.2984 11.9144 15.8599 11.9144C15.3336 11.9144 14.9247 12.0719 14.633 12.3867C14.3413 12.7015 14.1954 13.1397 14.1954 13.7012H13.1373C13.1373 12.895 13.3842 12.2433 13.878 11.746C14.3718 11.2487 15.0324 11 15.8599 11C16.6339 11 17.2459 11.2136 17.6959 11.6407C18.1459 12.0678 18.3708 12.6364 18.3708 13.3463C18.3708 14.2086 17.8484 15.2353 16.8036 16.4265L14.5729 18.9713H18.7541V19.8797ZM10.1973 19.8797H9.13346V12.4619L7 13.2861V12.2754L10.0315 11.0782H10.1973V19.8797ZM22.2088 14.9586H21.4137V15.867H22.2088C22.7693 15.875 23.1983 16.0154 23.4957 16.2881C23.7931 16.5608 23.9418 16.9519 23.9418 17.4612C23.9418 17.9866 23.8065 18.3897 23.5357 18.6705C23.265 18.9512 22.8742 19.0916 22.3632 19.0916C21.8827 19.0916 21.4995 18.9532 21.2135 18.6765C20.9275 18.3997 20.7846 18.0308 20.7846 17.5695H19.7207C19.7207 18.2995 19.9657 18.887 20.4557 19.3322C20.9457 19.7774 21.5815 20 22.3632 20C23.1449 20 23.7798 19.7694 24.2679 19.3082C24.756 18.8469 25 18.2233 25 17.4372C25 16.9278 24.8751 16.4967 24.6254 16.1437C24.3756 15.7908 24.0219 15.5381 23.5643 15.3857C23.9685 15.2092 24.2879 14.9425 24.5224 14.5856C24.7569 14.2286 24.8742 13.8596 24.8742 13.4786C24.8742 12.7005 24.6511 12.0929 24.205 11.6557C23.7588 11.2186 23.143 11 22.3575 11C21.6139 11 21.001 11.2296 20.5186 11.6888C20.0362 12.1481 19.795 12.7246 19.795 13.4184H20.8532C20.8532 12.9652 20.9895 12.6013 21.2622 12.3265C21.5348 12.0518 21.8999 11.9144 22.3575 11.9144C23.3298 11.9144 23.816 12.4278 23.816 13.4545C23.816 13.9118 23.673 14.2747 23.387 14.5434C23.101 14.8122 22.7083 14.9505 22.2088 14.9586Z"/>
<path d="M17.9286 8.62467L16.2223 7.07937C16.1948 7.05448 16.1606 7.03449 16.1222 7.02079C16.0839 7.00709 16.0421 7 15.9998 7C15.9576 7 15.9158 7.00709 15.8774 7.02079C15.839 7.03449 15.8049 7.05448 15.7774 7.07937L14.0711 8.62467C13.9082 8.77217 14.0432 9 14.2935 9L17.7067 9C17.9569 9 18.0919 8.77217 17.9286 8.62467Z"/>
<path d="M14.0714 22.3753L15.7777 23.9206C15.8052 23.9455 15.8394 23.9655 15.8778 23.9792C15.9161 23.9929 15.9579 24 16.0002 24C16.0424 24 16.0842 23.9929 16.1226 23.9792C16.161 23.9655 16.1951 23.9455 16.2226 23.9206L17.9289 22.3753C18.0918 22.2278 17.9568 22 17.7065 22L14.2933 22C14.0431 22 13.9081 22.2278 14.0714 22.3753Z"/>
</svg>
