<svg width="24" height="24" fill="none" xmlns="http://www.w3.org/2000/svg"><path d="M8.077 4a1 1 0 1 0-2 0v.23h-.23A2.846 2.846 0 0 0 3 7.078v11.077A2.846 2.846 0 0 0 5.846 21h5.59a6.953 6.953 0 0 1-.775-2H5.846A.846.846 0 0 1 5 18.154V9.308c.23-.231.538-.385.846-.385h12.308c.308 0 .615.154.846.385v1.353c.713.156 1.386.42 2 .776v-4.36a2.846 2.846 0 0 0-2.846-2.846h-.23V4a1 1 0 1 0-2 0v.23H8.076V4Z" fill="#B2110D"/><path d="M14.454 11.196a.923.923 0 1 0-1.219.753 7 7 0 0 1 1.219-.753ZM11.383 14.095a.923.923 0 1 0-.387.811c.112-.28.241-.55.387-.811ZM10.6 16.318a.923.923 0 1 0-.07 1.833 7.086 7.086 0 0 1 .07-1.833ZM8.308 14.154a.923.923 0 1 1-1.846 0 .923.923 0 0 1 1.846 0ZM8.308 17.23a.923.923 0 1 1-1.846 0 .923.923 0 0 1 1.846 0Z" fill="#B2110D"/><path fill-rule="evenodd" clip-rule="evenodd" d="M17.5 21.5a4 4 0 1 0 0-8 4 4 0 0 0 0 8Zm0 1.5a5.5 5.5 0 1 0 0-11 5.5 5.5 0 0 0 0 11Z" fill="#B2110D"/><path fill-rule="evenodd" clip-rule="evenodd" d="M17.5 14.25a.75.75 0 0 1 .75.75v2.25h1.25a.75.75 0 0 1 0 1.5h-2a.75.75 0 0 1-.75-.75v-3a.75.75 0 0 1 .75-.75Z" fill="#B2110D"/></svg>
