<svg width="18" height="13" viewBox="0 0 18 13" fill="none" xmlns="http://www.w3.org/2000/svg">
    <path fill-rule="evenodd" clip-rule="evenodd" d="M3.53268 0.450195H14.466C16.0492 0.450195 17.3327 1.73365 17.3327 3.31686V9.25019C17.3327 10.8334 16.0492 12.1169 14.466 12.1169H3.53268C1.94946 12.1169 0.666016 10.8334 0.666016 9.2502V3.31686C0.666016 1.73365 1.94946 0.450195 3.53268 0.450195ZM3.53268 2.11686C2.86994 2.11686 2.33268 2.65412 2.33268 3.31686V9.2502C2.33268 9.91294 2.86994 10.4502 3.53268 10.4502H14.466C15.1288 10.4502 15.666 9.91294 15.666 9.25019V3.31686C15.666 2.65412 15.1288 2.11686 14.466 2.11686H3.53268ZM3.66602 4.78353C3.66602 4.41534 3.96449 4.11686 4.33268 4.11686H13.666C14.0342 4.11686 14.3327 4.41534 14.3327 4.78353C14.3327 5.15172 14.0342 5.45019 13.666 5.45019H4.33268C3.96449 5.45019 3.66602 5.15172 3.66602 4.78353ZM6.99935 8.11687C7.36754 8.11687 7.66602 7.81839 7.66602 7.4502C7.66602 7.08201 7.36754 6.78353 6.99935 6.78353H4.33269C3.9645 6.78353 3.66602 7.08201 3.66602 7.4502C3.66602 7.81839 3.9645 8.11687 4.33269 8.11687L6.99935 8.11687ZM14.3327 7.4502C14.3327 7.81839 14.0342 8.11687 13.666 8.11687C13.2978 8.11687 12.9994 7.81839 12.9994 7.4502C12.9994 7.08201 13.2978 6.78353 13.666 6.78353C14.0342 6.78353 14.3327 7.08201 14.3327 7.4502ZM11.666 8.11687C12.0342 8.11687 12.3327 7.81839 12.3327 7.4502C12.3327 7.08201 12.0342 6.78353 11.666 6.78353C11.2978 6.78353 10.9994 7.08201 10.9994 7.4502C10.9994 7.81839 11.2978 8.11687 11.666 8.11687Z" fill="white"/>
</svg>
