<svg width="24" height="24" fill="none" xmlns="http://www.w3.org/2000/svg"><path fill-rule="evenodd" clip-rule="evenodd" d="M19.48 3.502A1.763 1.763 0 0 0 18.207 3H5.792c-.5 0-.924.167-1.271.502C4.174 3.837 4 4.246 4 4.728v14.544c0 .483.174.89.52 1.226.348.335.772.502 1.272.502H9.02c.02-.136.058-.27.111-.4l.553-1.339c.088-.212.216-.404.376-.563l6.67-6.694 1.938-1.938.053-.055c.165-.176.572-.608 1.09-.836.06-.027.123-.052.189-.074V4.728c0-.482-.174-.89-.52-1.226ZM20 15.265v4.007c0 .483-.174.89-.52 1.226-.348.335-.772.502-1.272.502h-3.962l5.749-5.73.005-.005Zm0-1.414a2632.653 2632.653 0 0 0 0 0Z" fill="#7E899A"/><path d="M20.184 12.623a.74.74 0 0 0 1.044 0l.395-.395a1.293 1.293 0 0 0 0-1.825l-.025-.026a1.293 1.293 0 0 0-1.826 0l-.395.395a.738.738 0 0 0 0 1.043l.807.809ZM10.216 21.784a.738.738 0 0 0 .803.16l1.338-.553a.733.733 0 0 0 .24-.16l6.691-6.669a.739.739 0 0 0 .001-1.043l-.808-.808a.74.74 0 0 0-1.044 0l-6.669 6.692a.74.74 0 0 0-.16.24l-.552 1.338a.738.738 0 0 0 .16.803Z" fill="#7E899A"/></svg>
