<svg width="200" height="157" viewBox="0 0 200 157" fill="none" xmlns="http://www.w3.org/2000/svg">
<path d="M42.7396 69.3682C42.3707 69.6175 41.9962 69.8646 41.6149 70.106C33.723 75.1101 23.4305 76.6578 15.3423 81.4205C5.47739 87.2323 -0.688615 98.0008 0.0615481 108.919C0.75982 119.067 9.39854 129.598 17.7079 136.871C23.5614 141.993 30.3523 146.452 37.8393 149.415C44.205 151.934 52.2898 154.92 59.0785 155.445C69.4646 156.248 79.7965 153.901 87.8746 148.901C97.7644 142.782 103.041 133.234 111.166 125.72C118.716 118.737 129.692 116.604 140.903 116.379C153.114 116.134 165.883 117.517 177.103 114.077C189.43 110.297 198.593 100.389 199.853 88.8353C201.114 77.2805 194.167 64.5706 182.441 57.8022C175.506 53.7976 167.433 51.9205 160.019 48.7359C152.984 45.715 148.174 41.6167 144.282 35.744C140.88 30.6091 140.115 24.7736 136.377 19.7729C130.821 12.3378 122.451 6.33086 113.091 3.09219C98.008 -2.12624 78.2071 -0.901164 66.7685 8.00152C60.4209 12.9424 56.7773 19.7875 56.2617 27.4279C55.8015 34.2629 56.8427 41.2512 56.2753 48.0715C55.5307 57.0295 50.4319 64.1521 42.7396 69.3682Z" fill="#F4F9FF"/>
<path d="M131.584 121.132C125.228 122.778 119.777 126.331 115.052 130.537C111.901 133.343 108.581 136.549 106.739 140.466C103.783 146.756 108.251 150.846 115.062 148.665C120.833 146.819 124.86 142.129 130.086 139.295C134.482 136.909 139.689 135.874 145.023 135.861C147.509 135.855 150.067 136.06 152.393 135.485C158.841 133.889 158.671 125.789 152.099 122.658C145.784 119.649 137.509 119.598 131.584 121.132ZM156.689 41.0007C160.559 43.4001 171.405 44.8745 175.092 42.5665C182.56 37.8895 164.856 28.3032 161.056 25.5688C155.272 21.4062 146.22 18.7891 148.498 28.372C149.681 33.3468 151.532 37.806 156.689 41.0018V41.0007Z" fill="#F4F9FF"/>
<path d="M178.411 48.638C178.411 47.4005 177.392 46.3819 176.154 46.3819C174.917 46.3819 173.898 47.4005 173.898 48.638C173.898 49.8755 174.917 50.8942 176.154 50.8942C177.392 50.8942 178.411 49.8755 178.411 48.638ZM15.9693 75.7116C15.9693 74.4741 14.9506 73.4555 13.7132 73.4555C12.4757 73.4555 11.457 74.4741 11.457 75.7116C11.457 76.9491 12.4757 77.9677 13.7132 77.9677C14.9506 77.9677 15.9693 76.9491 15.9693 75.7116ZM102.83 147.344C102.83 146.415 102.067 145.652 101.138 145.652C100.21 145.652 99.4461 146.415 99.4461 147.344C99.4461 148.272 100.21 149.036 101.138 149.036C102.067 149.036 102.83 148.272 102.83 147.344ZM182.144 51.6838C182.144 51.0645 181.636 50.5557 181.016 50.5557C180.397 50.5557 179.888 51.0645 179.888 51.6838C179.888 52.3031 180.397 52.8119 181.016 52.8119C181.636 52.8119 182.144 52.3031 182.144 51.6838ZM19.3535 66.6871C19.3535 66.0678 18.8447 65.559 18.2254 65.559C17.6061 65.559 17.0974 66.0678 17.0974 66.6871C17.0974 67.3064 17.6061 67.8151 18.2254 67.8151C18.8447 67.8151 19.3535 67.3064 19.3535 66.6871Z" fill="#F4F9FF"/>
<path d="M47.419 56.5031C49.711 53.7801 52.0738 45.5572 50.7042 42.4458C47.9285 36.1428 38.5187 48.7552 35.9755 51.3864C32.1041 55.3905 29.0597 62.0964 36.7283 61.415C40.7093 61.0604 44.3669 60.1312 47.4198 56.5033L47.419 56.5031Z" fill="#F4F9FF"/>
<path d="M86.0111 102.786C104.793 104.786 127.788 104.274 149.106 99.99C149.283 99.954 149.466 100.078 149.513 100.265C149.561 100.453 149.455 100.633 149.277 100.669C127.884 104.967 104.839 105.48 85.9914 103.474C85.8075 103.454 85.6633 103.284 85.6691 103.095C85.6743 102.905 85.8279 102.767 86.0111 102.786Z" fill="#463099"/>
<path fill-rule="evenodd" clip-rule="evenodd" d="M36.5142 88.5901L36.4256 88.664C31.2851 91.4542 24.577 93.2122 19.2771 93.4869C19.2931 93.5212 19.3092 93.5555 19.3254 93.5899C21.4272 98.1 24.793 102.114 28.7163 105.319C35.6048 102.917 42.0145 99.0415 47.3481 94.0501L47.3542 94.0449C43.6494 92.4129 40.0298 90.596 36.5188 88.5927L36.5142 88.5901ZM29.3625 105.834C36.2868 103.357 42.7151 99.4106 48.053 94.3538L48.0585 94.3489L48.0744 94.3554C52.1602 96.1217 56.337 97.657 60.5762 98.9399L60.5717 98.9462C59.6449 100.263 58.5386 101.412 57.3031 102.667C54.9766 105.015 52.4701 107.481 49.6086 109.473C47.3181 111.066 45.0166 112.195 42.7245 112.851C41.4427 112.418 40.1776 111.938 38.924 111.406C38.6296 111.283 38.3355 111.155 38.0451 111.024C36.7433 110.439 35.4598 109.791 34.209 109.081C32.5459 108.141 30.918 107.055 29.3664 105.838L29.3625 105.834ZM43.8898 113.221C45.9295 112.524 47.9782 111.466 50.0066 110.053C52.9081 108.031 55.4405 105.55 57.7813 103.178C59.096 101.849 60.2649 100.631 61.2491 99.2004L61.2711 99.158L61.2721 99.1512L61.3005 99.1592C65.226 100.324 69.193 101.275 73.1813 102.003L73.1809 102.004L73.1767 102.005C69.5721 108.051 65.0093 112.901 60.5202 115.536L60.5213 115.537C54.9654 115.658 49.3259 114.896 43.9004 113.225C43.8969 113.224 43.8933 113.223 43.8898 113.221ZM62.0284 115.481C66.2948 112.652 70.4726 107.948 73.8579 102.216L73.8777 102.16L73.8797 102.154L73.9125 102.136L73.9156 102.134L73.9468 102.137C77.9931 102.847 82.0555 103.321 86.103 103.555C84.561 108.519 78.1462 112.374 72.5959 113.849C69.1765 114.76 65.6297 115.308 62.0284 115.481ZM86.2822 102.874C82.2333 102.655 78.1607 102.18 74.1109 101.475L74.0768 101.47C74.1712 99.764 74.1068 98.0458 73.9 96.3352C73.5016 93.024 72.2676 89.2498 70.7948 86.1376C70.8354 86.1626 70.876 86.1875 70.9167 86.2124C71.6485 86.6663 72.3707 87.1081 73.0677 87.529C73.7576 87.9452 74.4547 88.3501 75.1518 88.7548C77.4616 90.0961 79.7709 91.4371 81.8164 93.1927C85.8075 96.6133 86.915 99.9242 86.2823 102.873C86.2823 102.873 86.2823 102.873 86.2822 102.874ZM69.7534 85.4843C72.2079 90.2749 73.6866 96.1439 73.4117 101.352C69.4065 100.631 65.4228 99.6768 61.4834 98.509L61.4572 98.5014C61.6886 95.0999 61.5938 91.665 61.1832 88.2571C60.8076 85.1362 60.0616 81.5899 59.1502 78.5001C62.7031 80.9529 66.3675 83.3598 69.7534 85.4843ZM58.2847 77.8973C60.3028 84.4073 61.2353 91.6422 60.8001 98.3057C56.6388 97.0468 52.5287 95.5455 48.5152 93.8213L48.4939 93.8122L48.4945 93.7499C48.4852 93.6765 48.4542 93.5999 48.3984 93.5426L48.3736 93.5197L48.3639 93.5103C48.4015 90.738 48.2478 87.9556 47.9139 85.1899C47.2085 79.3295 45.5004 73.0537 43.2056 67.4925C43.2114 67.4953 43.2171 67.4982 43.2229 67.501C45.2517 68.4537 47.2378 69.6825 49.1117 71.1537C51.8266 73.2877 54.9797 75.5962 58.258 77.8788C58.2669 77.885 58.2758 77.8912 58.2847 77.8973ZM42.3323 67.0952C45.8412 75.3491 47.8082 84.6944 47.6989 93.4621C43.9633 91.8243 40.3112 89.994 36.7678 87.9764L36.7485 87.9655C36.7524 86.0187 36.6286 84.036 36.3873 82.0271C35.7183 76.4729 34.1302 70.7513 31.6905 65.1323C31.6933 65.1321 31.6962 65.132 31.6991 65.1318C35.0975 64.8655 38.7665 65.5643 42.3323 67.0952ZM31.0071 65.198C27.741 65.5754 24.7485 66.8666 22.3711 69.1841C22.3666 69.1885 22.3621 69.1929 22.3576 69.1972C24.0282 72.8724 25.172 76.8251 25.694 80.7569L25.6945 80.7618L25.6956 80.7964L25.7262 80.8188C29.0396 83.2527 32.4992 85.5123 36.0818 87.5817C36.0372 80.3767 34.2923 72.694 31.0071 65.198ZM21.8729 69.6981C23.3764 73.0643 24.4316 76.6568 24.9539 80.2466C22.7604 78.6064 20.6372 76.8891 18.5879 75.0986C18.4985 75.3127 18.4195 75.5351 18.3488 75.7567C20.2939 77.4511 22.3063 79.0827 24.3805 80.6386L24.382 80.6398C22.0829 80.9842 19.7085 80.8461 17.2755 80.2264C17.2565 80.3394 17.241 80.4518 17.2254 80.5644L17.2216 80.5916C17.2081 80.694 17.1945 80.8017 17.1847 80.9036C19.9184 81.5949 22.5862 81.6977 25.1567 81.2186C28.5623 83.7292 32.1233 86.0598 35.8149 88.1887C30.721 90.8963 24.1351 92.5824 18.9732 92.8057C17.3798 89.0961 16.6518 85.0729 17.1641 80.9027C17.1741 80.8006 17.1875 80.693 17.2011 80.5907C17.203 80.5771 17.2049 80.5634 17.2068 80.5498C17.2218 80.4417 17.2367 80.3339 17.2551 80.2253C17.4976 78.5958 17.8632 77.1066 18.3387 75.7557C18.4093 75.534 18.4883 75.3116 18.5777 75.0975C19.4116 72.9276 20.533 71.1373 21.8729 69.6981Z" fill="#463099"/>
<path d="M145.068 77.0258L129.879 64.9402C133.038 60.7365 134.744 55.6171 134.738 50.3596C134.738 36.9278 123.806 26 110.369 26C96.9321 26 86 36.9278 86 50.3596C86 63.7913 96.9321 74.7191 110.369 74.7191C115.629 74.7248 120.75 73.0194 124.955 69.8617L136.013 85.0446C136.802 86.0038 137.406 86.364 138.633 85.5462C140.006 84.631 144.052 81.0446 145.499 79.5975C146.415 78.6824 145.957 77.7672 145.068 77.0258ZM92.9626 50.3596C92.9626 40.8144 100.82 32.9599 110.369 32.9599C119.918 32.9599 127.776 40.8144 127.776 50.3596C127.776 59.9047 119.918 67.7592 110.369 67.7592C100.825 67.7478 92.974 59.9004 92.9626 50.3596Z" fill="#2058B4"/>
</svg>
