<svg xmlns="http://www.w3.org/2000/svg" width="17" height="16" viewBox="0 0 17 16">
  <path d="M1.833 6.333a1 1 0 011-1h1.734a1 1 0 011 1V13a1 1 0 01-1 1H2.833a1 1 0 01-1-1V6.333zM11.433 6.333a1 1 0 011-1h1.734a1 1 0 011 1V13a1 1 0 01-1 1h-1.734a1 1 0 01-1-1V6.333zM1.833 3a1 1 0 011-1h1.734a1 1 0 011 1v.667a1 1 0 01-1 1H2.833a1 1 0 01-1-1V3zM6.633 6.333a1 1 0 011-1h1.734a1 1 0 011 1V13a1 1 0 01-1 1H7.633a1 1 0 01-1-1V6.333zM6.633 3a1 1 0 011-1h1.734a1 1 0 011 1v.667a1 1 0 01-1 1H7.633a1 1 0 01-1-1V3zM11.433 3a1 1 0 011-1h1.734a1 1 0 011 1v.667a1 1 0 01-1 1h-1.734a1 1 0 01-1-1V3z"/>
</svg>
