<svg width="32" height="32" viewBox="0 0 32 32" xmlns="http://www.w3.org/2000/svg">
<path fill-rule="evenodd" clip-rule="evenodd" d="M17.5 6C17.2239 6 17 6.22386 17 6.5V8H7.92188C7.39062 8 6.9375 8.1875 6.5625 8.5625C6.1875 8.9375 6 9.375 6 9.875V21.125C6 21.625 6.1875 22.0625 6.5625 22.4375C6.9375 22.8125 7.39062 23 7.92188 23H17V24.5C17 24.7761 17.2239 25 17.5 25C17.7761 25 18 24.7761 18 24.5V23H24.0781C24.6094 23 25.0625 22.8125 25.4375 22.4375C25.8125 22.0625 26 21.625 26 21.125V9.875C26 9.375 25.8125 8.9375 25.4375 8.5625C25.0625 8.1875 24.6094 8 24.0781 8H18V6.5C18 6.22386 17.7761 6 17.5 6ZM17 9.875H7.92188V21.125H17V9.875ZM18 21.125V9.875H24.0781V21.125H18Z" />
<path fill-rule="evenodd" clip-rule="evenodd" d="M10.3735 13.247H11.5625V18.5625C11.5625 19.0803 11.9822 19.5 12.5 19.5C13.0178 19.5 13.4375 19.0803 13.4375 18.5625V13.247H14.6265C15.1089 13.247 15.5 12.8559 15.5 12.3735C15.5 11.8911 15.1089 11.5 14.6265 11.5H10.3735C9.89107 11.5 9.5 11.8911 9.5 12.3735C9.5 12.8559 9.89107 13.247 10.3735 13.247Z" />
</svg>
