<svg xmlns="http://www.w3.org/2000/svg" width="24" height="24" viewBox="0 0 24 24">
  <path fill-rule="evenodd" d="M18.574 9.473c.71.16 1.381.458 1.928.863.98.726 1.498 1.729 1.498 2.898 0 1.205-.48 2.216-1.389 2.923-.802.624-1.918.968-3.142.968h-4.844v-5.991l1.434 1.433a.625.625 0 00.886-.002.637.637 0 00-.015-.895l-2.488-2.487a.625.625 0 00-.884 0L9.07 11.671a.637.637 0 00-.033.874.624.624 0 00.905.022l1.433-1.433v5.991H7.312c-1.416 0-2.737-.467-3.719-1.314A4.524 4.524 0 012 12.344c0-1.334.526-2.503 1.52-3.381.72-.635 1.664-1.083 2.709-1.294a.625.625 0 00.442-.347 5.862 5.862 0 011.643-2.07C9.344 4.432 10.619 4 12 4c1.57 0 3.053.565 4.173 1.592.965.882 1.62 2.046 1.925 3.403a.63.63 0 00.476.478zm-7.199 7.652v2.516a.624.624 0 101.25 0v-2.516h-1.25z" clip-rule="evenodd"/>
</svg>
