<svg width="32" height="32" viewBox="0 0 32 32" xmlns="http://www.w3.org/2000/svg">
<path fill-rule="evenodd" clip-rule="evenodd" d="M22.5742 13.4727C23.2836 13.6332 23.9555 13.9309 24.5023 14.3363C25.482 15.0621 26 16.0648 26 17.2344C26 18.4387 25.5199 19.4504 24.6113 20.1574C23.809 20.7812 22.693 21.125 21.4688 21.125H16.625V15.134L18.059 16.5672C18.1172 16.6254 18.1864 16.6715 18.2625 16.7029C18.3386 16.7343 18.4201 16.7503 18.5024 16.7501C18.5848 16.7499 18.6662 16.7334 18.7422 16.7016C18.8181 16.6698 18.887 16.6233 18.9449 16.5648C19.1891 16.3184 19.175 15.9156 18.9297 15.6699L16.4418 13.1832C16.3246 13.0661 16.1657 13.0003 16 13.0003C15.8343 13.0003 15.6754 13.0661 15.5582 13.1832L13.0703 15.6707C12.8324 15.9086 12.8105 16.2965 13.0371 16.5453C13.094 16.608 13.163 16.6584 13.2399 16.6936C13.3169 16.7288 13.4002 16.748 13.4848 16.75C13.5694 16.7521 13.6535 16.7369 13.732 16.7055C13.8106 16.6741 13.882 16.627 13.9418 16.5672L15.375 15.134V21.125H11.3125C9.8957 21.125 8.57461 20.6582 7.59336 19.8109C6.56602 18.9219 6 17.6922 6 16.3438C6 15.0098 6.52578 13.8414 7.52031 12.9625C8.24062 12.3277 9.18398 11.8797 10.2289 11.6688C10.3245 11.6495 10.4142 11.6081 10.4909 11.5479C10.5676 11.4877 10.6292 11.4105 10.6707 11.3223C11.0536 10.5161 11.6156 9.80799 12.3137 9.25195C13.3438 8.43281 14.6191 8 16 8C17.5707 8 19.0527 8.56484 20.1734 9.5918C21.1375 10.4738 21.7934 11.6379 22.098 12.9953C22.124 13.1119 22.1825 13.2186 22.2668 13.3031C22.3511 13.3877 22.4577 13.4465 22.5742 13.4727ZM15.375 21.125V23.6414C15.375 23.8072 15.4408 23.9661 15.5581 24.0833C15.6753 24.2006 15.8342 24.2664 16 24.2664C16.1658 24.2664 16.3247 24.2006 16.4419 24.0833C16.5592 23.9661 16.625 23.8072 16.625 23.6414V21.125H15.375Z"/>
</svg>
