<svg width="32" height="32" viewBox="0 0 32 32" xmlns="http://www.w3.org/2000/svg">
<path fill-rule="evenodd" clip-rule="evenodd" d="M16 6C10.4788 6 6 10.4764 6 16C6 21.5236 10.4769 26 16 26C21.5231 26 26 21.5231 26 16C26 10.4769 21.5216 6 16 6ZM22.001 15.7721C21.8639 17.3409 21.1938 18.1615 20.6548 18.5731C20.1159 18.9846 19.4688 19.1654 18.9106 19.0654C18.3882 18.9719 17.9243 18.6746 17.6212 18.2389C17.0555 18.7892 16.2949 19.0929 15.5058 19.0837C14.8012 19.0891 14.1274 18.7949 13.6524 18.2745C13.1053 17.6774 12.8351 16.8149 12.9159 15.9077C13.0601 14.225 14.4019 13.1486 15.65 12.9519C16.9577 12.7457 18.1611 13.2663 18.674 13.8875L18.8591 14.1115L18.5543 16.5337C18.4971 17.2231 18.712 17.6625 19.1452 17.7404C19.2601 17.7606 19.5346 17.7341 19.8361 17.5034C20.1591 17.2558 20.5639 16.7341 20.6582 15.6538C20.7712 14.3779 20.449 13.2889 19.7327 12.5053C18.988 11.6928 17.8534 11.263 16.4524 11.263C13.8562 11.263 11.5577 13.399 11.3284 16.0226C11.2188 17.2822 11.601 18.4591 12.4053 19.3365C13.1918 20.1952 14.2952 20.6702 15.5139 20.6702C16.4274 20.6702 16.9856 20.5716 17.8928 20.2481C18.243 20.1233 18.6281 20.306 18.7529 20.6562C18.8777 21.0065 18.6949 21.3916 18.3447 21.5163C17.2957 21.8899 16.5813 22.0163 15.5139 22.0163C13.9139 22.0163 12.4577 21.3885 11.413 20.2486C10.3529 19.0894 9.84423 17.5481 9.9875 15.9077C10.1274 14.3053 10.8745 12.8005 12.0918 11.6712C13.3091 10.5418 14.8596 9.91683 16.4524 9.91683C18.2409 9.91683 19.7183 10.4976 20.725 11.5962C21.6909 12.6495 22.1437 14.1322 22.001 15.7721ZM14.2582 16.025C14.3438 15.0433 15.1481 14.3937 15.8611 14.2817C16.4079 14.1959 16.9676 14.303 17.4442 14.5846L17.2904 15.8082C17.2825 15.8409 17.277 15.8742 17.274 15.9077C17.1769 17.0192 16.4837 17.7375 15.5072 17.7375C15.1799 17.743 14.8662 17.6073 14.6462 17.3649C14.3543 17.0452 14.2101 16.5567 14.2582 16.025Z"/>
</svg>
